M48
;DRILL file {KiCad (2015-06-30 BZR 5847, Git 785638a)-product} date 2015/07/09 22:24:08
;FORMAT={-:-/ absolute / inch / decimal}
FMAT,2
INCH,TZ
T1C0.016
T2C0.031
T3C0.032
T4C0.035
T5C0.039
T6C0.039
T7C0.040
T8C0.045
T9C0.052
T10C0.108
%
G90
G05
M72
T1
X5.1378Y-3.4646
X5.2953Y-4.5866
X5.9646Y-4.3701
X5.9646Y-5.
X6.5354Y-4.3701
T2
X5.8614Y-3.6803
X5.8614Y-3.7803
X5.8614Y-3.8803
X5.8614Y-3.9803
X5.8614Y-4.0803
X5.8614Y-4.1803
X5.8614Y-4.2803
X5.8614Y-4.3803
X5.8614Y-4.4803
X5.8614Y-4.5803
X5.8614Y-4.6803
X5.8614Y-4.7803
X5.8614Y-4.8803
X5.8614Y-4.9803
X6.1614Y-3.6803
X6.1614Y-3.7803
X6.1614Y-3.8803
X6.1614Y-3.9803
X6.1614Y-4.0803
X6.1614Y-4.1803
X6.1614Y-4.2803
X6.1614Y-4.3803
X6.1614Y-4.4803
X6.1614Y-4.5803
X6.1614Y-4.6803
X6.1614Y-4.7803
X6.1614Y-4.8803
X6.1614Y-4.9803
T3
X6.4173Y-4.0574
X6.4173Y-4.2496
T4
X4.5669Y-4.0551
X4.5669Y-4.252
X6.6929Y-3.878
X6.6929Y-4.0748
X6.6929Y-4.311
X6.6929Y-4.5079
T5
X5.3528Y-3.622
X5.4528Y-3.622
X5.4815Y-5.1772
X5.5528Y-3.622
X5.5815Y-5.1772
T6
X4.8228Y-3.9535
X4.8228Y-4.3535
X5.0197Y-3.9535
X5.0197Y-4.3535
X5.2165Y-3.9535
X5.2165Y-4.3535
X5.3937Y-3.9535
X5.3937Y-4.3535
X5.9024Y-5.2559
X6.3024Y-5.2559
T7
X4.6063Y-3.2465
X4.6063Y-3.3465
X4.626Y-3.6811
X4.7063Y-3.2465
X4.7063Y-3.3465
X4.726Y-3.6811
X4.8063Y-3.2465
X4.8063Y-3.3465
X4.826Y-3.6811
X4.9063Y-3.2465
X4.9063Y-3.3465
X4.926Y-3.6811
X5.0063Y-3.2465
X5.0063Y-3.3465
X5.1063Y-3.2465
X5.1063Y-3.3465
X5.2063Y-3.2465
X5.2063Y-3.3465
X5.3063Y-3.2465
X5.3063Y-3.3465
X5.4063Y-3.2465
X5.4063Y-3.3465
X5.5063Y-3.2465
X5.5063Y-3.3465
X5.6063Y-3.2465
X5.6063Y-3.3465
X5.7063Y-3.2465
X5.7063Y-3.3465
X5.8063Y-3.2465
X5.8063Y-3.3465
X5.9063Y-3.2465
X5.9063Y-3.3465
X6.0063Y-3.2465
X6.0063Y-3.3465
X6.1063Y-3.2465
X6.1063Y-3.3465
X6.2063Y-3.2465
X6.2063Y-3.3465
X6.3063Y-3.2465
X6.3063Y-3.3465
X6.4063Y-3.2465
X6.4063Y-3.3465
X6.4567Y-4.6803
X6.4567Y-4.7803
X6.4567Y-4.8803
X6.4567Y-4.9803
X6.5063Y-3.2465
X6.5063Y-3.3465
T8
X5.1378Y-4.7425
X5.1378Y-4.8425
X5.1378Y-4.9425
T9
X4.5079Y-4.7244
X4.5079Y-4.9213
T10
X4.4094Y-3.2874
X4.4094Y-5.2165
X6.6929Y-3.2874
X6.6929Y-5.2165
T0
M30
