G04 #@! TF.FileFunction,Legend,Top*
%FSLAX46Y46*%
G04 Gerber Fmt 4.6, Leading zero omitted, Abs format (unit mm)*
G04 Created by KiCad (PCBNEW (2015-06-30 BZR 5847, Git 785638a)-product) date 2015/07/09 22:16:44*
%MOMM*%
G01*
G04 APERTURE LIST*
%ADD10C,0.100000*%
%ADD11C,0.150000*%
G04 APERTURE END LIST*
D10*
D11*
X118250000Y-102500000D02*
X118250000Y-108500000D01*
X113750000Y-108500000D02*
X113750000Y-102500000D01*
X172250000Y-109000000D02*
X172250000Y-115000000D01*
X167750000Y-115000000D02*
X167750000Y-109000000D01*
X172250000Y-98000000D02*
X172250000Y-104000000D01*
X167750000Y-104000000D02*
X167750000Y-98000000D01*
X156365000Y-128795000D02*
X156365000Y-127525000D01*
X149015000Y-128795000D02*
X149015000Y-127525000D01*
X149015000Y-91185000D02*
X149015000Y-92455000D01*
X156365000Y-91185000D02*
X156365000Y-92455000D01*
X156365000Y-128795000D02*
X149015000Y-128795000D01*
X156365000Y-91185000D02*
X149015000Y-91185000D01*
X156365000Y-127525000D02*
X157650000Y-127525000D01*
X117040000Y-126259600D02*
X117040000Y-123719600D01*
X117040000Y-123719600D02*
X114246000Y-123719600D01*
X114246000Y-126259600D02*
X114246000Y-123719600D01*
X117040000Y-126259600D02*
X114246000Y-126259600D01*
X117040000Y-121255800D02*
X117040000Y-118715800D01*
X117040000Y-118715800D02*
X114246000Y-118715800D01*
X114246000Y-121255800D02*
X114246000Y-118715800D01*
X117040000Y-121255800D02*
X114246000Y-121255800D01*
X108277000Y-117395000D02*
X111325000Y-117395000D01*
X108277000Y-117395000D02*
X108277000Y-127580000D01*
X108277000Y-117395000D02*
X108277000Y-116887000D01*
X108277000Y-116887000D02*
X113103000Y-116887000D01*
X113103000Y-116887000D02*
X112849000Y-117395000D01*
X119961000Y-116887000D02*
X119707000Y-117395000D01*
X119707000Y-117395000D02*
X120723000Y-117395000D01*
X118310000Y-116887000D02*
X118564000Y-117395000D01*
X118564000Y-117395000D02*
X119707000Y-117395000D01*
X118310000Y-116887000D02*
X119961000Y-116887000D01*
X120723000Y-122017800D02*
X118818000Y-122017800D01*
X114246000Y-117953800D02*
X118818000Y-117953800D01*
X120723000Y-122017800D02*
X120723000Y-117953800D01*
X120723000Y-117953800D02*
X120723000Y-117395000D01*
X120723000Y-122957600D02*
X118818000Y-122957600D01*
X120723000Y-122957600D02*
X120723000Y-122017800D01*
X114246000Y-127021600D02*
X118818000Y-127021600D01*
X120723000Y-127580000D02*
X120723000Y-127021600D01*
X120723000Y-127021600D02*
X120723000Y-122957600D01*
X118818000Y-122017800D02*
X118818000Y-117953800D01*
X118818000Y-122017800D02*
X114246000Y-122017800D01*
X118818000Y-117953800D02*
X120723000Y-117953800D01*
X118818000Y-122957600D02*
X118818000Y-127021600D01*
X118818000Y-122957600D02*
X114246000Y-122957600D01*
X118818000Y-127021600D02*
X120723000Y-127021600D01*
X118183000Y-118334800D02*
X115008000Y-118334800D01*
X118183000Y-118334800D02*
X118183000Y-121636800D01*
X118183000Y-121636800D02*
X115008000Y-121636800D01*
X118183000Y-123338600D02*
X115008000Y-123338600D01*
X118183000Y-123338600D02*
X118183000Y-126640600D01*
X118183000Y-126640600D02*
X115008000Y-126640600D01*
X115008000Y-126640600D02*
X115008000Y-126259600D01*
X115008000Y-123338600D02*
X115008000Y-123719600D01*
X115008000Y-121636800D02*
X115008000Y-121255800D01*
X115008000Y-118334800D02*
X115008000Y-118715800D01*
X120723000Y-127580000D02*
X113865000Y-127580000D01*
X113865000Y-127580000D02*
X111325000Y-127580000D01*
X112849000Y-117395000D02*
X113865000Y-117395000D01*
X113865000Y-117395000D02*
X118564000Y-117395000D01*
X111325000Y-127580000D02*
X111325000Y-117395000D01*
X111325000Y-127580000D02*
X108277000Y-127580000D01*
X111325000Y-117395000D02*
X112849000Y-117395000D01*
X111071000Y-122017800D02*
X108531000Y-122017800D01*
X108531000Y-122017800D02*
X108531000Y-117953800D01*
X108531000Y-117953800D02*
X111071000Y-117953800D01*
X111071000Y-117953800D02*
X111071000Y-122017800D01*
X111071000Y-122957600D02*
X108531000Y-122957600D01*
X111071000Y-122957600D02*
X111071000Y-127021600D01*
X111071000Y-127021600D02*
X108531000Y-127021600D01*
X108531000Y-122957600D02*
X108531000Y-127021600D01*
X110055000Y-121611400D02*
X109420000Y-118563400D01*
X110182000Y-121484400D02*
X109547000Y-118436400D01*
X110055000Y-126615200D02*
X109420000Y-123564660D01*
X110182000Y-126488200D02*
X109547000Y-123440200D01*
X114246000Y-127021600D02*
X114246000Y-126640600D01*
X114246000Y-122957600D02*
X114246000Y-123338600D01*
X114246000Y-123338600D02*
X114246000Y-126640600D01*
X113865000Y-127580000D02*
X113865000Y-126640600D01*
X113865000Y-126640600D02*
X113865000Y-123338600D01*
X113865000Y-123338600D02*
X113865000Y-121636800D01*
X113865000Y-117395000D02*
X113865000Y-118334800D01*
X113865000Y-118334800D02*
X113865000Y-121636800D01*
X114246000Y-117953800D02*
X114246000Y-118334800D01*
X114246000Y-122017800D02*
X114246000Y-121636800D01*
X114246000Y-121636800D02*
X114246000Y-118334800D01*
X110414570Y-118517028D02*
G75*
G03X109447940Y-118464340I-509430J-452772D01*
G01*
X110334896Y-121459728D02*
G75*
G03X110382660Y-118471960I-1905496J1524728D01*
G01*
X109443156Y-118460589D02*
G75*
G03X109496200Y-121611400I1348444J-1553151D01*
G01*
X109446519Y-121560097D02*
G75*
G03X110372500Y-121418360I407821J431297D01*
G01*
X110417110Y-123520851D02*
G75*
G03X109447940Y-123465600I-511970J-452749D01*
G01*
X110334896Y-126460988D02*
G75*
G03X110382660Y-123473220I-1905496J1524728D01*
G01*
X109438153Y-123458427D02*
G75*
G03X109496200Y-126615200I1353447J-1554033D01*
G01*
X109448981Y-126564520D02*
G75*
G03X110372500Y-126419620I405359J431920D01*
G01*
X165270000Y-125230000D02*
X165270000Y-117610000D01*
X162730000Y-125230000D02*
X162730000Y-117610000D01*
X162450000Y-128050000D02*
X162450000Y-126500000D01*
X165270000Y-117610000D02*
X162730000Y-117610000D01*
X162730000Y-125230000D02*
X165270000Y-125230000D01*
X165550000Y-126500000D02*
X165550000Y-128050000D01*
X165550000Y-128050000D02*
X162450000Y-128050000D01*
X118770000Y-94770000D02*
X126390000Y-94770000D01*
X118770000Y-92230000D02*
X126390000Y-92230000D01*
X115950000Y-91950000D02*
X117500000Y-91950000D01*
X126390000Y-94770000D02*
X126390000Y-92230000D01*
X118770000Y-92230000D02*
X118770000Y-94770000D01*
X117500000Y-95050000D02*
X115950000Y-95050000D01*
X115950000Y-95050000D02*
X115950000Y-91950000D01*
X134690000Y-88825000D02*
X134690000Y-95175000D01*
X142310000Y-88825000D02*
X142310000Y-95175000D01*
X142310000Y-90730000D02*
X134690000Y-90730000D01*
X134690000Y-88825000D02*
X142310000Y-88825000D01*
X142310000Y-95175000D02*
X134690000Y-95175000D01*
X166530000Y-81190000D02*
X115730000Y-81190000D01*
X118270000Y-86270000D02*
X166530000Y-86270000D01*
X166530000Y-81190000D02*
X166530000Y-86270000D01*
X115730000Y-81190000D02*
X115730000Y-83730000D01*
X115450000Y-85000000D02*
X115450000Y-86550000D01*
X115730000Y-83730000D02*
X118270000Y-83730000D01*
X118270000Y-83730000D02*
X118270000Y-86270000D01*
X115450000Y-86550000D02*
X117000000Y-86550000D01*
X132151000Y-127826000D02*
X128722000Y-127826000D01*
X132151000Y-118174000D02*
X128722000Y-118174000D01*
X133294000Y-128334000D02*
X133294000Y-117666000D01*
X132278000Y-124778000D02*
X133548000Y-124778000D01*
X132278000Y-121222000D02*
X133548000Y-121222000D01*
X132151000Y-117666000D02*
X132151000Y-128334000D01*
X128722000Y-128334000D02*
X128722000Y-117666000D01*
X133548000Y-117666000D02*
X128722000Y-117666000D01*
X133548000Y-128334000D02*
X128722000Y-128334000D01*
X133548000Y-128334000D02*
X133548000Y-117666000D01*
X152460000Y-132230000D02*
X157540000Y-132230000D01*
X157540000Y-132230000D02*
X157540000Y-134770000D01*
X157540000Y-134770000D02*
X152460000Y-134770000D01*
X152460000Y-134770000D02*
X152460000Y-132230000D01*
X152460000Y-133500000D02*
X151190000Y-133500000D01*
X157540000Y-133500000D02*
X158810000Y-133500000D01*
X135730000Y-108040000D02*
X135730000Y-102960000D01*
X135730000Y-102960000D02*
X138270000Y-102960000D01*
X138270000Y-102960000D02*
X138270000Y-108040000D01*
X138270000Y-108040000D02*
X135730000Y-108040000D01*
X137000000Y-108040000D02*
X137000000Y-109310000D01*
X137000000Y-102960000D02*
X137000000Y-101690000D01*
X133770000Y-102960000D02*
X133770000Y-108040000D01*
X133770000Y-108040000D02*
X131230000Y-108040000D01*
X131230000Y-108040000D02*
X131230000Y-102960000D01*
X131230000Y-102960000D02*
X133770000Y-102960000D01*
X132500000Y-102960000D02*
X132500000Y-101690000D01*
X132500000Y-108040000D02*
X132500000Y-109310000D01*
X121230000Y-108040000D02*
X121230000Y-102960000D01*
X121230000Y-102960000D02*
X123770000Y-102960000D01*
X123770000Y-102960000D02*
X123770000Y-108040000D01*
X123770000Y-108040000D02*
X121230000Y-108040000D01*
X122500000Y-108040000D02*
X122500000Y-109310000D01*
X122500000Y-102960000D02*
X122500000Y-101690000D01*
X126230000Y-108040000D02*
X126230000Y-102960000D01*
X126230000Y-102960000D02*
X128770000Y-102960000D01*
X128770000Y-102960000D02*
X128770000Y-108040000D01*
X128770000Y-108040000D02*
X126230000Y-108040000D01*
X127500000Y-108040000D02*
X127500000Y-109310000D01*
X127500000Y-102960000D02*
X127500000Y-101690000D01*
X137960000Y-132770000D02*
X143040000Y-132770000D01*
X137960000Y-128325000D02*
X143040000Y-128325000D01*
X143040000Y-134675000D02*
X137960000Y-134675000D01*
X143040000Y-134675000D02*
X143040000Y-128325000D01*
X137960000Y-134675000D02*
X137960000Y-128325000D01*
X161999240Y-100801000D02*
X162400560Y-100600340D01*
X162400560Y-100600340D02*
X163000000Y-100498740D01*
X163000000Y-100498740D02*
X163500380Y-100600340D01*
X163500380Y-100600340D02*
X164198880Y-100999120D01*
X164198880Y-100999120D02*
X164600200Y-101601100D01*
X164600200Y-101601100D02*
X164800860Y-102200540D01*
X164800860Y-102200540D02*
X164800860Y-108799460D01*
X164800860Y-108799460D02*
X164600200Y-109500500D01*
X164600200Y-109500500D02*
X164300480Y-109899280D01*
X164300480Y-109899280D02*
X163800100Y-110300600D01*
X163800100Y-110300600D02*
X163200660Y-110501260D01*
X163200660Y-110501260D02*
X162700280Y-110501260D01*
X162700280Y-110501260D02*
X162199900Y-110300600D01*
X162199900Y-110300600D02*
X161600460Y-109800220D01*
X161600460Y-109800220D02*
X161300740Y-109299840D01*
X161300740Y-109299840D02*
X161199140Y-108799460D01*
X161199140Y-108700400D02*
X161199140Y-102098940D01*
X161199140Y-102098940D02*
X161300740Y-101700160D01*
X161300740Y-101700160D02*
X161600460Y-101199780D01*
X161600460Y-101199780D02*
X162100840Y-100699400D01*
X160670820Y-108690240D02*
X160719080Y-109149980D01*
X160719080Y-109149980D02*
X160830840Y-109548760D01*
X160830840Y-109548760D02*
X161049280Y-109980560D01*
X161049280Y-109980560D02*
X161280420Y-110270120D01*
X161280420Y-110270120D02*
X161630940Y-110600320D01*
X161630940Y-110600320D02*
X162169420Y-110889880D01*
X162169420Y-110889880D02*
X162768860Y-111019420D01*
X162768860Y-111019420D02*
X163279400Y-111019420D01*
X163279400Y-111019420D02*
X163980440Y-110849240D01*
X163980440Y-110849240D02*
X164569720Y-110450460D01*
X164569720Y-110450460D02*
X164940560Y-109990720D01*
X164940560Y-109990720D02*
X165148840Y-109569080D01*
X165148840Y-109569080D02*
X165308860Y-109119500D01*
X165308860Y-109119500D02*
X165339340Y-108680080D01*
X165120900Y-101339480D02*
X164899920Y-100961020D01*
X164899920Y-100961020D02*
X164620520Y-100640980D01*
X164620520Y-100640980D02*
X164290320Y-100389520D01*
X164290320Y-100389520D02*
X163739140Y-100089800D01*
X163739140Y-100089800D02*
X163269240Y-99980580D01*
X163269240Y-99980580D02*
X162809500Y-99960260D01*
X162809500Y-99960260D02*
X162349760Y-100049160D01*
X162349760Y-100049160D02*
X161900180Y-100239660D01*
X161900180Y-100239660D02*
X161430280Y-100600340D01*
X161430280Y-100600340D02*
X161110240Y-100950860D01*
X161110240Y-100950860D02*
X160879100Y-101339480D01*
X160879100Y-101339480D02*
X160739400Y-101768740D01*
X160739400Y-101768740D02*
X160670820Y-102210700D01*
X165329180Y-108700400D02*
X165329180Y-102248800D01*
X165329180Y-102248800D02*
X165291080Y-101829700D01*
X165291080Y-101829700D02*
X165120900Y-101339480D01*
X160670820Y-108700400D02*
X160670820Y-102248800D01*
X119857143Y-105666666D02*
X119904762Y-105714285D01*
X119952381Y-105857142D01*
X119952381Y-105952380D01*
X119904762Y-106095238D01*
X119809524Y-106190476D01*
X119714286Y-106238095D01*
X119523810Y-106285714D01*
X119380952Y-106285714D01*
X119190476Y-106238095D01*
X119095238Y-106190476D01*
X119000000Y-106095238D01*
X118952381Y-105952380D01*
X118952381Y-105857142D01*
X119000000Y-105714285D01*
X119047619Y-105666666D01*
X119952381Y-104714285D02*
X119952381Y-105285714D01*
X119952381Y-105000000D02*
X118952381Y-105000000D01*
X119095238Y-105095238D01*
X119190476Y-105190476D01*
X119238095Y-105285714D01*
X173857143Y-112166666D02*
X173904762Y-112214285D01*
X173952381Y-112357142D01*
X173952381Y-112452380D01*
X173904762Y-112595238D01*
X173809524Y-112690476D01*
X173714286Y-112738095D01*
X173523810Y-112785714D01*
X173380952Y-112785714D01*
X173190476Y-112738095D01*
X173095238Y-112690476D01*
X173000000Y-112595238D01*
X172952381Y-112452380D01*
X172952381Y-112357142D01*
X173000000Y-112214285D01*
X173047619Y-112166666D01*
X173047619Y-111785714D02*
X173000000Y-111738095D01*
X172952381Y-111642857D01*
X172952381Y-111404761D01*
X173000000Y-111309523D01*
X173047619Y-111261904D01*
X173142857Y-111214285D01*
X173238095Y-111214285D01*
X173380952Y-111261904D01*
X173952381Y-111833333D01*
X173952381Y-111214285D01*
X173857143Y-101166666D02*
X173904762Y-101214285D01*
X173952381Y-101357142D01*
X173952381Y-101452380D01*
X173904762Y-101595238D01*
X173809524Y-101690476D01*
X173714286Y-101738095D01*
X173523810Y-101785714D01*
X173380952Y-101785714D01*
X173190476Y-101738095D01*
X173095238Y-101690476D01*
X173000000Y-101595238D01*
X172952381Y-101452380D01*
X172952381Y-101357142D01*
X173000000Y-101214285D01*
X173047619Y-101166666D01*
X172952381Y-100833333D02*
X172952381Y-100214285D01*
X173333333Y-100547619D01*
X173333333Y-100404761D01*
X173380952Y-100309523D01*
X173428571Y-100261904D01*
X173523810Y-100214285D01*
X173761905Y-100214285D01*
X173857143Y-100261904D01*
X173904762Y-100309523D01*
X173952381Y-100404761D01*
X173952381Y-100690476D01*
X173904762Y-100785714D01*
X173857143Y-100833333D01*
X155523810Y-132172381D02*
X155523810Y-131172381D01*
X156571429Y-132077143D02*
X156523810Y-132124762D01*
X156380953Y-132172381D01*
X156285715Y-132172381D01*
X156142857Y-132124762D01*
X156047619Y-132029524D01*
X156000000Y-131934286D01*
X155952381Y-131743810D01*
X155952381Y-131600952D01*
X156000000Y-131410476D01*
X156047619Y-131315238D01*
X156142857Y-131220000D01*
X156285715Y-131172381D01*
X156380953Y-131172381D01*
X156523810Y-131220000D01*
X156571429Y-131267619D01*
X156952381Y-131267619D02*
X157000000Y-131220000D01*
X157095238Y-131172381D01*
X157333334Y-131172381D01*
X157428572Y-131220000D01*
X157476191Y-131267619D01*
X157523810Y-131362857D01*
X157523810Y-131458095D01*
X157476191Y-131600952D01*
X156904762Y-132172381D01*
X157523810Y-132172381D01*
X107967381Y-127658095D02*
X106967381Y-127658095D01*
X106967381Y-127277142D01*
X107015000Y-127181904D01*
X107062619Y-127134285D01*
X107157857Y-127086666D01*
X107300714Y-127086666D01*
X107395952Y-127134285D01*
X107443571Y-127181904D01*
X107491190Y-127277142D01*
X107491190Y-127658095D01*
X107967381Y-126134285D02*
X107967381Y-126705714D01*
X107967381Y-126420000D02*
X106967381Y-126420000D01*
X107110238Y-126515238D01*
X107205476Y-126610476D01*
X107253095Y-126705714D01*
X163261905Y-132052381D02*
X163261905Y-131052381D01*
X163642858Y-131052381D01*
X163738096Y-131100000D01*
X163785715Y-131147619D01*
X163833334Y-131242857D01*
X163833334Y-131385714D01*
X163785715Y-131480952D01*
X163738096Y-131528571D01*
X163642858Y-131576190D01*
X163261905Y-131576190D01*
X164214286Y-131147619D02*
X164261905Y-131100000D01*
X164357143Y-131052381D01*
X164595239Y-131052381D01*
X164690477Y-131100000D01*
X164738096Y-131147619D01*
X164785715Y-131242857D01*
X164785715Y-131338095D01*
X164738096Y-131480952D01*
X164166667Y-132052381D01*
X164785715Y-132052381D01*
X112852381Y-94238095D02*
X111852381Y-94238095D01*
X111852381Y-93857142D01*
X111900000Y-93761904D01*
X111947619Y-93714285D01*
X112042857Y-93666666D01*
X112185714Y-93666666D01*
X112280952Y-93714285D01*
X112328571Y-93761904D01*
X112376190Y-93857142D01*
X112376190Y-94238095D01*
X111852381Y-93333333D02*
X111852381Y-92714285D01*
X112233333Y-93047619D01*
X112233333Y-92904761D01*
X112280952Y-92809523D01*
X112328571Y-92761904D01*
X112423810Y-92714285D01*
X112661905Y-92714285D01*
X112757143Y-92761904D01*
X112804762Y-92809523D01*
X112852381Y-92904761D01*
X112852381Y-93190476D01*
X112804762Y-93285714D01*
X112757143Y-93333333D01*
X137811905Y-88652381D02*
X137811905Y-87652381D01*
X138192858Y-87652381D01*
X138288096Y-87700000D01*
X138335715Y-87747619D01*
X138383334Y-87842857D01*
X138383334Y-87985714D01*
X138335715Y-88080952D01*
X138288096Y-88128571D01*
X138192858Y-88176190D01*
X137811905Y-88176190D01*
X139240477Y-87985714D02*
X139240477Y-88652381D01*
X139002381Y-87604762D02*
X138764286Y-88319048D01*
X139383334Y-88319048D01*
X112352381Y-85738095D02*
X111352381Y-85738095D01*
X111352381Y-85357142D01*
X111400000Y-85261904D01*
X111447619Y-85214285D01*
X111542857Y-85166666D01*
X111685714Y-85166666D01*
X111780952Y-85214285D01*
X111828571Y-85261904D01*
X111876190Y-85357142D01*
X111876190Y-85738095D01*
X111352381Y-84261904D02*
X111352381Y-84738095D01*
X111828571Y-84785714D01*
X111780952Y-84738095D01*
X111733333Y-84642857D01*
X111733333Y-84404761D01*
X111780952Y-84309523D01*
X111828571Y-84261904D01*
X111923810Y-84214285D01*
X112161905Y-84214285D01*
X112257143Y-84261904D01*
X112304762Y-84309523D01*
X112352381Y-84404761D01*
X112352381Y-84642857D01*
X112304762Y-84738095D01*
X112257143Y-84785714D01*
X135365619Y-123095238D02*
X135318000Y-123190476D01*
X135222762Y-123285714D01*
X135079905Y-123428571D01*
X135032286Y-123523810D01*
X135032286Y-123619048D01*
X135270381Y-123571429D02*
X135222762Y-123666667D01*
X135127524Y-123761905D01*
X134937048Y-123809524D01*
X134603714Y-123809524D01*
X134413238Y-123761905D01*
X134318000Y-123666667D01*
X134270381Y-123571429D01*
X134270381Y-123380952D01*
X134318000Y-123285714D01*
X134413238Y-123190476D01*
X134603714Y-123142857D01*
X134937048Y-123142857D01*
X135127524Y-123190476D01*
X135222762Y-123285714D01*
X135270381Y-123380952D01*
X135270381Y-123571429D01*
X135270381Y-122190476D02*
X135270381Y-122761905D01*
X135270381Y-122476191D02*
X134270381Y-122476191D01*
X134413238Y-122571429D01*
X134508476Y-122666667D01*
X134556095Y-122761905D01*
X155082254Y-130452261D02*
X154748920Y-129976070D01*
X154510825Y-130452261D02*
X154510825Y-129452261D01*
X154891778Y-129452261D01*
X154987016Y-129499880D01*
X155034635Y-129547499D01*
X155082254Y-129642737D01*
X155082254Y-129785594D01*
X155034635Y-129880832D01*
X154987016Y-129928451D01*
X154891778Y-129976070D01*
X154510825Y-129976070D01*
X156034635Y-130452261D02*
X155463206Y-130452261D01*
X155748920Y-130452261D02*
X155748920Y-129452261D01*
X155653682Y-129595118D01*
X155558444Y-129690356D01*
X155463206Y-129737975D01*
X133952261Y-105417746D02*
X133476070Y-105751080D01*
X133952261Y-105989175D02*
X132952261Y-105989175D01*
X132952261Y-105608222D01*
X132999880Y-105512984D01*
X133047499Y-105465365D01*
X133142737Y-105417746D01*
X133285594Y-105417746D01*
X133380832Y-105465365D01*
X133428451Y-105512984D01*
X133476070Y-105608222D01*
X133476070Y-105989175D01*
X133047499Y-105036794D02*
X132999880Y-104989175D01*
X132952261Y-104893937D01*
X132952261Y-104655841D01*
X132999880Y-104560603D01*
X133047499Y-104512984D01*
X133142737Y-104465365D01*
X133237975Y-104465365D01*
X133380832Y-104512984D01*
X133952261Y-105084413D01*
X133952261Y-104465365D01*
X136452501Y-105915586D02*
X135976310Y-106248920D01*
X136452501Y-106487015D02*
X135452501Y-106487015D01*
X135452501Y-106106062D01*
X135500120Y-106010824D01*
X135547739Y-105963205D01*
X135642977Y-105915586D01*
X135785834Y-105915586D01*
X135881072Y-105963205D01*
X135928691Y-106010824D01*
X135976310Y-106106062D01*
X135976310Y-106487015D01*
X135452501Y-105582253D02*
X135452501Y-104963205D01*
X135833453Y-105296539D01*
X135833453Y-105153681D01*
X135881072Y-105058443D01*
X135928691Y-105010824D01*
X136023930Y-104963205D01*
X136262025Y-104963205D01*
X136357263Y-105010824D01*
X136404882Y-105058443D01*
X136452501Y-105153681D01*
X136452501Y-105439396D01*
X136404882Y-105534634D01*
X136357263Y-105582253D01*
X119452261Y-105417746D02*
X118976070Y-105751080D01*
X119452261Y-105989175D02*
X118452261Y-105989175D01*
X118452261Y-105608222D01*
X118499880Y-105512984D01*
X118547499Y-105465365D01*
X118642737Y-105417746D01*
X118785594Y-105417746D01*
X118880832Y-105465365D01*
X118928451Y-105512984D01*
X118976070Y-105608222D01*
X118976070Y-105989175D01*
X118785594Y-104560603D02*
X119452261Y-104560603D01*
X118404642Y-104798699D02*
X119118928Y-105036794D01*
X119118928Y-104417746D01*
X124452261Y-105417746D02*
X123976070Y-105751080D01*
X124452261Y-105989175D02*
X123452261Y-105989175D01*
X123452261Y-105608222D01*
X123499880Y-105512984D01*
X123547499Y-105465365D01*
X123642737Y-105417746D01*
X123785594Y-105417746D01*
X123880832Y-105465365D01*
X123928451Y-105512984D01*
X123976070Y-105608222D01*
X123976070Y-105989175D01*
X123452261Y-104512984D02*
X123452261Y-104989175D01*
X123928451Y-105036794D01*
X123880832Y-104989175D01*
X123833213Y-104893937D01*
X123833213Y-104655841D01*
X123880832Y-104560603D01*
X123928451Y-104512984D01*
X124023690Y-104465365D01*
X124261785Y-104465365D01*
X124357023Y-104512984D01*
X124404642Y-104560603D01*
X124452261Y-104655841D01*
X124452261Y-104893937D01*
X124404642Y-104989175D01*
X124357023Y-105036794D01*
X139166667Y-135804762D02*
X139309524Y-135852381D01*
X139547620Y-135852381D01*
X139642858Y-135804762D01*
X139690477Y-135757143D01*
X139738096Y-135661905D01*
X139738096Y-135566667D01*
X139690477Y-135471429D01*
X139642858Y-135423810D01*
X139547620Y-135376190D01*
X139357143Y-135328571D01*
X139261905Y-135280952D01*
X139214286Y-135233333D01*
X139166667Y-135138095D01*
X139166667Y-135042857D01*
X139214286Y-134947619D01*
X139261905Y-134900000D01*
X139357143Y-134852381D01*
X139595239Y-134852381D01*
X139738096Y-134900000D01*
X140071429Y-134852381D02*
X140309524Y-135852381D01*
X140500001Y-135138095D01*
X140690477Y-135852381D01*
X140928572Y-134852381D01*
X141833334Y-135852381D02*
X141261905Y-135852381D01*
X141547619Y-135852381D02*
X141547619Y-134852381D01*
X141452381Y-134995238D01*
X141357143Y-135090476D01*
X141261905Y-135138095D01*
X159166190Y-105976191D02*
X159642381Y-105976191D01*
X158642381Y-106309524D02*
X159166190Y-105976191D01*
X158642381Y-105642857D01*
X159642381Y-104785714D02*
X159642381Y-105357143D01*
X159642381Y-105071429D02*
X158642381Y-105071429D01*
X158785238Y-105166667D01*
X158880476Y-105261905D01*
X158928095Y-105357143D01*
M02*
