G04 #@! TF.FileFunction,Copper,L1,Top,Signal*
%FSLAX46Y46*%
G04 Gerber Fmt 4.6, Leading zero omitted, Abs format (unit mm)*
G04 Created by KiCad (PCBNEW (2015-06-30 BZR 5847, Git 785638a)-product) date 2015/07/09 22:16:44*
%MOMM*%
G01*
G04 APERTURE LIST*
%ADD10C,0.100000*%
%ADD11R,1.400000X1.400000*%
%ADD12C,1.400000*%
%ADD13O,2.300000X1.600000*%
%ADD14O,3.962400X1.981200*%
%ADD15R,2.032000X1.727200*%
%ADD16O,2.032000X1.727200*%
%ADD17R,1.727200X2.032000*%
%ADD18O,1.727200X2.032000*%
%ADD19O,1.506220X3.014980*%
%ADD20R,1.727200X1.727200*%
%ADD21O,1.727200X1.727200*%
%ADD22O,2.540000X2.032000*%
%ADD23C,1.998980*%
%ADD24C,1.501140*%
%ADD25C,6.000000*%
%ADD26C,0.600000*%
%ADD27C,0.250000*%
%ADD28C,0.500000*%
%ADD29C,0.300000*%
%ADD30C,0.254000*%
G04 APERTURE END LIST*
D10*
D11*
X116000000Y-103000000D03*
D12*
X116000000Y-108000000D03*
D11*
X170000000Y-109500000D03*
D12*
X170000000Y-114500000D03*
D11*
X170000000Y-98500000D03*
D12*
X170000000Y-103500000D03*
D13*
X156500000Y-126500000D03*
X156500000Y-123960000D03*
X156500000Y-121420000D03*
X156500000Y-118880000D03*
X156500000Y-116340000D03*
X156500000Y-113800000D03*
X156500000Y-111260000D03*
X156500000Y-108720000D03*
X156500000Y-106180000D03*
X156500000Y-103640000D03*
X156500000Y-101100000D03*
X156500000Y-98560000D03*
X156500000Y-96020000D03*
X156500000Y-93480000D03*
X148880000Y-93480000D03*
X148880000Y-96020000D03*
X148880000Y-98560000D03*
X148880000Y-101100000D03*
X148880000Y-103640000D03*
X148880000Y-106180000D03*
X148880000Y-108720000D03*
X148880000Y-111260000D03*
X148880000Y-113800000D03*
X148880000Y-116340000D03*
X148880000Y-118880000D03*
X148880000Y-121420000D03*
X148880000Y-123960000D03*
X148880000Y-126500000D03*
D14*
X114500000Y-125000000D03*
X114500000Y-120000000D03*
D15*
X164000000Y-126500000D03*
D16*
X164000000Y-123960000D03*
X164000000Y-121420000D03*
X164000000Y-118880000D03*
D17*
X117500000Y-93500000D03*
D18*
X120040000Y-93500000D03*
X122580000Y-93500000D03*
X125120000Y-93500000D03*
D19*
X135960000Y-92000000D03*
X138500000Y-92000000D03*
X141040000Y-92000000D03*
D20*
X117000000Y-85000000D03*
D21*
X117000000Y-82460000D03*
X119540000Y-85000000D03*
X119540000Y-82460000D03*
X122080000Y-85000000D03*
X122080000Y-82460000D03*
X124620000Y-85000000D03*
X124620000Y-82460000D03*
X127160000Y-85000000D03*
X127160000Y-82460000D03*
X129700000Y-85000000D03*
X129700000Y-82460000D03*
X132240000Y-85000000D03*
X132240000Y-82460000D03*
X134780000Y-85000000D03*
X134780000Y-82460000D03*
X137320000Y-85000000D03*
X137320000Y-82460000D03*
X139860000Y-85000000D03*
X139860000Y-82460000D03*
X142400000Y-85000000D03*
X142400000Y-82460000D03*
X144940000Y-85000000D03*
X144940000Y-82460000D03*
X147480000Y-85000000D03*
X147480000Y-82460000D03*
X150020000Y-85000000D03*
X150020000Y-82460000D03*
X152560000Y-85000000D03*
X152560000Y-82460000D03*
X155100000Y-85000000D03*
X155100000Y-82460000D03*
X157640000Y-85000000D03*
X157640000Y-82460000D03*
X160180000Y-85000000D03*
X160180000Y-82460000D03*
X162720000Y-85000000D03*
X162720000Y-82460000D03*
X165260000Y-85000000D03*
X165260000Y-82460000D03*
D22*
X130500000Y-123000000D03*
X130500000Y-125540000D03*
X130500000Y-120460000D03*
D23*
X149920000Y-133500000D03*
X160080000Y-133500000D03*
X137000000Y-110580000D03*
X137000000Y-100420000D03*
X132500000Y-100420000D03*
X132500000Y-110580000D03*
X122500000Y-110580000D03*
X122500000Y-100420000D03*
X127500000Y-110580000D03*
X127500000Y-100420000D03*
D19*
X141770000Y-131500000D03*
X139230000Y-131500000D03*
D24*
X163000000Y-107940940D03*
X163000000Y-103059060D03*
D25*
X112000000Y-132500000D03*
X170000000Y-132500000D03*
X112000000Y-83500000D03*
X170000000Y-83500000D03*
D26*
X151500000Y-111000000D03*
X166000000Y-111000000D03*
X151500000Y-127000000D03*
X134500000Y-116500000D03*
X130500000Y-88000000D03*
D27*
X110500000Y-82000000D02*
X112000000Y-83500000D01*
D28*
X117000000Y-82460000D02*
X119540000Y-82460000D01*
D29*
X148880000Y-108720000D02*
X149000000Y-108500000D01*
X149000000Y-108500000D02*
X147500000Y-110000000D01*
X147500000Y-110000000D02*
X147000000Y-110000000D01*
X147000000Y-110000000D02*
X147000000Y-128000000D01*
X147000000Y-128000000D02*
X150000000Y-131000000D01*
X150000000Y-131000000D02*
X150000000Y-133500000D01*
X150000000Y-133500000D02*
X149920000Y-133500000D01*
X116000000Y-103000000D02*
X115500000Y-102500000D01*
D28*
X115500000Y-102500000D02*
X115500000Y-83500000D01*
X115500000Y-83500000D02*
X116000000Y-83500000D01*
X116000000Y-83500000D02*
X117000000Y-82500000D01*
D29*
X117000000Y-82500000D02*
X117000000Y-82460000D01*
D28*
X116000000Y-103000000D02*
X114500000Y-104500000D01*
X114500000Y-104500000D02*
X114500000Y-120000000D01*
D29*
X151500000Y-111000000D02*
X149000000Y-108500000D01*
X149000000Y-108500000D02*
X148880000Y-108720000D01*
X148880000Y-108720000D02*
X149000000Y-108500000D01*
X149000000Y-108500000D02*
X149000000Y-106000000D01*
X149000000Y-106000000D02*
X148880000Y-106180000D01*
X170000000Y-109500000D02*
X164000000Y-115500000D01*
X164000000Y-115500000D02*
X164000000Y-118880000D01*
X130500000Y-125540000D02*
X130500000Y-125500000D01*
X130500000Y-125500000D02*
X131000000Y-125500000D01*
X131000000Y-125500000D02*
X132000000Y-124500000D01*
X132000000Y-124500000D02*
X132500000Y-124500000D01*
X132500000Y-124500000D02*
X132500000Y-110580000D01*
X116000000Y-108000000D02*
X117000000Y-109000000D01*
X117000000Y-109000000D02*
X117000000Y-121500000D01*
X117000000Y-121500000D02*
X114500000Y-124000000D01*
X114500000Y-124000000D02*
X114500000Y-125000000D01*
X170000000Y-109500000D02*
X171500000Y-108000000D01*
X171500000Y-108000000D02*
X171500000Y-103000000D01*
X171500000Y-103000000D02*
X170000000Y-101500000D01*
X170000000Y-101500000D02*
X170000000Y-98500000D01*
X163000000Y-107940940D02*
X163000000Y-108000000D01*
X163000000Y-108000000D02*
X166000000Y-111000000D01*
X156500000Y-126500000D02*
X160000000Y-130000000D01*
X160000000Y-130000000D02*
X160000000Y-133500000D01*
X160000000Y-133500000D02*
X160080000Y-133500000D01*
X156500000Y-118880000D02*
X156500000Y-119000000D01*
X156500000Y-119000000D02*
X156000000Y-119000000D01*
X156000000Y-119000000D02*
X151500000Y-123500000D01*
X151500000Y-123500000D02*
X151500000Y-127000000D01*
X134500000Y-116500000D02*
X147000000Y-104000000D01*
X147000000Y-104000000D02*
X147000000Y-102500000D01*
X147000000Y-102500000D02*
X150500000Y-102500000D01*
X150500000Y-102500000D02*
X155000000Y-98000000D01*
X155000000Y-98000000D02*
X155000000Y-94500000D01*
X155000000Y-94500000D02*
X155500000Y-94500000D01*
X155500000Y-94500000D02*
X156500000Y-93500000D01*
X156500000Y-93500000D02*
X156500000Y-93480000D01*
X137000000Y-110580000D02*
X137000000Y-110500000D01*
X137000000Y-110500000D02*
X147000000Y-100500000D01*
X147000000Y-100500000D02*
X147000000Y-94500000D01*
X147000000Y-94500000D02*
X148000000Y-94500000D01*
X148000000Y-94500000D02*
X149000000Y-93500000D01*
X149000000Y-93500000D02*
X148880000Y-93480000D01*
X117500000Y-93500000D02*
X118500000Y-94500000D01*
X118500000Y-94500000D02*
X118500000Y-95000000D01*
X118500000Y-95000000D02*
X121000000Y-97500000D01*
X121000000Y-97500000D02*
X121000000Y-101500000D01*
X121000000Y-101500000D02*
X122500000Y-103000000D01*
X122500000Y-103000000D02*
X122500000Y-110580000D01*
X117500000Y-93500000D02*
X117000000Y-93000000D01*
X117000000Y-93000000D02*
X117000000Y-85000000D01*
X120040000Y-93500000D02*
X120000000Y-93500000D01*
X120000000Y-93500000D02*
X121000000Y-94500000D01*
X121000000Y-94500000D02*
X121000000Y-95000000D01*
X121000000Y-95000000D02*
X122500000Y-96500000D01*
X122500000Y-96500000D02*
X122500000Y-100420000D01*
X120040000Y-93500000D02*
X120000000Y-93500000D01*
X120000000Y-93500000D02*
X119500000Y-93000000D01*
X119500000Y-93000000D02*
X119500000Y-85000000D01*
X119500000Y-85000000D02*
X119540000Y-85000000D01*
X122580000Y-93500000D02*
X122500000Y-93500000D01*
X122500000Y-93500000D02*
X123500000Y-94500000D01*
X123500000Y-94500000D02*
X123500000Y-95000000D01*
X123500000Y-95000000D02*
X127500000Y-99000000D01*
X127500000Y-99000000D02*
X127500000Y-100420000D01*
X122580000Y-93500000D02*
X122500000Y-93500000D01*
X122500000Y-93500000D02*
X122000000Y-93000000D01*
X122000000Y-93000000D02*
X122000000Y-85000000D01*
X122000000Y-85000000D02*
X122080000Y-85000000D01*
X127160000Y-85000000D02*
X127000000Y-85000000D01*
X127000000Y-85000000D02*
X126000000Y-86000000D01*
X126000000Y-86000000D02*
X126000000Y-86500000D01*
X126000000Y-86500000D02*
X125000000Y-87500000D01*
X125000000Y-87500000D02*
X125000000Y-93500000D01*
X125000000Y-93500000D02*
X125120000Y-93500000D01*
X130500000Y-88000000D02*
X129000000Y-86500000D01*
X129000000Y-86500000D02*
X128500000Y-86500000D01*
X128500000Y-86500000D02*
X128500000Y-81000000D01*
X128500000Y-81000000D02*
X125500000Y-81000000D01*
X125500000Y-81000000D02*
X124500000Y-82000000D01*
X124500000Y-82000000D02*
X124500000Y-82500000D01*
X124500000Y-82500000D02*
X124620000Y-82460000D01*
X141040000Y-92000000D02*
X141000000Y-92000000D01*
X141000000Y-92000000D02*
X140000000Y-91000000D01*
X140000000Y-91000000D02*
X140000000Y-90000000D01*
X140000000Y-90000000D02*
X137500000Y-90000000D01*
X137500000Y-90000000D02*
X134000000Y-86500000D01*
X134000000Y-86500000D02*
X133500000Y-86500000D01*
X133500000Y-86500000D02*
X133500000Y-81000000D01*
X133500000Y-81000000D02*
X131000000Y-81000000D01*
X131000000Y-81000000D02*
X129500000Y-82500000D01*
X129500000Y-82500000D02*
X129700000Y-82460000D01*
X132500000Y-100420000D02*
X132500000Y-100500000D01*
X132500000Y-100500000D02*
X132000000Y-100000000D01*
X132000000Y-100000000D02*
X132000000Y-85000000D01*
X132000000Y-85000000D02*
X132240000Y-85000000D01*
D30*
G36*
X166916600Y-85556372D02*
X167938249Y-86579806D01*
X169273782Y-87134368D01*
X170719874Y-87135630D01*
X172056372Y-86583400D01*
X172815000Y-85826095D01*
X172815000Y-130174759D01*
X172061751Y-129420194D01*
X170726218Y-128865632D01*
X169280126Y-128864370D01*
X167943628Y-129416600D01*
X166920194Y-130438249D01*
X166365632Y-131773782D01*
X166364370Y-133219874D01*
X166916600Y-134556372D01*
X167673905Y-135315000D01*
X114325241Y-135315000D01*
X115079806Y-134561751D01*
X115444087Y-133684464D01*
X141770000Y-133684464D01*
X142301207Y-133578800D01*
X142751542Y-133277896D01*
X143052446Y-132827561D01*
X143158110Y-132296354D01*
X143158110Y-130703646D01*
X143052446Y-130172439D01*
X142751542Y-129722104D01*
X142301207Y-129421200D01*
X141770000Y-129315536D01*
X141238793Y-129421200D01*
X140788458Y-129722104D01*
X140487554Y-130172439D01*
X140486984Y-130175306D01*
X140463846Y-130097081D01*
X140121740Y-129674276D01*
X139643875Y-129414573D01*
X139571674Y-129400217D01*
X138888326Y-129400217D01*
X138888326Y-129400217D01*
X138816125Y-129414573D01*
X138338260Y-129674276D01*
X137996154Y-130097081D01*
X137841890Y-130618620D01*
X137841890Y-131373000D01*
X139103000Y-131373000D01*
X139103000Y-129522838D01*
X138888326Y-129400217D01*
X139571674Y-129400217D01*
X138888326Y-129400217D01*
X138888326Y-129400217D01*
X139571674Y-129400217D01*
X139357000Y-129522838D01*
X139357000Y-131373000D01*
X139377000Y-131373000D01*
X139377000Y-131627000D01*
X139357000Y-131627000D01*
X139103000Y-131627000D01*
X139103000Y-131627000D01*
X137841890Y-131627000D01*
X137841890Y-132381380D01*
X137996154Y-132902919D01*
X138338260Y-133325724D01*
X138816125Y-133585427D01*
X138888326Y-133599783D01*
X139103000Y-133477162D01*
X139103000Y-131627000D01*
X139357000Y-131627000D01*
X139103000Y-131627000D01*
X139103000Y-131627000D01*
X139357000Y-131627000D01*
X139357000Y-133477162D01*
X139571674Y-133599783D01*
X139643875Y-133585427D01*
X140121740Y-133325724D01*
X140463846Y-132902919D01*
X140486984Y-132824694D01*
X140487554Y-132827561D01*
X140788458Y-133277896D01*
X141238793Y-133578800D01*
X141770000Y-133684464D01*
X115444087Y-133684464D01*
X115634368Y-133226218D01*
X115635630Y-131780126D01*
X115083400Y-130443628D01*
X114061751Y-129420194D01*
X112726218Y-128865632D01*
X111280126Y-128864370D01*
X109943628Y-129416600D01*
X109185000Y-130173905D01*
X109185000Y-127016724D01*
X129496857Y-127016724D01*
X130119000Y-127191000D01*
X130373000Y-127191000D01*
X130373000Y-125667000D01*
X130627000Y-125667000D01*
X130373000Y-125667000D01*
X130373000Y-125667000D01*
X130627000Y-125667000D01*
X130627000Y-127191000D01*
X130881000Y-127191000D01*
X131503143Y-127016724D01*
X132011236Y-126617630D01*
X132327926Y-126054477D01*
X132359975Y-125922944D01*
X132240836Y-125667000D01*
X130627000Y-125667000D01*
X130373000Y-125667000D01*
X130373000Y-125667000D01*
X128759164Y-125667000D01*
X116950077Y-125667000D01*
X117041060Y-125504757D01*
X117071411Y-125378959D01*
X116951942Y-125127000D01*
X114627000Y-125127000D01*
X114627000Y-126625600D01*
X115617600Y-126625600D01*
X116230023Y-126453258D01*
X116729876Y-126059670D01*
X116950077Y-125667000D01*
X128759164Y-125667000D01*
X116950077Y-125667000D01*
X116950077Y-125667000D01*
X128759164Y-125667000D01*
X128640025Y-125922944D01*
X128672074Y-126054477D01*
X128988764Y-126617630D01*
X129496857Y-127016724D01*
X109185000Y-127016724D01*
X109185000Y-125127000D01*
X112048058Y-125127000D01*
X111928589Y-125378959D01*
X111958940Y-125504757D01*
X112270124Y-126059670D01*
X112769977Y-126453258D01*
X113382400Y-126625600D01*
X114373000Y-126625600D01*
X114373000Y-125127000D01*
X112048058Y-125127000D01*
X109185000Y-125127000D01*
X109185000Y-123374400D01*
X113382400Y-123374400D01*
X112769977Y-123546742D01*
X112270124Y-123940330D01*
X111958940Y-124495243D01*
X111928589Y-124621041D01*
X112048058Y-124873000D01*
X114373000Y-124873000D01*
X114373000Y-123374400D01*
X114627000Y-123374400D01*
X114627000Y-124873000D01*
X116951942Y-124873000D01*
X117071411Y-124621041D01*
X117041060Y-124495243D01*
X116729876Y-123940330D01*
X116230023Y-123546742D01*
X115617600Y-123374400D01*
X114627000Y-123374400D01*
X114373000Y-123374400D01*
X114373000Y-123374400D01*
X113382400Y-123374400D01*
X109185000Y-123374400D01*
X109185000Y-85825241D01*
X109938249Y-86579806D01*
X111273782Y-87134368D01*
X112719874Y-87135630D01*
X114056372Y-86583400D01*
X114615000Y-86025746D01*
X114615000Y-102500000D01*
X114652560Y-102688826D01*
X114652560Y-103095861D01*
X113874210Y-103874210D01*
X113682367Y-104161325D01*
X113682367Y-104161326D01*
X113614999Y-104500000D01*
X113615000Y-104500005D01*
X113615000Y-118374400D01*
X113458146Y-118374400D01*
X112836056Y-118498141D01*
X112308673Y-118850527D01*
X111956287Y-119377910D01*
X111832546Y-120000000D01*
X111956287Y-120622090D01*
X112308673Y-121149473D01*
X112836056Y-121501859D01*
X113458146Y-121625600D01*
X115541854Y-121625600D01*
X116163944Y-121501859D01*
X116691327Y-121149473D01*
X117043713Y-120622090D01*
X117167454Y-120000000D01*
X117043713Y-119377910D01*
X116691327Y-118850527D01*
X116629178Y-118809000D01*
X130208679Y-118809000D01*
X129576869Y-118934675D01*
X129041246Y-119292567D01*
X128683354Y-119828190D01*
X128557679Y-120460000D01*
X128683354Y-121091810D01*
X129041246Y-121627433D01*
X129194748Y-121730000D01*
X129041246Y-121832567D01*
X128683354Y-122368190D01*
X128557679Y-123000000D01*
X128683354Y-123631810D01*
X129041246Y-124167433D01*
X129215781Y-124284054D01*
X128988764Y-124462370D01*
X128672074Y-125025523D01*
X128640025Y-125157056D01*
X128759164Y-125413000D01*
X130373000Y-125413000D01*
X130373000Y-125393000D01*
X130627000Y-125393000D01*
X130627000Y-125413000D01*
X132240836Y-125413000D01*
X132359975Y-125157056D01*
X132327926Y-125025523D01*
X132011236Y-124462370D01*
X131784219Y-124284054D01*
X131958754Y-124167433D01*
X132316646Y-123631810D01*
X132442321Y-123000000D01*
X132316646Y-122368190D01*
X131958754Y-121832567D01*
X131805252Y-121730000D01*
X131958754Y-121627433D01*
X132316646Y-121091810D01*
X132442321Y-120460000D01*
X132316646Y-119828190D01*
X131958754Y-119292567D01*
X131423131Y-118934675D01*
X130791321Y-118809000D01*
X130208679Y-118809000D01*
X116629178Y-118809000D01*
X116163944Y-118498141D01*
X115541854Y-118374400D01*
X115385000Y-118374400D01*
X115385000Y-112225401D01*
X132235582Y-112225401D01*
X132885377Y-112201341D01*
X133373958Y-111998965D01*
X133472557Y-111732163D01*
X133292952Y-111552557D01*
X133652163Y-111552557D01*
X133918965Y-111453958D01*
X134145401Y-110844418D01*
X134121341Y-110194623D01*
X133918965Y-109706042D01*
X133652163Y-109607443D01*
X132679605Y-110580000D01*
X132320395Y-110580000D01*
X132320395Y-110580000D01*
X131347837Y-109607443D01*
X131081035Y-109706042D01*
X130854599Y-110315582D01*
X130878659Y-110965377D01*
X131081035Y-111453958D01*
X131347837Y-111552557D01*
X132320395Y-110580000D01*
X132679605Y-110580000D01*
X132320395Y-110580000D01*
X132320395Y-110580000D01*
X132679605Y-110580000D01*
X133652163Y-111552557D01*
X133292952Y-111552557D01*
X132500000Y-110759605D01*
X131527443Y-111732163D01*
X128659363Y-111732163D01*
X128884846Y-111507073D01*
X129134206Y-110906547D01*
X129134774Y-110256306D01*
X128886462Y-109655345D01*
X128427073Y-109195154D01*
X127857530Y-108958659D01*
X132114623Y-108958659D01*
X131626042Y-109161035D01*
X131527443Y-109427837D01*
X132500000Y-110400395D01*
X133472557Y-109427837D01*
X133373958Y-109161035D01*
X132764418Y-108934599D01*
X132114623Y-108958659D01*
X127857530Y-108958659D01*
X127826547Y-108945794D01*
X127176306Y-108945226D01*
X126575345Y-109193538D01*
X126115154Y-109652927D01*
X125865794Y-110253453D01*
X125865226Y-110903694D01*
X126113538Y-111504655D01*
X126572927Y-111964846D01*
X127173453Y-112214206D01*
X127823694Y-112214774D01*
X128424655Y-111966462D01*
X128659363Y-111732163D01*
X131527443Y-111732163D01*
X128659363Y-111732163D01*
X128659363Y-111732163D01*
X131527443Y-111732163D01*
X131626042Y-111998965D01*
X132235582Y-112225401D01*
X115385000Y-112225401D01*
X115385000Y-109198797D01*
X115807122Y-109347419D01*
X116337440Y-109318664D01*
X116693831Y-109171042D01*
X116755669Y-108935275D01*
X116000000Y-108179605D01*
X115985858Y-108193748D01*
X115806252Y-108014142D01*
X115820395Y-108000000D01*
X116179605Y-108000000D01*
X116935275Y-108755669D01*
X117171042Y-108693831D01*
X117347419Y-108192878D01*
X117318664Y-107662560D01*
X117171042Y-107306169D01*
X116935275Y-107244331D01*
X116179605Y-108000000D01*
X115820395Y-108000000D01*
X115820395Y-108000000D01*
X115806252Y-107985858D01*
X115985858Y-107806252D01*
X116000000Y-107820395D01*
X116755669Y-107064725D01*
X116693831Y-106828958D01*
X116192878Y-106652581D01*
X115662560Y-106681336D01*
X115385000Y-106796305D01*
X115385000Y-104866580D01*
X115904139Y-104347440D01*
X116700000Y-104347440D01*
X116942123Y-104300463D01*
X117154927Y-104160673D01*
X117297377Y-103949640D01*
X117347440Y-103700000D01*
X117347440Y-102300000D01*
X117300463Y-102057877D01*
X117160673Y-101845073D01*
X116949640Y-101702623D01*
X116700000Y-101652560D01*
X116385000Y-101652560D01*
X116385000Y-95112189D01*
X116386760Y-95113377D01*
X116636400Y-95163440D01*
X117747510Y-95163440D01*
X117774755Y-95300407D01*
X117944921Y-95555079D01*
X120215000Y-97825158D01*
X120215000Y-101500000D01*
X120274755Y-101800407D01*
X120444921Y-102055079D01*
X121715000Y-103325158D01*
X121715000Y-109135834D01*
X121575345Y-109193538D01*
X121115154Y-109652927D01*
X120865794Y-110253453D01*
X120865226Y-110903694D01*
X121113538Y-111504655D01*
X121572927Y-111964846D01*
X122173453Y-112214206D01*
X122823694Y-112214774D01*
X123424655Y-111966462D01*
X123884846Y-111507073D01*
X124134206Y-110906547D01*
X124134774Y-110256306D01*
X123886462Y-109655345D01*
X123427073Y-109195154D01*
X123285000Y-109136160D01*
X123285000Y-103000000D01*
X123241685Y-102782244D01*
X123225245Y-102699593D01*
X123055079Y-102444921D01*
X122664793Y-102054635D01*
X122823694Y-102054774D01*
X123424655Y-101806462D01*
X123884846Y-101347073D01*
X124134206Y-100746547D01*
X124134774Y-100096306D01*
X123886462Y-99495345D01*
X123427073Y-99035154D01*
X123285000Y-98976160D01*
X123285000Y-96500000D01*
X123225245Y-96199594D01*
X123225245Y-96199593D01*
X123055079Y-95944921D01*
X122222365Y-95112207D01*
X122580000Y-95183345D01*
X122744944Y-95150536D01*
X122774755Y-95300407D01*
X122944921Y-95555079D01*
X126499296Y-99109454D01*
X126115154Y-99492927D01*
X125865794Y-100093453D01*
X125865226Y-100743694D01*
X126113538Y-101344655D01*
X126572927Y-101804846D01*
X127173453Y-102054206D01*
X127823694Y-102054774D01*
X128424655Y-101806462D01*
X128884846Y-101347073D01*
X129134206Y-100746547D01*
X129134774Y-100096306D01*
X128886462Y-99495345D01*
X128427073Y-99035154D01*
X128279831Y-98974014D01*
X128225245Y-98699593D01*
X128055079Y-98444921D01*
X124712433Y-95102275D01*
X125120000Y-95183345D01*
X125693489Y-95069271D01*
X126179670Y-94744415D01*
X126504526Y-94258234D01*
X126618600Y-93684745D01*
X126618600Y-93315255D01*
X126504526Y-92741766D01*
X126179670Y-92255585D01*
X125785000Y-91991875D01*
X125785000Y-87825158D01*
X126555079Y-87055079D01*
X126725245Y-86800406D01*
X126785001Y-86500000D01*
X126785000Y-86499995D01*
X126785000Y-86453367D01*
X127160000Y-86527959D01*
X127715000Y-86417563D01*
X127715000Y-86500000D01*
X127774755Y-86800406D01*
X127944921Y-87055079D01*
X128199594Y-87225245D01*
X128500000Y-87285000D01*
X128674842Y-87285000D01*
X129564847Y-88175005D01*
X129564838Y-88185167D01*
X129706883Y-88528943D01*
X129969673Y-88792192D01*
X130313201Y-88934838D01*
X130685167Y-88935162D01*
X131028943Y-88793117D01*
X131215000Y-88607384D01*
X131215000Y-99393255D01*
X131115154Y-99492927D01*
X130865794Y-100093453D01*
X130865226Y-100743694D01*
X131113538Y-101344655D01*
X131572927Y-101804846D01*
X132173453Y-102054206D01*
X132823694Y-102054774D01*
X133424655Y-101806462D01*
X133884846Y-101347073D01*
X134134206Y-100746547D01*
X134134774Y-100096306D01*
X133886462Y-99495345D01*
X133427073Y-99035154D01*
X133423182Y-99033538D01*
X136075345Y-99033538D01*
X135615154Y-99492927D01*
X135365794Y-100093453D01*
X135365226Y-100743694D01*
X135613538Y-101344655D01*
X136072927Y-101804846D01*
X136673453Y-102054206D01*
X137323694Y-102054774D01*
X137924655Y-101806462D01*
X138384846Y-101347073D01*
X138634206Y-100746547D01*
X138634774Y-100096306D01*
X138386462Y-99495345D01*
X137927073Y-99035154D01*
X137326547Y-98785794D01*
X136676306Y-98785226D01*
X136075345Y-99033538D01*
X133423182Y-99033538D01*
X132826547Y-98785794D01*
X132785000Y-98785758D01*
X132785000Y-86815739D01*
X132944921Y-87055079D01*
X133199594Y-87225245D01*
X133500000Y-87285000D01*
X133674842Y-87285000D01*
X136266307Y-89876465D01*
X135960000Y-89815536D01*
X135428793Y-89921200D01*
X134978458Y-90222104D01*
X134677554Y-90672439D01*
X134571890Y-91203646D01*
X134571890Y-92796354D01*
X134677554Y-93327561D01*
X134978458Y-93777896D01*
X135428793Y-94078800D01*
X135960000Y-94184464D01*
X136491207Y-94078800D01*
X136941542Y-93777896D01*
X137230000Y-93346188D01*
X137518458Y-93777896D01*
X137968793Y-94078800D01*
X138500000Y-94184464D01*
X139031207Y-94078800D01*
X139481542Y-93777896D01*
X139770000Y-93346188D01*
X140058458Y-93777896D01*
X140508793Y-94078800D01*
X141040000Y-94184464D01*
X141571207Y-94078800D01*
X142021542Y-93777896D01*
X142322446Y-93327561D01*
X142428110Y-92796354D01*
X142428110Y-92045000D01*
X148495030Y-92045000D01*
X147945879Y-92154233D01*
X147480332Y-92465302D01*
X147169263Y-92930849D01*
X147060030Y-93480000D01*
X147106774Y-93715000D01*
X147000000Y-93715000D01*
X146699594Y-93774755D01*
X146444921Y-93944921D01*
X146274755Y-94199594D01*
X146215000Y-94500000D01*
X146215000Y-100174842D01*
X137409573Y-108980269D01*
X137326547Y-108945794D01*
X136676306Y-108945226D01*
X136075345Y-109193538D01*
X135615154Y-109652927D01*
X135365794Y-110253453D01*
X135365226Y-110903694D01*
X135613538Y-111504655D01*
X136072927Y-111964846D01*
X136673453Y-112214206D01*
X137323694Y-112214774D01*
X137922483Y-111967360D01*
X134324995Y-115564847D01*
X134314833Y-115564838D01*
X133971057Y-115706883D01*
X133707808Y-115969673D01*
X133565162Y-116313201D01*
X133564838Y-116685167D01*
X133706883Y-117028943D01*
X133969673Y-117292192D01*
X134313201Y-117434838D01*
X134685167Y-117435162D01*
X135028943Y-117293117D01*
X135292192Y-117030327D01*
X135434838Y-116686799D01*
X135434848Y-116675310D01*
X147470369Y-104639788D01*
X147480332Y-104654698D01*
X147862418Y-104910000D01*
X147480332Y-105165302D01*
X147169263Y-105630849D01*
X147060030Y-106180000D01*
X147169263Y-106729151D01*
X147480332Y-107194698D01*
X147862418Y-107450000D01*
X147480332Y-107705302D01*
X147169263Y-108170849D01*
X147060030Y-108720000D01*
X147158492Y-109215000D01*
X147000000Y-109215000D01*
X146699594Y-109274755D01*
X146444921Y-109444921D01*
X146274755Y-109699594D01*
X146215000Y-110000000D01*
X146215000Y-128000000D01*
X146274755Y-128300407D01*
X146444921Y-128555079D01*
X149215000Y-131325158D01*
X149215000Y-132022778D01*
X148995345Y-132113538D01*
X148535154Y-132572927D01*
X148285794Y-133173453D01*
X148285226Y-133823694D01*
X148533538Y-134424655D01*
X148992927Y-134884846D01*
X149593453Y-135134206D01*
X150243694Y-135134774D01*
X150844655Y-134886462D01*
X151304846Y-134427073D01*
X151554206Y-133826547D01*
X151554774Y-133176306D01*
X151306462Y-132575345D01*
X150847073Y-132115154D01*
X150785000Y-132089379D01*
X150785000Y-131000000D01*
X150725245Y-130699594D01*
X150555079Y-130444921D01*
X147915881Y-127805723D01*
X147945879Y-127825767D01*
X148495030Y-127935000D01*
X149264970Y-127935000D01*
X149814121Y-127825767D01*
X150279668Y-127514698D01*
X150564923Y-127087785D01*
X150564838Y-127185167D01*
X150706883Y-127528943D01*
X150969673Y-127792192D01*
X151313201Y-127934838D01*
X151685167Y-127935162D01*
X152028943Y-127793117D01*
X152292192Y-127530327D01*
X152434838Y-127186799D01*
X152435162Y-126814833D01*
X152293117Y-126471057D01*
X152285000Y-126462926D01*
X152285000Y-123825158D01*
X154681710Y-121428448D01*
X154789263Y-121969151D01*
X155100332Y-122434698D01*
X155482418Y-122690000D01*
X155100332Y-122945302D01*
X154789263Y-123410849D01*
X154680030Y-123960000D01*
X154789263Y-124509151D01*
X155100332Y-124974698D01*
X155482418Y-125230000D01*
X155100332Y-125485302D01*
X154789263Y-125950849D01*
X154680030Y-126500000D01*
X154789263Y-127049151D01*
X155100332Y-127514698D01*
X155565879Y-127825767D01*
X156115030Y-127935000D01*
X156824842Y-127935000D01*
X159215000Y-130325157D01*
X159215000Y-132088889D01*
X159155345Y-132113538D01*
X158695154Y-132572927D01*
X158445794Y-133173453D01*
X158445226Y-133823694D01*
X158693538Y-134424655D01*
X159152927Y-134884846D01*
X159753453Y-135134206D01*
X160403694Y-135134774D01*
X161004655Y-134886462D01*
X161464846Y-134427073D01*
X161714206Y-133826547D01*
X161714774Y-133176306D01*
X161466462Y-132575345D01*
X161007073Y-132115154D01*
X160785000Y-132022941D01*
X160785000Y-130000000D01*
X160725245Y-129699594D01*
X160555079Y-129444921D01*
X160555076Y-129444919D01*
X158190138Y-127079980D01*
X158210737Y-127049151D01*
X158319970Y-126500000D01*
X158210737Y-125950849D01*
X157899668Y-125485302D01*
X157517582Y-125230000D01*
X157899668Y-124974698D01*
X158210737Y-124509151D01*
X158319970Y-123960000D01*
X158210737Y-123410849D01*
X157899668Y-122945302D01*
X157517582Y-122690000D01*
X157899668Y-122434698D01*
X158210737Y-121969151D01*
X158319970Y-121420000D01*
X158210737Y-120870849D01*
X157899668Y-120405302D01*
X157517582Y-120150000D01*
X157899668Y-119894698D01*
X158210737Y-119429151D01*
X158294708Y-119007000D01*
X162513783Y-119007000D01*
X162392642Y-119239026D01*
X162395291Y-119254791D01*
X162649268Y-119782036D01*
X163065069Y-120153539D01*
X162755585Y-120360330D01*
X162430729Y-120846511D01*
X162316655Y-121420000D01*
X162430729Y-121993489D01*
X162755585Y-122479670D01*
X163070366Y-122690000D01*
X162755585Y-122900330D01*
X162430729Y-123386511D01*
X162316655Y-123960000D01*
X162430729Y-124533489D01*
X162755585Y-125019670D01*
X162771367Y-125030215D01*
X162741877Y-125035937D01*
X162529073Y-125175727D01*
X162386623Y-125386760D01*
X162336560Y-125636400D01*
X162336560Y-127363600D01*
X162383537Y-127605723D01*
X162523327Y-127818527D01*
X162734360Y-127960977D01*
X162984000Y-128011040D01*
X165016000Y-128011040D01*
X165258123Y-127964063D01*
X165470927Y-127824273D01*
X165613377Y-127613240D01*
X165663440Y-127363600D01*
X165663440Y-125636400D01*
X165616463Y-125394277D01*
X165476673Y-125181473D01*
X165265640Y-125039023D01*
X165227037Y-125031282D01*
X165244415Y-125019670D01*
X165569271Y-124533489D01*
X165683345Y-123960000D01*
X165569271Y-123386511D01*
X165244415Y-122900330D01*
X164929634Y-122690000D01*
X165244415Y-122479670D01*
X165569271Y-121993489D01*
X165683345Y-121420000D01*
X165569271Y-120846511D01*
X165244415Y-120360330D01*
X164934931Y-120153539D01*
X165350732Y-119782036D01*
X165604709Y-119254791D01*
X165607358Y-119239026D01*
X165486217Y-119007000D01*
X164127000Y-119007000D01*
X164127000Y-119027000D01*
X163873000Y-119027000D01*
X163873000Y-119007000D01*
X162513783Y-119007000D01*
X158294708Y-119007000D01*
X158319970Y-118880000D01*
X158210737Y-118330849D01*
X157899668Y-117865302D01*
X157517582Y-117610000D01*
X157550438Y-117588046D01*
X163085680Y-117588046D01*
X162649268Y-117977964D01*
X162395291Y-118505209D01*
X162392642Y-118520974D01*
X162513783Y-118753000D01*
X163873000Y-118753000D01*
X163873000Y-117539076D01*
X164127000Y-117539076D01*
X163873000Y-117539076D01*
X163873000Y-117539076D01*
X164127000Y-117539076D01*
X164127000Y-118753000D01*
X165486217Y-118753000D01*
X165607358Y-118520974D01*
X165604709Y-118505209D01*
X165350732Y-117977964D01*
X164914320Y-117588046D01*
X164361913Y-117394816D01*
X164127000Y-117539076D01*
X163873000Y-117539076D01*
X163873000Y-117539076D01*
X163638087Y-117394816D01*
X163085680Y-117588046D01*
X157550438Y-117588046D01*
X157899668Y-117354698D01*
X158210737Y-116889151D01*
X158319970Y-116340000D01*
X158210737Y-115790849D01*
X157899668Y-115325302D01*
X157517582Y-115070000D01*
X157899668Y-114814698D01*
X158210737Y-114349151D01*
X158319970Y-113800000D01*
X158233957Y-113367582D01*
X169244771Y-113367582D01*
X168868902Y-113742796D01*
X168665232Y-114233287D01*
X168664769Y-114764383D01*
X168867582Y-115255229D01*
X169242796Y-115631098D01*
X169733287Y-115834768D01*
X170264383Y-115835231D01*
X170755229Y-115632418D01*
X171131098Y-115257204D01*
X171334768Y-114766713D01*
X171335231Y-114235617D01*
X171132418Y-113744771D01*
X170757204Y-113368902D01*
X170266713Y-113165232D01*
X169735617Y-113164769D01*
X169244771Y-113367582D01*
X158233957Y-113367582D01*
X158210737Y-113250849D01*
X157899668Y-112785302D01*
X157517582Y-112530000D01*
X157899668Y-112274698D01*
X158210737Y-111809151D01*
X158319970Y-111260000D01*
X158210737Y-110710849D01*
X157899668Y-110245302D01*
X157521849Y-109992851D01*
X157954500Y-109644896D01*
X158224367Y-109151819D01*
X158241904Y-109069039D01*
X158119915Y-108847000D01*
X156627000Y-108847000D01*
X156627000Y-108867000D01*
X156373000Y-108867000D01*
X156373000Y-108847000D01*
X154880085Y-108847000D01*
X154758096Y-109069039D01*
X154775633Y-109151819D01*
X155045500Y-109644896D01*
X155478151Y-109992851D01*
X155100332Y-110245302D01*
X154789263Y-110710849D01*
X154680030Y-111260000D01*
X154789263Y-111809151D01*
X155100332Y-112274698D01*
X155482418Y-112530000D01*
X155100332Y-112785302D01*
X154789263Y-113250849D01*
X154680030Y-113800000D01*
X154789263Y-114349151D01*
X155100332Y-114814698D01*
X155482418Y-115070000D01*
X155100332Y-115325302D01*
X154789263Y-115790849D01*
X154680030Y-116340000D01*
X154789263Y-116889151D01*
X155100332Y-117354698D01*
X155482418Y-117610000D01*
X155100332Y-117865302D01*
X154789263Y-118330849D01*
X154680030Y-118880000D01*
X154734749Y-119155093D01*
X150944921Y-122944921D01*
X150774755Y-123199593D01*
X150732733Y-123410849D01*
X150715000Y-123500000D01*
X150715000Y-126462494D01*
X150707808Y-126469673D01*
X150698430Y-126492258D01*
X150590737Y-125950849D01*
X150279668Y-125485302D01*
X149897582Y-125230000D01*
X150279668Y-124974698D01*
X150590737Y-124509151D01*
X150699970Y-123960000D01*
X150590737Y-123410849D01*
X150279668Y-122945302D01*
X149897582Y-122690000D01*
X150279668Y-122434698D01*
X150590737Y-121969151D01*
X150699970Y-121420000D01*
X150590737Y-120870849D01*
X150279668Y-120405302D01*
X149897582Y-120150000D01*
X150279668Y-119894698D01*
X150590737Y-119429151D01*
X150699970Y-118880000D01*
X150590737Y-118330849D01*
X150279668Y-117865302D01*
X149897582Y-117610000D01*
X150279668Y-117354698D01*
X150590737Y-116889151D01*
X150699970Y-116340000D01*
X150590737Y-115790849D01*
X150279668Y-115325302D01*
X149897582Y-115070000D01*
X150279668Y-114814698D01*
X150590737Y-114349151D01*
X150699970Y-113800000D01*
X150590737Y-113250849D01*
X150279668Y-112785302D01*
X149901849Y-112532851D01*
X150334500Y-112184896D01*
X150604367Y-111691819D01*
X150621904Y-111609039D01*
X150499916Y-111387002D01*
X150648234Y-111387002D01*
X150706883Y-111528943D01*
X150969673Y-111792192D01*
X151313201Y-111934838D01*
X151685167Y-111935162D01*
X152028943Y-111793117D01*
X152292192Y-111530327D01*
X152434838Y-111186799D01*
X152435162Y-110814833D01*
X152293117Y-110471057D01*
X152030327Y-110207808D01*
X151686799Y-110065162D01*
X151675310Y-110065152D01*
X150638614Y-109028456D01*
X150699970Y-108720000D01*
X150590737Y-108170849D01*
X150279668Y-107705302D01*
X149897582Y-107450000D01*
X150279668Y-107194698D01*
X150590737Y-106729151D01*
X150699970Y-106180000D01*
X150590737Y-105630849D01*
X150279668Y-105165302D01*
X149897582Y-104910000D01*
X150279668Y-104654698D01*
X150590737Y-104189151D01*
X150699970Y-103640000D01*
X150624433Y-103260249D01*
X150800407Y-103225245D01*
X151055079Y-103055079D01*
X154874076Y-99236082D01*
X155100332Y-99574698D01*
X155482418Y-99830000D01*
X155100332Y-100085302D01*
X154789263Y-100550849D01*
X154680030Y-101100000D01*
X154789263Y-101649151D01*
X155100332Y-102114698D01*
X155482418Y-102370000D01*
X155100332Y-102625302D01*
X154789263Y-103090849D01*
X154680030Y-103640000D01*
X154789263Y-104189151D01*
X155100332Y-104654698D01*
X155482418Y-104910000D01*
X155100332Y-105165302D01*
X154789263Y-105630849D01*
X154680030Y-106180000D01*
X154789263Y-106729151D01*
X155100332Y-107194698D01*
X155478151Y-107447149D01*
X155045500Y-107795104D01*
X154775633Y-108288181D01*
X154758096Y-108370961D01*
X154880085Y-108593000D01*
X156373000Y-108593000D01*
X156373000Y-108573000D01*
X156627000Y-108573000D01*
X156627000Y-108593000D01*
X158119915Y-108593000D01*
X158241904Y-108370961D01*
X158224367Y-108288181D01*
X157954500Y-107795104D01*
X157521849Y-107447149D01*
X157899668Y-107194698D01*
X158186365Y-106765626D01*
X162216163Y-106765626D01*
X161826056Y-107155053D01*
X161614671Y-107664124D01*
X161614190Y-108215338D01*
X161824686Y-108724777D01*
X162214113Y-109114884D01*
X162723184Y-109326269D01*
X163216542Y-109326700D01*
X165064847Y-111175005D01*
X165064838Y-111185167D01*
X165206883Y-111528943D01*
X165469673Y-111792192D01*
X165813201Y-111934838D01*
X166185167Y-111935162D01*
X166528943Y-111793117D01*
X166792192Y-111530327D01*
X166934838Y-111186799D01*
X166935162Y-110814833D01*
X166793117Y-110471057D01*
X166530327Y-110207808D01*
X166186799Y-110065162D01*
X166175310Y-110065152D01*
X165737158Y-109627000D01*
X168823750Y-109627000D01*
X168665000Y-109785750D01*
X168665000Y-110326309D01*
X168761673Y-110559698D01*
X168940301Y-110738327D01*
X169173690Y-110835000D01*
X169714250Y-110835000D01*
X169873000Y-110676250D01*
X169873000Y-109627000D01*
X170127000Y-109627000D01*
X170127000Y-110676250D01*
X170285750Y-110835000D01*
X170826310Y-110835000D01*
X171059699Y-110738327D01*
X171238327Y-110559698D01*
X171335000Y-110326309D01*
X171335000Y-109785750D01*
X171176250Y-109627000D01*
X170127000Y-109627000D01*
X169873000Y-109627000D01*
X169873000Y-109627000D01*
X168823750Y-109627000D01*
X165737158Y-109627000D01*
X164368483Y-108258325D01*
X164385329Y-108217756D01*
X164385375Y-108165000D01*
X169173690Y-108165000D01*
X168940301Y-108261673D01*
X168761673Y-108440302D01*
X168665000Y-108673691D01*
X168665000Y-109214250D01*
X168823750Y-109373000D01*
X169873000Y-109373000D01*
X169873000Y-108323750D01*
X169714250Y-108165000D01*
X170285750Y-108165000D01*
X169714250Y-108165000D01*
X169714250Y-108165000D01*
X170285750Y-108165000D01*
X170127000Y-108323750D01*
X170127000Y-109373000D01*
X171176250Y-109373000D01*
X171335000Y-109214250D01*
X171335000Y-108673691D01*
X171238327Y-108440302D01*
X171059699Y-108261673D01*
X170826310Y-108165000D01*
X170285750Y-108165000D01*
X169714250Y-108165000D01*
X169714250Y-108165000D01*
X169173690Y-108165000D01*
X164385375Y-108165000D01*
X164385810Y-107666542D01*
X164175314Y-107157103D01*
X163785887Y-106766996D01*
X163276816Y-106555611D01*
X162725602Y-106555130D01*
X162216163Y-106765626D01*
X158186365Y-106765626D01*
X158210737Y-106729151D01*
X158319970Y-106180000D01*
X158210737Y-105630849D01*
X157899668Y-105165302D01*
X157517582Y-104910000D01*
X157899668Y-104654698D01*
X157915437Y-104631098D01*
X169242796Y-104631098D01*
X169733287Y-104834768D01*
X170264383Y-104835231D01*
X170755229Y-104632418D01*
X171131098Y-104257204D01*
X171334768Y-103766713D01*
X171335231Y-103235617D01*
X171132418Y-102744771D01*
X170757204Y-102368902D01*
X170266713Y-102165232D01*
X169735617Y-102164769D01*
X169244771Y-102367582D01*
X164213476Y-102367582D01*
X164175314Y-102275223D01*
X163785887Y-101885116D01*
X163276816Y-101673731D01*
X162725602Y-101673250D01*
X162216163Y-101883746D01*
X161826056Y-102273173D01*
X161614671Y-102782244D01*
X161614190Y-103333458D01*
X161824686Y-103842897D01*
X162214113Y-104233004D01*
X162723184Y-104444389D01*
X163274398Y-104444870D01*
X163783837Y-104234374D01*
X164173944Y-103844947D01*
X164385329Y-103335876D01*
X164385810Y-102784662D01*
X164213476Y-102367582D01*
X169244771Y-102367582D01*
X164213476Y-102367582D01*
X164213476Y-102367582D01*
X169244771Y-102367582D01*
X168868902Y-102742796D01*
X168665232Y-103233287D01*
X168664769Y-103764383D01*
X168867582Y-104255229D01*
X169242796Y-104631098D01*
X157915437Y-104631098D01*
X158210737Y-104189151D01*
X158319970Y-103640000D01*
X158210737Y-103090849D01*
X157899668Y-102625302D01*
X157517582Y-102370000D01*
X157899668Y-102114698D01*
X158210737Y-101649151D01*
X158319970Y-101100000D01*
X158210737Y-100550849D01*
X157899668Y-100085302D01*
X157517582Y-99830000D01*
X157899668Y-99574698D01*
X158210737Y-99109151D01*
X158306642Y-98627000D01*
X168823750Y-98627000D01*
X168665000Y-98785750D01*
X168665000Y-99326309D01*
X168761673Y-99559698D01*
X168940301Y-99738327D01*
X169173690Y-99835000D01*
X169714250Y-99835000D01*
X169873000Y-99676250D01*
X169873000Y-98627000D01*
X170127000Y-98627000D01*
X169873000Y-98627000D01*
X169873000Y-98627000D01*
X170127000Y-98627000D01*
X170127000Y-99676250D01*
X170285750Y-99835000D01*
X170826310Y-99835000D01*
X171059699Y-99738327D01*
X171238327Y-99559698D01*
X171335000Y-99326309D01*
X171335000Y-98785750D01*
X171176250Y-98627000D01*
X170127000Y-98627000D01*
X169873000Y-98627000D01*
X169873000Y-98627000D01*
X168823750Y-98627000D01*
X158306642Y-98627000D01*
X158319970Y-98560000D01*
X158210737Y-98010849D01*
X157899668Y-97545302D01*
X157517582Y-97290000D01*
X157704657Y-97165000D01*
X169173690Y-97165000D01*
X168940301Y-97261673D01*
X168761673Y-97440302D01*
X168665000Y-97673691D01*
X168665000Y-98214250D01*
X168823750Y-98373000D01*
X169873000Y-98373000D01*
X169873000Y-97323750D01*
X169714250Y-97165000D01*
X170285750Y-97165000D01*
X170127000Y-97323750D01*
X170127000Y-98373000D01*
X171176250Y-98373000D01*
X171335000Y-98214250D01*
X171335000Y-97673691D01*
X171238327Y-97440302D01*
X171059699Y-97261673D01*
X170826310Y-97165000D01*
X170285750Y-97165000D01*
X169714250Y-97165000D01*
X169714250Y-97165000D01*
X169173690Y-97165000D01*
X157704657Y-97165000D01*
X157899668Y-97034698D01*
X158210737Y-96569151D01*
X158319970Y-96020000D01*
X158210737Y-95470849D01*
X157899668Y-95005302D01*
X157517582Y-94750000D01*
X157899668Y-94494698D01*
X158210737Y-94029151D01*
X158319970Y-93480000D01*
X158210737Y-92930849D01*
X157899668Y-92465302D01*
X157434121Y-92154233D01*
X156884970Y-92045000D01*
X156115030Y-92045000D01*
X155565879Y-92154233D01*
X155100332Y-92465302D01*
X154789263Y-92930849D01*
X154680030Y-93480000D01*
X154737174Y-93767280D01*
X154699594Y-93774755D01*
X154444921Y-93944921D01*
X154274755Y-94199594D01*
X154215000Y-94500000D01*
X154215000Y-97674842D01*
X150677655Y-101212187D01*
X150699970Y-101100000D01*
X150590737Y-100550849D01*
X150279668Y-100085302D01*
X149897582Y-99830000D01*
X150279668Y-99574698D01*
X150590737Y-99109151D01*
X150699970Y-98560000D01*
X150590737Y-98010849D01*
X150279668Y-97545302D01*
X149897582Y-97290000D01*
X150279668Y-97034698D01*
X150590737Y-96569151D01*
X150699970Y-96020000D01*
X150590737Y-95470849D01*
X150279668Y-95005302D01*
X149897582Y-94750000D01*
X150279668Y-94494698D01*
X150590737Y-94029151D01*
X150699970Y-93480000D01*
X150590737Y-92930849D01*
X150279668Y-92465302D01*
X149814121Y-92154233D01*
X149264970Y-92045000D01*
X148495030Y-92045000D01*
X142428110Y-92045000D01*
X142428110Y-91203646D01*
X142322446Y-90672439D01*
X142021542Y-90222104D01*
X141571207Y-89921200D01*
X141040000Y-89815536D01*
X140759410Y-89871349D01*
X140725245Y-89699594D01*
X140555079Y-89444921D01*
X140300406Y-89274755D01*
X140000000Y-89215000D01*
X137825157Y-89215000D01*
X135078701Y-86468544D01*
X135353489Y-86413885D01*
X135839670Y-86089029D01*
X136050000Y-85774248D01*
X136260330Y-86089029D01*
X136746511Y-86413885D01*
X137320000Y-86527959D01*
X137893489Y-86413885D01*
X138379670Y-86089029D01*
X138590000Y-85774248D01*
X138800330Y-86089029D01*
X139286511Y-86413885D01*
X139860000Y-86527959D01*
X140433489Y-86413885D01*
X140919670Y-86089029D01*
X141130000Y-85774248D01*
X141340330Y-86089029D01*
X141826511Y-86413885D01*
X142400000Y-86527959D01*
X142973489Y-86413885D01*
X143459670Y-86089029D01*
X143670000Y-85774248D01*
X143880330Y-86089029D01*
X144366511Y-86413885D01*
X144940000Y-86527959D01*
X145513489Y-86413885D01*
X145999670Y-86089029D01*
X146210000Y-85774248D01*
X146420330Y-86089029D01*
X146906511Y-86413885D01*
X147480000Y-86527959D01*
X148053489Y-86413885D01*
X148539670Y-86089029D01*
X148750000Y-85774248D01*
X148960330Y-86089029D01*
X149446511Y-86413885D01*
X150020000Y-86527959D01*
X150593489Y-86413885D01*
X151079670Y-86089029D01*
X151290000Y-85774248D01*
X151500330Y-86089029D01*
X151986511Y-86413885D01*
X152560000Y-86527959D01*
X153133489Y-86413885D01*
X153619670Y-86089029D01*
X153830000Y-85774248D01*
X154040330Y-86089029D01*
X154526511Y-86413885D01*
X155100000Y-86527959D01*
X155673489Y-86413885D01*
X156159670Y-86089029D01*
X156370000Y-85774248D01*
X156580330Y-86089029D01*
X157066511Y-86413885D01*
X157640000Y-86527959D01*
X158213489Y-86413885D01*
X158699670Y-86089029D01*
X158910000Y-85774248D01*
X159120330Y-86089029D01*
X159606511Y-86413885D01*
X160180000Y-86527959D01*
X160753489Y-86413885D01*
X161239670Y-86089029D01*
X161450000Y-85774248D01*
X161660330Y-86089029D01*
X162146511Y-86413885D01*
X162720000Y-86527959D01*
X163293489Y-86413885D01*
X163779670Y-86089029D01*
X163990000Y-85774248D01*
X164200330Y-86089029D01*
X164686511Y-86413885D01*
X165260000Y-86527959D01*
X165833489Y-86413885D01*
X166319670Y-86089029D01*
X166644526Y-85602848D01*
X166739181Y-85126985D01*
X166916600Y-85556372D01*
X166916600Y-85556372D01*
G37*
X166916600Y-85556372D02*
X167938249Y-86579806D01*
X169273782Y-87134368D01*
X170719874Y-87135630D01*
X172056372Y-86583400D01*
X172815000Y-85826095D01*
X172815000Y-130174759D01*
X172061751Y-129420194D01*
X170726218Y-128865632D01*
X169280126Y-128864370D01*
X167943628Y-129416600D01*
X166920194Y-130438249D01*
X166365632Y-131773782D01*
X166364370Y-133219874D01*
X166916600Y-134556372D01*
X167673905Y-135315000D01*
X114325241Y-135315000D01*
X115079806Y-134561751D01*
X115444087Y-133684464D01*
X141770000Y-133684464D01*
X142301207Y-133578800D01*
X142751542Y-133277896D01*
X143052446Y-132827561D01*
X143158110Y-132296354D01*
X143158110Y-130703646D01*
X143052446Y-130172439D01*
X142751542Y-129722104D01*
X142301207Y-129421200D01*
X141770000Y-129315536D01*
X141238793Y-129421200D01*
X140788458Y-129722104D01*
X140487554Y-130172439D01*
X140486984Y-130175306D01*
X140463846Y-130097081D01*
X140121740Y-129674276D01*
X139643875Y-129414573D01*
X139571674Y-129400217D01*
X138888326Y-129400217D01*
X138888326Y-129400217D01*
X138816125Y-129414573D01*
X138338260Y-129674276D01*
X137996154Y-130097081D01*
X137841890Y-130618620D01*
X137841890Y-131373000D01*
X139103000Y-131373000D01*
X139103000Y-129522838D01*
X138888326Y-129400217D01*
X139571674Y-129400217D01*
X138888326Y-129400217D01*
X138888326Y-129400217D01*
X139571674Y-129400217D01*
X139357000Y-129522838D01*
X139357000Y-131373000D01*
X139377000Y-131373000D01*
X139377000Y-131627000D01*
X139357000Y-131627000D01*
X139103000Y-131627000D01*
X139103000Y-131627000D01*
X137841890Y-131627000D01*
X137841890Y-132381380D01*
X137996154Y-132902919D01*
X138338260Y-133325724D01*
X138816125Y-133585427D01*
X138888326Y-133599783D01*
X139103000Y-133477162D01*
X139103000Y-131627000D01*
X139357000Y-131627000D01*
X139103000Y-131627000D01*
X139103000Y-131627000D01*
X139357000Y-131627000D01*
X139357000Y-133477162D01*
X139571674Y-133599783D01*
X139643875Y-133585427D01*
X140121740Y-133325724D01*
X140463846Y-132902919D01*
X140486984Y-132824694D01*
X140487554Y-132827561D01*
X140788458Y-133277896D01*
X141238793Y-133578800D01*
X141770000Y-133684464D01*
X115444087Y-133684464D01*
X115634368Y-133226218D01*
X115635630Y-131780126D01*
X115083400Y-130443628D01*
X114061751Y-129420194D01*
X112726218Y-128865632D01*
X111280126Y-128864370D01*
X109943628Y-129416600D01*
X109185000Y-130173905D01*
X109185000Y-127016724D01*
X129496857Y-127016724D01*
X130119000Y-127191000D01*
X130373000Y-127191000D01*
X130373000Y-125667000D01*
X130627000Y-125667000D01*
X130373000Y-125667000D01*
X130373000Y-125667000D01*
X130627000Y-125667000D01*
X130627000Y-127191000D01*
X130881000Y-127191000D01*
X131503143Y-127016724D01*
X132011236Y-126617630D01*
X132327926Y-126054477D01*
X132359975Y-125922944D01*
X132240836Y-125667000D01*
X130627000Y-125667000D01*
X130373000Y-125667000D01*
X130373000Y-125667000D01*
X128759164Y-125667000D01*
X116950077Y-125667000D01*
X117041060Y-125504757D01*
X117071411Y-125378959D01*
X116951942Y-125127000D01*
X114627000Y-125127000D01*
X114627000Y-126625600D01*
X115617600Y-126625600D01*
X116230023Y-126453258D01*
X116729876Y-126059670D01*
X116950077Y-125667000D01*
X128759164Y-125667000D01*
X116950077Y-125667000D01*
X116950077Y-125667000D01*
X128759164Y-125667000D01*
X128640025Y-125922944D01*
X128672074Y-126054477D01*
X128988764Y-126617630D01*
X129496857Y-127016724D01*
X109185000Y-127016724D01*
X109185000Y-125127000D01*
X112048058Y-125127000D01*
X111928589Y-125378959D01*
X111958940Y-125504757D01*
X112270124Y-126059670D01*
X112769977Y-126453258D01*
X113382400Y-126625600D01*
X114373000Y-126625600D01*
X114373000Y-125127000D01*
X112048058Y-125127000D01*
X109185000Y-125127000D01*
X109185000Y-123374400D01*
X113382400Y-123374400D01*
X112769977Y-123546742D01*
X112270124Y-123940330D01*
X111958940Y-124495243D01*
X111928589Y-124621041D01*
X112048058Y-124873000D01*
X114373000Y-124873000D01*
X114373000Y-123374400D01*
X114627000Y-123374400D01*
X114627000Y-124873000D01*
X116951942Y-124873000D01*
X117071411Y-124621041D01*
X117041060Y-124495243D01*
X116729876Y-123940330D01*
X116230023Y-123546742D01*
X115617600Y-123374400D01*
X114627000Y-123374400D01*
X114373000Y-123374400D01*
X114373000Y-123374400D01*
X113382400Y-123374400D01*
X109185000Y-123374400D01*
X109185000Y-85825241D01*
X109938249Y-86579806D01*
X111273782Y-87134368D01*
X112719874Y-87135630D01*
X114056372Y-86583400D01*
X114615000Y-86025746D01*
X114615000Y-102500000D01*
X114652560Y-102688826D01*
X114652560Y-103095861D01*
X113874210Y-103874210D01*
X113682367Y-104161325D01*
X113682367Y-104161326D01*
X113614999Y-104500000D01*
X113615000Y-104500005D01*
X113615000Y-118374400D01*
X113458146Y-118374400D01*
X112836056Y-118498141D01*
X112308673Y-118850527D01*
X111956287Y-119377910D01*
X111832546Y-120000000D01*
X111956287Y-120622090D01*
X112308673Y-121149473D01*
X112836056Y-121501859D01*
X113458146Y-121625600D01*
X115541854Y-121625600D01*
X116163944Y-121501859D01*
X116691327Y-121149473D01*
X117043713Y-120622090D01*
X117167454Y-120000000D01*
X117043713Y-119377910D01*
X116691327Y-118850527D01*
X116629178Y-118809000D01*
X130208679Y-118809000D01*
X129576869Y-118934675D01*
X129041246Y-119292567D01*
X128683354Y-119828190D01*
X128557679Y-120460000D01*
X128683354Y-121091810D01*
X129041246Y-121627433D01*
X129194748Y-121730000D01*
X129041246Y-121832567D01*
X128683354Y-122368190D01*
X128557679Y-123000000D01*
X128683354Y-123631810D01*
X129041246Y-124167433D01*
X129215781Y-124284054D01*
X128988764Y-124462370D01*
X128672074Y-125025523D01*
X128640025Y-125157056D01*
X128759164Y-125413000D01*
X130373000Y-125413000D01*
X130373000Y-125393000D01*
X130627000Y-125393000D01*
X130627000Y-125413000D01*
X132240836Y-125413000D01*
X132359975Y-125157056D01*
X132327926Y-125025523D01*
X132011236Y-124462370D01*
X131784219Y-124284054D01*
X131958754Y-124167433D01*
X132316646Y-123631810D01*
X132442321Y-123000000D01*
X132316646Y-122368190D01*
X131958754Y-121832567D01*
X131805252Y-121730000D01*
X131958754Y-121627433D01*
X132316646Y-121091810D01*
X132442321Y-120460000D01*
X132316646Y-119828190D01*
X131958754Y-119292567D01*
X131423131Y-118934675D01*
X130791321Y-118809000D01*
X130208679Y-118809000D01*
X116629178Y-118809000D01*
X116163944Y-118498141D01*
X115541854Y-118374400D01*
X115385000Y-118374400D01*
X115385000Y-112225401D01*
X132235582Y-112225401D01*
X132885377Y-112201341D01*
X133373958Y-111998965D01*
X133472557Y-111732163D01*
X133292952Y-111552557D01*
X133652163Y-111552557D01*
X133918965Y-111453958D01*
X134145401Y-110844418D01*
X134121341Y-110194623D01*
X133918965Y-109706042D01*
X133652163Y-109607443D01*
X132679605Y-110580000D01*
X132320395Y-110580000D01*
X132320395Y-110580000D01*
X131347837Y-109607443D01*
X131081035Y-109706042D01*
X130854599Y-110315582D01*
X130878659Y-110965377D01*
X131081035Y-111453958D01*
X131347837Y-111552557D01*
X132320395Y-110580000D01*
X132679605Y-110580000D01*
X132320395Y-110580000D01*
X132320395Y-110580000D01*
X132679605Y-110580000D01*
X133652163Y-111552557D01*
X133292952Y-111552557D01*
X132500000Y-110759605D01*
X131527443Y-111732163D01*
X128659363Y-111732163D01*
X128884846Y-111507073D01*
X129134206Y-110906547D01*
X129134774Y-110256306D01*
X128886462Y-109655345D01*
X128427073Y-109195154D01*
X127857530Y-108958659D01*
X132114623Y-108958659D01*
X131626042Y-109161035D01*
X131527443Y-109427837D01*
X132500000Y-110400395D01*
X133472557Y-109427837D01*
X133373958Y-109161035D01*
X132764418Y-108934599D01*
X132114623Y-108958659D01*
X127857530Y-108958659D01*
X127826547Y-108945794D01*
X127176306Y-108945226D01*
X126575345Y-109193538D01*
X126115154Y-109652927D01*
X125865794Y-110253453D01*
X125865226Y-110903694D01*
X126113538Y-111504655D01*
X126572927Y-111964846D01*
X127173453Y-112214206D01*
X127823694Y-112214774D01*
X128424655Y-111966462D01*
X128659363Y-111732163D01*
X131527443Y-111732163D01*
X128659363Y-111732163D01*
X128659363Y-111732163D01*
X131527443Y-111732163D01*
X131626042Y-111998965D01*
X132235582Y-112225401D01*
X115385000Y-112225401D01*
X115385000Y-109198797D01*
X115807122Y-109347419D01*
X116337440Y-109318664D01*
X116693831Y-109171042D01*
X116755669Y-108935275D01*
X116000000Y-108179605D01*
X115985858Y-108193748D01*
X115806252Y-108014142D01*
X115820395Y-108000000D01*
X116179605Y-108000000D01*
X116935275Y-108755669D01*
X117171042Y-108693831D01*
X117347419Y-108192878D01*
X117318664Y-107662560D01*
X117171042Y-107306169D01*
X116935275Y-107244331D01*
X116179605Y-108000000D01*
X115820395Y-108000000D01*
X115820395Y-108000000D01*
X115806252Y-107985858D01*
X115985858Y-107806252D01*
X116000000Y-107820395D01*
X116755669Y-107064725D01*
X116693831Y-106828958D01*
X116192878Y-106652581D01*
X115662560Y-106681336D01*
X115385000Y-106796305D01*
X115385000Y-104866580D01*
X115904139Y-104347440D01*
X116700000Y-104347440D01*
X116942123Y-104300463D01*
X117154927Y-104160673D01*
X117297377Y-103949640D01*
X117347440Y-103700000D01*
X117347440Y-102300000D01*
X117300463Y-102057877D01*
X117160673Y-101845073D01*
X116949640Y-101702623D01*
X116700000Y-101652560D01*
X116385000Y-101652560D01*
X116385000Y-95112189D01*
X116386760Y-95113377D01*
X116636400Y-95163440D01*
X117747510Y-95163440D01*
X117774755Y-95300407D01*
X117944921Y-95555079D01*
X120215000Y-97825158D01*
X120215000Y-101500000D01*
X120274755Y-101800407D01*
X120444921Y-102055079D01*
X121715000Y-103325158D01*
X121715000Y-109135834D01*
X121575345Y-109193538D01*
X121115154Y-109652927D01*
X120865794Y-110253453D01*
X120865226Y-110903694D01*
X121113538Y-111504655D01*
X121572927Y-111964846D01*
X122173453Y-112214206D01*
X122823694Y-112214774D01*
X123424655Y-111966462D01*
X123884846Y-111507073D01*
X124134206Y-110906547D01*
X124134774Y-110256306D01*
X123886462Y-109655345D01*
X123427073Y-109195154D01*
X123285000Y-109136160D01*
X123285000Y-103000000D01*
X123241685Y-102782244D01*
X123225245Y-102699593D01*
X123055079Y-102444921D01*
X122664793Y-102054635D01*
X122823694Y-102054774D01*
X123424655Y-101806462D01*
X123884846Y-101347073D01*
X124134206Y-100746547D01*
X124134774Y-100096306D01*
X123886462Y-99495345D01*
X123427073Y-99035154D01*
X123285000Y-98976160D01*
X123285000Y-96500000D01*
X123225245Y-96199594D01*
X123225245Y-96199593D01*
X123055079Y-95944921D01*
X122222365Y-95112207D01*
X122580000Y-95183345D01*
X122744944Y-95150536D01*
X122774755Y-95300407D01*
X122944921Y-95555079D01*
X126499296Y-99109454D01*
X126115154Y-99492927D01*
X125865794Y-100093453D01*
X125865226Y-100743694D01*
X126113538Y-101344655D01*
X126572927Y-101804846D01*
X127173453Y-102054206D01*
X127823694Y-102054774D01*
X128424655Y-101806462D01*
X128884846Y-101347073D01*
X129134206Y-100746547D01*
X129134774Y-100096306D01*
X128886462Y-99495345D01*
X128427073Y-99035154D01*
X128279831Y-98974014D01*
X128225245Y-98699593D01*
X128055079Y-98444921D01*
X124712433Y-95102275D01*
X125120000Y-95183345D01*
X125693489Y-95069271D01*
X126179670Y-94744415D01*
X126504526Y-94258234D01*
X126618600Y-93684745D01*
X126618600Y-93315255D01*
X126504526Y-92741766D01*
X126179670Y-92255585D01*
X125785000Y-91991875D01*
X125785000Y-87825158D01*
X126555079Y-87055079D01*
X126725245Y-86800406D01*
X126785001Y-86500000D01*
X126785000Y-86499995D01*
X126785000Y-86453367D01*
X127160000Y-86527959D01*
X127715000Y-86417563D01*
X127715000Y-86500000D01*
X127774755Y-86800406D01*
X127944921Y-87055079D01*
X128199594Y-87225245D01*
X128500000Y-87285000D01*
X128674842Y-87285000D01*
X129564847Y-88175005D01*
X129564838Y-88185167D01*
X129706883Y-88528943D01*
X129969673Y-88792192D01*
X130313201Y-88934838D01*
X130685167Y-88935162D01*
X131028943Y-88793117D01*
X131215000Y-88607384D01*
X131215000Y-99393255D01*
X131115154Y-99492927D01*
X130865794Y-100093453D01*
X130865226Y-100743694D01*
X131113538Y-101344655D01*
X131572927Y-101804846D01*
X132173453Y-102054206D01*
X132823694Y-102054774D01*
X133424655Y-101806462D01*
X133884846Y-101347073D01*
X134134206Y-100746547D01*
X134134774Y-100096306D01*
X133886462Y-99495345D01*
X133427073Y-99035154D01*
X133423182Y-99033538D01*
X136075345Y-99033538D01*
X135615154Y-99492927D01*
X135365794Y-100093453D01*
X135365226Y-100743694D01*
X135613538Y-101344655D01*
X136072927Y-101804846D01*
X136673453Y-102054206D01*
X137323694Y-102054774D01*
X137924655Y-101806462D01*
X138384846Y-101347073D01*
X138634206Y-100746547D01*
X138634774Y-100096306D01*
X138386462Y-99495345D01*
X137927073Y-99035154D01*
X137326547Y-98785794D01*
X136676306Y-98785226D01*
X136075345Y-99033538D01*
X133423182Y-99033538D01*
X132826547Y-98785794D01*
X132785000Y-98785758D01*
X132785000Y-86815739D01*
X132944921Y-87055079D01*
X133199594Y-87225245D01*
X133500000Y-87285000D01*
X133674842Y-87285000D01*
X136266307Y-89876465D01*
X135960000Y-89815536D01*
X135428793Y-89921200D01*
X134978458Y-90222104D01*
X134677554Y-90672439D01*
X134571890Y-91203646D01*
X134571890Y-92796354D01*
X134677554Y-93327561D01*
X134978458Y-93777896D01*
X135428793Y-94078800D01*
X135960000Y-94184464D01*
X136491207Y-94078800D01*
X136941542Y-93777896D01*
X137230000Y-93346188D01*
X137518458Y-93777896D01*
X137968793Y-94078800D01*
X138500000Y-94184464D01*
X139031207Y-94078800D01*
X139481542Y-93777896D01*
X139770000Y-93346188D01*
X140058458Y-93777896D01*
X140508793Y-94078800D01*
X141040000Y-94184464D01*
X141571207Y-94078800D01*
X142021542Y-93777896D01*
X142322446Y-93327561D01*
X142428110Y-92796354D01*
X142428110Y-92045000D01*
X148495030Y-92045000D01*
X147945879Y-92154233D01*
X147480332Y-92465302D01*
X147169263Y-92930849D01*
X147060030Y-93480000D01*
X147106774Y-93715000D01*
X147000000Y-93715000D01*
X146699594Y-93774755D01*
X146444921Y-93944921D01*
X146274755Y-94199594D01*
X146215000Y-94500000D01*
X146215000Y-100174842D01*
X137409573Y-108980269D01*
X137326547Y-108945794D01*
X136676306Y-108945226D01*
X136075345Y-109193538D01*
X135615154Y-109652927D01*
X135365794Y-110253453D01*
X135365226Y-110903694D01*
X135613538Y-111504655D01*
X136072927Y-111964846D01*
X136673453Y-112214206D01*
X137323694Y-112214774D01*
X137922483Y-111967360D01*
X134324995Y-115564847D01*
X134314833Y-115564838D01*
X133971057Y-115706883D01*
X133707808Y-115969673D01*
X133565162Y-116313201D01*
X133564838Y-116685167D01*
X133706883Y-117028943D01*
X133969673Y-117292192D01*
X134313201Y-117434838D01*
X134685167Y-117435162D01*
X135028943Y-117293117D01*
X135292192Y-117030327D01*
X135434838Y-116686799D01*
X135434848Y-116675310D01*
X147470369Y-104639788D01*
X147480332Y-104654698D01*
X147862418Y-104910000D01*
X147480332Y-105165302D01*
X147169263Y-105630849D01*
X147060030Y-106180000D01*
X147169263Y-106729151D01*
X147480332Y-107194698D01*
X147862418Y-107450000D01*
X147480332Y-107705302D01*
X147169263Y-108170849D01*
X147060030Y-108720000D01*
X147158492Y-109215000D01*
X147000000Y-109215000D01*
X146699594Y-109274755D01*
X146444921Y-109444921D01*
X146274755Y-109699594D01*
X146215000Y-110000000D01*
X146215000Y-128000000D01*
X146274755Y-128300407D01*
X146444921Y-128555079D01*
X149215000Y-131325158D01*
X149215000Y-132022778D01*
X148995345Y-132113538D01*
X148535154Y-132572927D01*
X148285794Y-133173453D01*
X148285226Y-133823694D01*
X148533538Y-134424655D01*
X148992927Y-134884846D01*
X149593453Y-135134206D01*
X150243694Y-135134774D01*
X150844655Y-134886462D01*
X151304846Y-134427073D01*
X151554206Y-133826547D01*
X151554774Y-133176306D01*
X151306462Y-132575345D01*
X150847073Y-132115154D01*
X150785000Y-132089379D01*
X150785000Y-131000000D01*
X150725245Y-130699594D01*
X150555079Y-130444921D01*
X147915881Y-127805723D01*
X147945879Y-127825767D01*
X148495030Y-127935000D01*
X149264970Y-127935000D01*
X149814121Y-127825767D01*
X150279668Y-127514698D01*
X150564923Y-127087785D01*
X150564838Y-127185167D01*
X150706883Y-127528943D01*
X150969673Y-127792192D01*
X151313201Y-127934838D01*
X151685167Y-127935162D01*
X152028943Y-127793117D01*
X152292192Y-127530327D01*
X152434838Y-127186799D01*
X152435162Y-126814833D01*
X152293117Y-126471057D01*
X152285000Y-126462926D01*
X152285000Y-123825158D01*
X154681710Y-121428448D01*
X154789263Y-121969151D01*
X155100332Y-122434698D01*
X155482418Y-122690000D01*
X155100332Y-122945302D01*
X154789263Y-123410849D01*
X154680030Y-123960000D01*
X154789263Y-124509151D01*
X155100332Y-124974698D01*
X155482418Y-125230000D01*
X155100332Y-125485302D01*
X154789263Y-125950849D01*
X154680030Y-126500000D01*
X154789263Y-127049151D01*
X155100332Y-127514698D01*
X155565879Y-127825767D01*
X156115030Y-127935000D01*
X156824842Y-127935000D01*
X159215000Y-130325157D01*
X159215000Y-132088889D01*
X159155345Y-132113538D01*
X158695154Y-132572927D01*
X158445794Y-133173453D01*
X158445226Y-133823694D01*
X158693538Y-134424655D01*
X159152927Y-134884846D01*
X159753453Y-135134206D01*
X160403694Y-135134774D01*
X161004655Y-134886462D01*
X161464846Y-134427073D01*
X161714206Y-133826547D01*
X161714774Y-133176306D01*
X161466462Y-132575345D01*
X161007073Y-132115154D01*
X160785000Y-132022941D01*
X160785000Y-130000000D01*
X160725245Y-129699594D01*
X160555079Y-129444921D01*
X160555076Y-129444919D01*
X158190138Y-127079980D01*
X158210737Y-127049151D01*
X158319970Y-126500000D01*
X158210737Y-125950849D01*
X157899668Y-125485302D01*
X157517582Y-125230000D01*
X157899668Y-124974698D01*
X158210737Y-124509151D01*
X158319970Y-123960000D01*
X158210737Y-123410849D01*
X157899668Y-122945302D01*
X157517582Y-122690000D01*
X157899668Y-122434698D01*
X158210737Y-121969151D01*
X158319970Y-121420000D01*
X158210737Y-120870849D01*
X157899668Y-120405302D01*
X157517582Y-120150000D01*
X157899668Y-119894698D01*
X158210737Y-119429151D01*
X158294708Y-119007000D01*
X162513783Y-119007000D01*
X162392642Y-119239026D01*
X162395291Y-119254791D01*
X162649268Y-119782036D01*
X163065069Y-120153539D01*
X162755585Y-120360330D01*
X162430729Y-120846511D01*
X162316655Y-121420000D01*
X162430729Y-121993489D01*
X162755585Y-122479670D01*
X163070366Y-122690000D01*
X162755585Y-122900330D01*
X162430729Y-123386511D01*
X162316655Y-123960000D01*
X162430729Y-124533489D01*
X162755585Y-125019670D01*
X162771367Y-125030215D01*
X162741877Y-125035937D01*
X162529073Y-125175727D01*
X162386623Y-125386760D01*
X162336560Y-125636400D01*
X162336560Y-127363600D01*
X162383537Y-127605723D01*
X162523327Y-127818527D01*
X162734360Y-127960977D01*
X162984000Y-128011040D01*
X165016000Y-128011040D01*
X165258123Y-127964063D01*
X165470927Y-127824273D01*
X165613377Y-127613240D01*
X165663440Y-127363600D01*
X165663440Y-125636400D01*
X165616463Y-125394277D01*
X165476673Y-125181473D01*
X165265640Y-125039023D01*
X165227037Y-125031282D01*
X165244415Y-125019670D01*
X165569271Y-124533489D01*
X165683345Y-123960000D01*
X165569271Y-123386511D01*
X165244415Y-122900330D01*
X164929634Y-122690000D01*
X165244415Y-122479670D01*
X165569271Y-121993489D01*
X165683345Y-121420000D01*
X165569271Y-120846511D01*
X165244415Y-120360330D01*
X164934931Y-120153539D01*
X165350732Y-119782036D01*
X165604709Y-119254791D01*
X165607358Y-119239026D01*
X165486217Y-119007000D01*
X164127000Y-119007000D01*
X164127000Y-119027000D01*
X163873000Y-119027000D01*
X163873000Y-119007000D01*
X162513783Y-119007000D01*
X158294708Y-119007000D01*
X158319970Y-118880000D01*
X158210737Y-118330849D01*
X157899668Y-117865302D01*
X157517582Y-117610000D01*
X157550438Y-117588046D01*
X163085680Y-117588046D01*
X162649268Y-117977964D01*
X162395291Y-118505209D01*
X162392642Y-118520974D01*
X162513783Y-118753000D01*
X163873000Y-118753000D01*
X163873000Y-117539076D01*
X164127000Y-117539076D01*
X163873000Y-117539076D01*
X163873000Y-117539076D01*
X164127000Y-117539076D01*
X164127000Y-118753000D01*
X165486217Y-118753000D01*
X165607358Y-118520974D01*
X165604709Y-118505209D01*
X165350732Y-117977964D01*
X164914320Y-117588046D01*
X164361913Y-117394816D01*
X164127000Y-117539076D01*
X163873000Y-117539076D01*
X163873000Y-117539076D01*
X163638087Y-117394816D01*
X163085680Y-117588046D01*
X157550438Y-117588046D01*
X157899668Y-117354698D01*
X158210737Y-116889151D01*
X158319970Y-116340000D01*
X158210737Y-115790849D01*
X157899668Y-115325302D01*
X157517582Y-115070000D01*
X157899668Y-114814698D01*
X158210737Y-114349151D01*
X158319970Y-113800000D01*
X158233957Y-113367582D01*
X169244771Y-113367582D01*
X168868902Y-113742796D01*
X168665232Y-114233287D01*
X168664769Y-114764383D01*
X168867582Y-115255229D01*
X169242796Y-115631098D01*
X169733287Y-115834768D01*
X170264383Y-115835231D01*
X170755229Y-115632418D01*
X171131098Y-115257204D01*
X171334768Y-114766713D01*
X171335231Y-114235617D01*
X171132418Y-113744771D01*
X170757204Y-113368902D01*
X170266713Y-113165232D01*
X169735617Y-113164769D01*
X169244771Y-113367582D01*
X158233957Y-113367582D01*
X158210737Y-113250849D01*
X157899668Y-112785302D01*
X157517582Y-112530000D01*
X157899668Y-112274698D01*
X158210737Y-111809151D01*
X158319970Y-111260000D01*
X158210737Y-110710849D01*
X157899668Y-110245302D01*
X157521849Y-109992851D01*
X157954500Y-109644896D01*
X158224367Y-109151819D01*
X158241904Y-109069039D01*
X158119915Y-108847000D01*
X156627000Y-108847000D01*
X156627000Y-108867000D01*
X156373000Y-108867000D01*
X156373000Y-108847000D01*
X154880085Y-108847000D01*
X154758096Y-109069039D01*
X154775633Y-109151819D01*
X155045500Y-109644896D01*
X155478151Y-109992851D01*
X155100332Y-110245302D01*
X154789263Y-110710849D01*
X154680030Y-111260000D01*
X154789263Y-111809151D01*
X155100332Y-112274698D01*
X155482418Y-112530000D01*
X155100332Y-112785302D01*
X154789263Y-113250849D01*
X154680030Y-113800000D01*
X154789263Y-114349151D01*
X155100332Y-114814698D01*
X155482418Y-115070000D01*
X155100332Y-115325302D01*
X154789263Y-115790849D01*
X154680030Y-116340000D01*
X154789263Y-116889151D01*
X155100332Y-117354698D01*
X155482418Y-117610000D01*
X155100332Y-117865302D01*
X154789263Y-118330849D01*
X154680030Y-118880000D01*
X154734749Y-119155093D01*
X150944921Y-122944921D01*
X150774755Y-123199593D01*
X150732733Y-123410849D01*
X150715000Y-123500000D01*
X150715000Y-126462494D01*
X150707808Y-126469673D01*
X150698430Y-126492258D01*
X150590737Y-125950849D01*
X150279668Y-125485302D01*
X149897582Y-125230000D01*
X150279668Y-124974698D01*
X150590737Y-124509151D01*
X150699970Y-123960000D01*
X150590737Y-123410849D01*
X150279668Y-122945302D01*
X149897582Y-122690000D01*
X150279668Y-122434698D01*
X150590737Y-121969151D01*
X150699970Y-121420000D01*
X150590737Y-120870849D01*
X150279668Y-120405302D01*
X149897582Y-120150000D01*
X150279668Y-119894698D01*
X150590737Y-119429151D01*
X150699970Y-118880000D01*
X150590737Y-118330849D01*
X150279668Y-117865302D01*
X149897582Y-117610000D01*
X150279668Y-117354698D01*
X150590737Y-116889151D01*
X150699970Y-116340000D01*
X150590737Y-115790849D01*
X150279668Y-115325302D01*
X149897582Y-115070000D01*
X150279668Y-114814698D01*
X150590737Y-114349151D01*
X150699970Y-113800000D01*
X150590737Y-113250849D01*
X150279668Y-112785302D01*
X149901849Y-112532851D01*
X150334500Y-112184896D01*
X150604367Y-111691819D01*
X150621904Y-111609039D01*
X150499916Y-111387002D01*
X150648234Y-111387002D01*
X150706883Y-111528943D01*
X150969673Y-111792192D01*
X151313201Y-111934838D01*
X151685167Y-111935162D01*
X152028943Y-111793117D01*
X152292192Y-111530327D01*
X152434838Y-111186799D01*
X152435162Y-110814833D01*
X152293117Y-110471057D01*
X152030327Y-110207808D01*
X151686799Y-110065162D01*
X151675310Y-110065152D01*
X150638614Y-109028456D01*
X150699970Y-108720000D01*
X150590737Y-108170849D01*
X150279668Y-107705302D01*
X149897582Y-107450000D01*
X150279668Y-107194698D01*
X150590737Y-106729151D01*
X150699970Y-106180000D01*
X150590737Y-105630849D01*
X150279668Y-105165302D01*
X149897582Y-104910000D01*
X150279668Y-104654698D01*
X150590737Y-104189151D01*
X150699970Y-103640000D01*
X150624433Y-103260249D01*
X150800407Y-103225245D01*
X151055079Y-103055079D01*
X154874076Y-99236082D01*
X155100332Y-99574698D01*
X155482418Y-99830000D01*
X155100332Y-100085302D01*
X154789263Y-100550849D01*
X154680030Y-101100000D01*
X154789263Y-101649151D01*
X155100332Y-102114698D01*
X155482418Y-102370000D01*
X155100332Y-102625302D01*
X154789263Y-103090849D01*
X154680030Y-103640000D01*
X154789263Y-104189151D01*
X155100332Y-104654698D01*
X155482418Y-104910000D01*
X155100332Y-105165302D01*
X154789263Y-105630849D01*
X154680030Y-106180000D01*
X154789263Y-106729151D01*
X155100332Y-107194698D01*
X155478151Y-107447149D01*
X155045500Y-107795104D01*
X154775633Y-108288181D01*
X154758096Y-108370961D01*
X154880085Y-108593000D01*
X156373000Y-108593000D01*
X156373000Y-108573000D01*
X156627000Y-108573000D01*
X156627000Y-108593000D01*
X158119915Y-108593000D01*
X158241904Y-108370961D01*
X158224367Y-108288181D01*
X157954500Y-107795104D01*
X157521849Y-107447149D01*
X157899668Y-107194698D01*
X158186365Y-106765626D01*
X162216163Y-106765626D01*
X161826056Y-107155053D01*
X161614671Y-107664124D01*
X161614190Y-108215338D01*
X161824686Y-108724777D01*
X162214113Y-109114884D01*
X162723184Y-109326269D01*
X163216542Y-109326700D01*
X165064847Y-111175005D01*
X165064838Y-111185167D01*
X165206883Y-111528943D01*
X165469673Y-111792192D01*
X165813201Y-111934838D01*
X166185167Y-111935162D01*
X166528943Y-111793117D01*
X166792192Y-111530327D01*
X166934838Y-111186799D01*
X166935162Y-110814833D01*
X166793117Y-110471057D01*
X166530327Y-110207808D01*
X166186799Y-110065162D01*
X166175310Y-110065152D01*
X165737158Y-109627000D01*
X168823750Y-109627000D01*
X168665000Y-109785750D01*
X168665000Y-110326309D01*
X168761673Y-110559698D01*
X168940301Y-110738327D01*
X169173690Y-110835000D01*
X169714250Y-110835000D01*
X169873000Y-110676250D01*
X169873000Y-109627000D01*
X170127000Y-109627000D01*
X170127000Y-110676250D01*
X170285750Y-110835000D01*
X170826310Y-110835000D01*
X171059699Y-110738327D01*
X171238327Y-110559698D01*
X171335000Y-110326309D01*
X171335000Y-109785750D01*
X171176250Y-109627000D01*
X170127000Y-109627000D01*
X169873000Y-109627000D01*
X169873000Y-109627000D01*
X168823750Y-109627000D01*
X165737158Y-109627000D01*
X164368483Y-108258325D01*
X164385329Y-108217756D01*
X164385375Y-108165000D01*
X169173690Y-108165000D01*
X168940301Y-108261673D01*
X168761673Y-108440302D01*
X168665000Y-108673691D01*
X168665000Y-109214250D01*
X168823750Y-109373000D01*
X169873000Y-109373000D01*
X169873000Y-108323750D01*
X169714250Y-108165000D01*
X170285750Y-108165000D01*
X169714250Y-108165000D01*
X169714250Y-108165000D01*
X170285750Y-108165000D01*
X170127000Y-108323750D01*
X170127000Y-109373000D01*
X171176250Y-109373000D01*
X171335000Y-109214250D01*
X171335000Y-108673691D01*
X171238327Y-108440302D01*
X171059699Y-108261673D01*
X170826310Y-108165000D01*
X170285750Y-108165000D01*
X169714250Y-108165000D01*
X169714250Y-108165000D01*
X169173690Y-108165000D01*
X164385375Y-108165000D01*
X164385810Y-107666542D01*
X164175314Y-107157103D01*
X163785887Y-106766996D01*
X163276816Y-106555611D01*
X162725602Y-106555130D01*
X162216163Y-106765626D01*
X158186365Y-106765626D01*
X158210737Y-106729151D01*
X158319970Y-106180000D01*
X158210737Y-105630849D01*
X157899668Y-105165302D01*
X157517582Y-104910000D01*
X157899668Y-104654698D01*
X157915437Y-104631098D01*
X169242796Y-104631098D01*
X169733287Y-104834768D01*
X170264383Y-104835231D01*
X170755229Y-104632418D01*
X171131098Y-104257204D01*
X171334768Y-103766713D01*
X171335231Y-103235617D01*
X171132418Y-102744771D01*
X170757204Y-102368902D01*
X170266713Y-102165232D01*
X169735617Y-102164769D01*
X169244771Y-102367582D01*
X164213476Y-102367582D01*
X164175314Y-102275223D01*
X163785887Y-101885116D01*
X163276816Y-101673731D01*
X162725602Y-101673250D01*
X162216163Y-101883746D01*
X161826056Y-102273173D01*
X161614671Y-102782244D01*
X161614190Y-103333458D01*
X161824686Y-103842897D01*
X162214113Y-104233004D01*
X162723184Y-104444389D01*
X163274398Y-104444870D01*
X163783837Y-104234374D01*
X164173944Y-103844947D01*
X164385329Y-103335876D01*
X164385810Y-102784662D01*
X164213476Y-102367582D01*
X169244771Y-102367582D01*
X164213476Y-102367582D01*
X164213476Y-102367582D01*
X169244771Y-102367582D01*
X168868902Y-102742796D01*
X168665232Y-103233287D01*
X168664769Y-103764383D01*
X168867582Y-104255229D01*
X169242796Y-104631098D01*
X157915437Y-104631098D01*
X158210737Y-104189151D01*
X158319970Y-103640000D01*
X158210737Y-103090849D01*
X157899668Y-102625302D01*
X157517582Y-102370000D01*
X157899668Y-102114698D01*
X158210737Y-101649151D01*
X158319970Y-101100000D01*
X158210737Y-100550849D01*
X157899668Y-100085302D01*
X157517582Y-99830000D01*
X157899668Y-99574698D01*
X158210737Y-99109151D01*
X158306642Y-98627000D01*
X168823750Y-98627000D01*
X168665000Y-98785750D01*
X168665000Y-99326309D01*
X168761673Y-99559698D01*
X168940301Y-99738327D01*
X169173690Y-99835000D01*
X169714250Y-99835000D01*
X169873000Y-99676250D01*
X169873000Y-98627000D01*
X170127000Y-98627000D01*
X169873000Y-98627000D01*
X169873000Y-98627000D01*
X170127000Y-98627000D01*
X170127000Y-99676250D01*
X170285750Y-99835000D01*
X170826310Y-99835000D01*
X171059699Y-99738327D01*
X171238327Y-99559698D01*
X171335000Y-99326309D01*
X171335000Y-98785750D01*
X171176250Y-98627000D01*
X170127000Y-98627000D01*
X169873000Y-98627000D01*
X169873000Y-98627000D01*
X168823750Y-98627000D01*
X158306642Y-98627000D01*
X158319970Y-98560000D01*
X158210737Y-98010849D01*
X157899668Y-97545302D01*
X157517582Y-97290000D01*
X157704657Y-97165000D01*
X169173690Y-97165000D01*
X168940301Y-97261673D01*
X168761673Y-97440302D01*
X168665000Y-97673691D01*
X168665000Y-98214250D01*
X168823750Y-98373000D01*
X169873000Y-98373000D01*
X169873000Y-97323750D01*
X169714250Y-97165000D01*
X170285750Y-97165000D01*
X170127000Y-97323750D01*
X170127000Y-98373000D01*
X171176250Y-98373000D01*
X171335000Y-98214250D01*
X171335000Y-97673691D01*
X171238327Y-97440302D01*
X171059699Y-97261673D01*
X170826310Y-97165000D01*
X170285750Y-97165000D01*
X169714250Y-97165000D01*
X169714250Y-97165000D01*
X169173690Y-97165000D01*
X157704657Y-97165000D01*
X157899668Y-97034698D01*
X158210737Y-96569151D01*
X158319970Y-96020000D01*
X158210737Y-95470849D01*
X157899668Y-95005302D01*
X157517582Y-94750000D01*
X157899668Y-94494698D01*
X158210737Y-94029151D01*
X158319970Y-93480000D01*
X158210737Y-92930849D01*
X157899668Y-92465302D01*
X157434121Y-92154233D01*
X156884970Y-92045000D01*
X156115030Y-92045000D01*
X155565879Y-92154233D01*
X155100332Y-92465302D01*
X154789263Y-92930849D01*
X154680030Y-93480000D01*
X154737174Y-93767280D01*
X154699594Y-93774755D01*
X154444921Y-93944921D01*
X154274755Y-94199594D01*
X154215000Y-94500000D01*
X154215000Y-97674842D01*
X150677655Y-101212187D01*
X150699970Y-101100000D01*
X150590737Y-100550849D01*
X150279668Y-100085302D01*
X149897582Y-99830000D01*
X150279668Y-99574698D01*
X150590737Y-99109151D01*
X150699970Y-98560000D01*
X150590737Y-98010849D01*
X150279668Y-97545302D01*
X149897582Y-97290000D01*
X150279668Y-97034698D01*
X150590737Y-96569151D01*
X150699970Y-96020000D01*
X150590737Y-95470849D01*
X150279668Y-95005302D01*
X149897582Y-94750000D01*
X150279668Y-94494698D01*
X150590737Y-94029151D01*
X150699970Y-93480000D01*
X150590737Y-92930849D01*
X150279668Y-92465302D01*
X149814121Y-92154233D01*
X149264970Y-92045000D01*
X148495030Y-92045000D01*
X142428110Y-92045000D01*
X142428110Y-91203646D01*
X142322446Y-90672439D01*
X142021542Y-90222104D01*
X141571207Y-89921200D01*
X141040000Y-89815536D01*
X140759410Y-89871349D01*
X140725245Y-89699594D01*
X140555079Y-89444921D01*
X140300406Y-89274755D01*
X140000000Y-89215000D01*
X137825157Y-89215000D01*
X135078701Y-86468544D01*
X135353489Y-86413885D01*
X135839670Y-86089029D01*
X136050000Y-85774248D01*
X136260330Y-86089029D01*
X136746511Y-86413885D01*
X137320000Y-86527959D01*
X137893489Y-86413885D01*
X138379670Y-86089029D01*
X138590000Y-85774248D01*
X138800330Y-86089029D01*
X139286511Y-86413885D01*
X139860000Y-86527959D01*
X140433489Y-86413885D01*
X140919670Y-86089029D01*
X141130000Y-85774248D01*
X141340330Y-86089029D01*
X141826511Y-86413885D01*
X142400000Y-86527959D01*
X142973489Y-86413885D01*
X143459670Y-86089029D01*
X143670000Y-85774248D01*
X143880330Y-86089029D01*
X144366511Y-86413885D01*
X144940000Y-86527959D01*
X145513489Y-86413885D01*
X145999670Y-86089029D01*
X146210000Y-85774248D01*
X146420330Y-86089029D01*
X146906511Y-86413885D01*
X147480000Y-86527959D01*
X148053489Y-86413885D01*
X148539670Y-86089029D01*
X148750000Y-85774248D01*
X148960330Y-86089029D01*
X149446511Y-86413885D01*
X150020000Y-86527959D01*
X150593489Y-86413885D01*
X151079670Y-86089029D01*
X151290000Y-85774248D01*
X151500330Y-86089029D01*
X151986511Y-86413885D01*
X152560000Y-86527959D01*
X153133489Y-86413885D01*
X153619670Y-86089029D01*
X153830000Y-85774248D01*
X154040330Y-86089029D01*
X154526511Y-86413885D01*
X155100000Y-86527959D01*
X155673489Y-86413885D01*
X156159670Y-86089029D01*
X156370000Y-85774248D01*
X156580330Y-86089029D01*
X157066511Y-86413885D01*
X157640000Y-86527959D01*
X158213489Y-86413885D01*
X158699670Y-86089029D01*
X158910000Y-85774248D01*
X159120330Y-86089029D01*
X159606511Y-86413885D01*
X160180000Y-86527959D01*
X160753489Y-86413885D01*
X161239670Y-86089029D01*
X161450000Y-85774248D01*
X161660330Y-86089029D01*
X162146511Y-86413885D01*
X162720000Y-86527959D01*
X163293489Y-86413885D01*
X163779670Y-86089029D01*
X163990000Y-85774248D01*
X164200330Y-86089029D01*
X164686511Y-86413885D01*
X165260000Y-86527959D01*
X165833489Y-86413885D01*
X166319670Y-86089029D01*
X166644526Y-85602848D01*
X166739181Y-85126985D01*
X166916600Y-85556372D01*
G36*
X149007000Y-111133000D02*
X149027000Y-111133000D01*
X149027000Y-111387000D01*
X149007000Y-111387000D01*
X149007000Y-111407000D01*
X148753000Y-111407000D01*
X148753000Y-111387000D01*
X148733000Y-111387000D01*
X148733000Y-111133000D01*
X148753000Y-111133000D01*
X148753000Y-111113000D01*
X149007000Y-111113000D01*
X149007000Y-111133000D01*
X149007000Y-111133000D01*
G37*
X149007000Y-111133000D02*
X149027000Y-111133000D01*
X149027000Y-111387000D01*
X149007000Y-111387000D01*
X149007000Y-111407000D01*
X148753000Y-111407000D01*
X148753000Y-111387000D01*
X148733000Y-111387000D01*
X148733000Y-111133000D01*
X148753000Y-111133000D01*
X148753000Y-111113000D01*
X149007000Y-111113000D01*
X149007000Y-111133000D01*
M02*
