G04 #@! TF.FileFunction,Copper,L2,Bot,Signal*
%FSLAX46Y46*%
G04 Gerber Fmt 4.6, Leading zero omitted, Abs format (unit mm)*
G04 Created by KiCad (PCBNEW (2015-06-30 BZR 5847, Git 785638a)-product) date 2015/07/09 22:16:44*
%MOMM*%
G01*
G04 APERTURE LIST*
%ADD10C,0.100000*%
%ADD11R,1.400000X1.400000*%
%ADD12C,1.400000*%
%ADD13O,2.300000X1.600000*%
%ADD14O,3.962400X1.981200*%
%ADD15R,2.032000X1.727200*%
%ADD16O,2.032000X1.727200*%
%ADD17R,1.727200X2.032000*%
%ADD18O,1.727200X2.032000*%
%ADD19O,1.506220X3.014980*%
%ADD20R,1.727200X1.727200*%
%ADD21O,1.727200X1.727200*%
%ADD22O,2.540000X2.032000*%
%ADD23C,1.998980*%
%ADD24C,1.501140*%
%ADD25C,6.000000*%
%ADD26C,0.600000*%
%ADD27C,0.300000*%
%ADD28C,0.254000*%
G04 APERTURE END LIST*
D10*
D11*
X116000000Y-103000000D03*
D12*
X116000000Y-108000000D03*
D11*
X170000000Y-109500000D03*
D12*
X170000000Y-114500000D03*
D11*
X170000000Y-98500000D03*
D12*
X170000000Y-103500000D03*
D13*
X156500000Y-126500000D03*
X156500000Y-123960000D03*
X156500000Y-121420000D03*
X156500000Y-118880000D03*
X156500000Y-116340000D03*
X156500000Y-113800000D03*
X156500000Y-111260000D03*
X156500000Y-108720000D03*
X156500000Y-106180000D03*
X156500000Y-103640000D03*
X156500000Y-101100000D03*
X156500000Y-98560000D03*
X156500000Y-96020000D03*
X156500000Y-93480000D03*
X148880000Y-93480000D03*
X148880000Y-96020000D03*
X148880000Y-98560000D03*
X148880000Y-101100000D03*
X148880000Y-103640000D03*
X148880000Y-106180000D03*
X148880000Y-108720000D03*
X148880000Y-111260000D03*
X148880000Y-113800000D03*
X148880000Y-116340000D03*
X148880000Y-118880000D03*
X148880000Y-121420000D03*
X148880000Y-123960000D03*
X148880000Y-126500000D03*
D14*
X114500000Y-125000000D03*
X114500000Y-120000000D03*
D15*
X164000000Y-126500000D03*
D16*
X164000000Y-123960000D03*
X164000000Y-121420000D03*
X164000000Y-118880000D03*
D17*
X117500000Y-93500000D03*
D18*
X120040000Y-93500000D03*
X122580000Y-93500000D03*
X125120000Y-93500000D03*
D19*
X135960000Y-92000000D03*
X138500000Y-92000000D03*
X141040000Y-92000000D03*
D20*
X117000000Y-85000000D03*
D21*
X117000000Y-82460000D03*
X119540000Y-85000000D03*
X119540000Y-82460000D03*
X122080000Y-85000000D03*
X122080000Y-82460000D03*
X124620000Y-85000000D03*
X124620000Y-82460000D03*
X127160000Y-85000000D03*
X127160000Y-82460000D03*
X129700000Y-85000000D03*
X129700000Y-82460000D03*
X132240000Y-85000000D03*
X132240000Y-82460000D03*
X134780000Y-85000000D03*
X134780000Y-82460000D03*
X137320000Y-85000000D03*
X137320000Y-82460000D03*
X139860000Y-85000000D03*
X139860000Y-82460000D03*
X142400000Y-85000000D03*
X142400000Y-82460000D03*
X144940000Y-85000000D03*
X144940000Y-82460000D03*
X147480000Y-85000000D03*
X147480000Y-82460000D03*
X150020000Y-85000000D03*
X150020000Y-82460000D03*
X152560000Y-85000000D03*
X152560000Y-82460000D03*
X155100000Y-85000000D03*
X155100000Y-82460000D03*
X157640000Y-85000000D03*
X157640000Y-82460000D03*
X160180000Y-85000000D03*
X160180000Y-82460000D03*
X162720000Y-85000000D03*
X162720000Y-82460000D03*
X165260000Y-85000000D03*
X165260000Y-82460000D03*
D22*
X130500000Y-123000000D03*
X130500000Y-125540000D03*
X130500000Y-120460000D03*
D23*
X149920000Y-133500000D03*
X160080000Y-133500000D03*
X137000000Y-110580000D03*
X137000000Y-100420000D03*
X132500000Y-100420000D03*
X132500000Y-110580000D03*
X122500000Y-110580000D03*
X122500000Y-100420000D03*
X127500000Y-110580000D03*
X127500000Y-100420000D03*
D19*
X141770000Y-131500000D03*
X139230000Y-131500000D03*
D24*
X163000000Y-107940940D03*
X163000000Y-103059060D03*
D25*
X112000000Y-132500000D03*
X170000000Y-132500000D03*
X112000000Y-83500000D03*
X170000000Y-83500000D03*
D26*
X151500000Y-111000000D03*
X166000000Y-111000000D03*
X151500000Y-127000000D03*
X134500000Y-116500000D03*
X130500000Y-88000000D03*
D27*
X148880000Y-106180000D02*
X149000000Y-106000000D01*
X149000000Y-106000000D02*
X148000000Y-105000000D01*
X148000000Y-105000000D02*
X147000000Y-105000000D01*
X147000000Y-105000000D02*
X145000000Y-103000000D01*
X145000000Y-103000000D02*
X116000000Y-103000000D01*
X156500000Y-111260000D02*
X156500000Y-111500000D01*
X156500000Y-111500000D02*
X156000000Y-111000000D01*
X156000000Y-111000000D02*
X151500000Y-111000000D01*
X117000000Y-82460000D02*
X117000000Y-82500000D01*
X117000000Y-82500000D02*
X119500000Y-82500000D01*
X119500000Y-82500000D02*
X119540000Y-82460000D01*
X130500000Y-125540000D02*
X130500000Y-125500000D01*
X130500000Y-125500000D02*
X136500000Y-131500000D01*
X136500000Y-131500000D02*
X139230000Y-131500000D01*
X132500000Y-110580000D02*
X132500000Y-110500000D01*
X132500000Y-110500000D02*
X134000000Y-112000000D01*
X134000000Y-112000000D02*
X138000000Y-112000000D01*
X138000000Y-112000000D02*
X138500000Y-111500000D01*
X138500000Y-111500000D02*
X149000000Y-111500000D01*
X149000000Y-111500000D02*
X148880000Y-111260000D01*
X148880000Y-111260000D02*
X149000000Y-111500000D01*
X149000000Y-111500000D02*
X152000000Y-108500000D01*
X152000000Y-108500000D02*
X156500000Y-108500000D01*
X156500000Y-108500000D02*
X156500000Y-108720000D01*
X114500000Y-125000000D02*
X115000000Y-125500000D01*
X115000000Y-125500000D02*
X130500000Y-125500000D01*
X130500000Y-125500000D02*
X130500000Y-125540000D01*
X156500000Y-108720000D02*
X156500000Y-108500000D01*
X156500000Y-108500000D02*
X157500000Y-109500000D01*
X157500000Y-109500000D02*
X170000000Y-109500000D01*
X166000000Y-111000000D02*
X169500000Y-114500000D01*
X169500000Y-114500000D02*
X170000000Y-114500000D01*
X156500000Y-106180000D02*
X156500000Y-106000000D01*
X156500000Y-106000000D02*
X158500000Y-108000000D01*
X158500000Y-108000000D02*
X163000000Y-108000000D01*
X163000000Y-108000000D02*
X163000000Y-107940940D01*
X163000000Y-103059060D02*
X163000000Y-103000000D01*
X163000000Y-103000000D02*
X163500000Y-103500000D01*
X163500000Y-103500000D02*
X170000000Y-103500000D01*
X163000000Y-103059060D02*
X163000000Y-103000000D01*
X163000000Y-103000000D02*
X162500000Y-103500000D01*
X162500000Y-103500000D02*
X156500000Y-103500000D01*
X156500000Y-103500000D02*
X156500000Y-103640000D01*
X156500000Y-126500000D02*
X164000000Y-126500000D01*
X156500000Y-123960000D02*
X156500000Y-124000000D01*
X156500000Y-124000000D02*
X164000000Y-124000000D01*
X164000000Y-124000000D02*
X164000000Y-123960000D01*
X156500000Y-121420000D02*
X156500000Y-121500000D01*
X156500000Y-121500000D02*
X164000000Y-121500000D01*
X164000000Y-121500000D02*
X164000000Y-121420000D01*
X151500000Y-127000000D02*
X147000000Y-131500000D01*
X147000000Y-131500000D02*
X141770000Y-131500000D01*
X130500000Y-120460000D02*
X130500000Y-120500000D01*
X130500000Y-120500000D02*
X134500000Y-116500000D01*
X122500000Y-110580000D02*
X122500000Y-110500000D01*
X122500000Y-110500000D02*
X127500000Y-110500000D01*
X127500000Y-110500000D02*
X127500000Y-110580000D01*
X147480000Y-85000000D02*
X147500000Y-85000000D01*
X147500000Y-85000000D02*
X146500000Y-86000000D01*
X146500000Y-86000000D02*
X146500000Y-86500000D01*
X146500000Y-86500000D02*
X128500000Y-86500000D01*
X128500000Y-86500000D02*
X127000000Y-85000000D01*
X127000000Y-85000000D02*
X127160000Y-85000000D01*
X165260000Y-85000000D02*
X165500000Y-85000000D01*
X165500000Y-85000000D02*
X164000000Y-86500000D01*
X164000000Y-86500000D02*
X148500000Y-86500000D01*
X148500000Y-86500000D02*
X148500000Y-86000000D01*
X148500000Y-86000000D02*
X147500000Y-85000000D01*
X147500000Y-85000000D02*
X147480000Y-85000000D01*
X135960000Y-92000000D02*
X136000000Y-92000000D01*
X136000000Y-92000000D02*
X132000000Y-88000000D01*
X132000000Y-88000000D02*
X130500000Y-88000000D01*
X152560000Y-82460000D02*
X152500000Y-82500000D01*
X152500000Y-82500000D02*
X151500000Y-81500000D01*
X151500000Y-81500000D02*
X151500000Y-81000000D01*
X151500000Y-81000000D02*
X141000000Y-81000000D01*
X141000000Y-81000000D02*
X141000000Y-81500000D01*
X141000000Y-81500000D02*
X140000000Y-82500000D01*
X140000000Y-82500000D02*
X139860000Y-82460000D01*
X132240000Y-82460000D02*
X132000000Y-82500000D01*
X132000000Y-82500000D02*
X131000000Y-81500000D01*
X131000000Y-81500000D02*
X131000000Y-81000000D01*
X131000000Y-81000000D02*
X123000000Y-81000000D01*
X123000000Y-81000000D02*
X123000000Y-81500000D01*
X123000000Y-81500000D02*
X122000000Y-82500000D01*
X122000000Y-82500000D02*
X122080000Y-82460000D01*
X139860000Y-82460000D02*
X140000000Y-82500000D01*
X140000000Y-82500000D02*
X139000000Y-81500000D01*
X139000000Y-81500000D02*
X139000000Y-81000000D01*
X139000000Y-81000000D02*
X133500000Y-81000000D01*
X133500000Y-81000000D02*
X132000000Y-82500000D01*
X132000000Y-82500000D02*
X132240000Y-82460000D01*
X152560000Y-82460000D02*
X152500000Y-82500000D01*
X152500000Y-82500000D02*
X153500000Y-81500000D01*
X153500000Y-81500000D02*
X153500000Y-81000000D01*
X153500000Y-81000000D02*
X156500000Y-81000000D01*
X156500000Y-81000000D02*
X156500000Y-81500000D01*
X156500000Y-81500000D02*
X157500000Y-82500000D01*
X157500000Y-82500000D02*
X157640000Y-82460000D01*
X132500000Y-100420000D02*
X132500000Y-100500000D01*
X132500000Y-100500000D02*
X137000000Y-100500000D01*
X137000000Y-100500000D02*
X137000000Y-100420000D01*
D28*
G36*
X115488960Y-85863600D02*
X115535937Y-86105723D01*
X115675727Y-86318527D01*
X115886760Y-86460977D01*
X116136400Y-86511040D01*
X117863600Y-86511040D01*
X118105723Y-86464063D01*
X118318527Y-86324273D01*
X118460977Y-86113240D01*
X118469179Y-86072340D01*
X118480330Y-86089029D01*
X118966511Y-86413885D01*
X119540000Y-86527959D01*
X120113489Y-86413885D01*
X120599670Y-86089029D01*
X120810000Y-85774248D01*
X121020330Y-86089029D01*
X121506511Y-86413885D01*
X122080000Y-86527959D01*
X122653489Y-86413885D01*
X123139670Y-86089029D01*
X123350000Y-85774248D01*
X123560330Y-86089029D01*
X124046511Y-86413885D01*
X124620000Y-86527959D01*
X125193489Y-86413885D01*
X125679670Y-86089029D01*
X125890000Y-85774248D01*
X126100330Y-86089029D01*
X126586511Y-86413885D01*
X127160000Y-86527959D01*
X127375029Y-86485187D01*
X127944921Y-87055079D01*
X128199593Y-87225245D01*
X128500000Y-87285000D01*
X129892804Y-87285000D01*
X129707808Y-87469673D01*
X129565162Y-87813201D01*
X129564838Y-88185167D01*
X129706883Y-88528943D01*
X129969673Y-88792192D01*
X130313201Y-88934838D01*
X130685167Y-88935162D01*
X131028943Y-88793117D01*
X131037074Y-88785000D01*
X131674842Y-88785000D01*
X134571890Y-91682048D01*
X134571890Y-92796354D01*
X134677554Y-93327561D01*
X134978458Y-93777896D01*
X135428793Y-94078800D01*
X135960000Y-94184464D01*
X136491207Y-94078800D01*
X136941542Y-93777896D01*
X137230000Y-93346188D01*
X137518458Y-93777896D01*
X137968793Y-94078800D01*
X138500000Y-94184464D01*
X139031207Y-94078800D01*
X139481542Y-93777896D01*
X139770000Y-93346188D01*
X140058458Y-93777896D01*
X140508793Y-94078800D01*
X141040000Y-94184464D01*
X141571207Y-94078800D01*
X142021542Y-93777896D01*
X142322446Y-93327561D01*
X142428110Y-92796354D01*
X142428110Y-91203646D01*
X142322446Y-90672439D01*
X142021542Y-90222104D01*
X141571207Y-89921200D01*
X141040000Y-89815536D01*
X140508793Y-89921200D01*
X140058458Y-90222104D01*
X139770000Y-90653812D01*
X139481542Y-90222104D01*
X139031207Y-89921200D01*
X138500000Y-89815536D01*
X137968793Y-89921200D01*
X137518458Y-90222104D01*
X137230000Y-90653812D01*
X136941542Y-90222104D01*
X136491207Y-89921200D01*
X135960000Y-89815536D01*
X135428793Y-89921200D01*
X135190548Y-90080390D01*
X132555079Y-87444921D01*
X132315740Y-87285000D01*
X146500000Y-87285000D01*
X146800406Y-87225245D01*
X147055079Y-87055079D01*
X147225245Y-86800406D01*
X147285000Y-86500000D01*
X147285000Y-86489171D01*
X147480000Y-86527959D01*
X147715000Y-86481215D01*
X147715000Y-86500000D01*
X147774755Y-86800406D01*
X147944921Y-87055079D01*
X148199594Y-87225245D01*
X148500000Y-87285000D01*
X164000000Y-87285000D01*
X164300407Y-87225245D01*
X164555079Y-87055079D01*
X165111698Y-86498460D01*
X165260000Y-86527959D01*
X165833489Y-86413885D01*
X166319670Y-86089029D01*
X166644526Y-85602848D01*
X166739181Y-85126985D01*
X166916600Y-85556372D01*
X167938249Y-86579806D01*
X169273782Y-87134368D01*
X170719874Y-87135630D01*
X172056372Y-86583400D01*
X172815000Y-85826095D01*
X172815000Y-130174759D01*
X172061751Y-129420194D01*
X170726218Y-128865632D01*
X169280126Y-128864370D01*
X167943628Y-129416600D01*
X166920194Y-130438249D01*
X166365632Y-131773782D01*
X166364370Y-133219874D01*
X166916600Y-134556372D01*
X167673905Y-135315000D01*
X114325241Y-135315000D01*
X115079806Y-134561751D01*
X115386274Y-133823694D01*
X148285226Y-133823694D01*
X148533538Y-134424655D01*
X148992927Y-134884846D01*
X149593453Y-135134206D01*
X150243694Y-135134774D01*
X150844655Y-134886462D01*
X151304846Y-134427073D01*
X151554206Y-133826547D01*
X151554774Y-133176306D01*
X151306462Y-132575345D01*
X150847073Y-132115154D01*
X150843182Y-132113538D01*
X159155345Y-132113538D01*
X150843182Y-132113538D01*
X150843182Y-132113538D01*
X159155345Y-132113538D01*
X158695154Y-132572927D01*
X158445794Y-133173453D01*
X158445226Y-133823694D01*
X158693538Y-134424655D01*
X159152927Y-134884846D01*
X159753453Y-135134206D01*
X160403694Y-135134774D01*
X161004655Y-134886462D01*
X161464846Y-134427073D01*
X161714206Y-133826547D01*
X161714774Y-133176306D01*
X161466462Y-132575345D01*
X161007073Y-132115154D01*
X160406547Y-131865794D01*
X159756306Y-131865226D01*
X159155345Y-132113538D01*
X150843182Y-132113538D01*
X150246547Y-131865794D01*
X149596306Y-131865226D01*
X148995345Y-132113538D01*
X147467588Y-132113538D01*
X147555079Y-132055079D01*
X151675005Y-127935153D01*
X151685167Y-127935162D01*
X152028943Y-127793117D01*
X152292192Y-127530327D01*
X152434838Y-127186799D01*
X152435162Y-126814833D01*
X152293117Y-126471057D01*
X152030327Y-126207808D01*
X151686799Y-126065162D01*
X151314833Y-126064838D01*
X150971057Y-126206883D01*
X150707808Y-126469673D01*
X150698430Y-126492258D01*
X150590737Y-125950849D01*
X150279668Y-125485302D01*
X149897582Y-125230000D01*
X150279668Y-124974698D01*
X150590737Y-124509151D01*
X150699970Y-123960000D01*
X150590737Y-123410849D01*
X150279668Y-122945302D01*
X149897582Y-122690000D01*
X150279668Y-122434698D01*
X150590737Y-121969151D01*
X150699970Y-121420000D01*
X150590737Y-120870849D01*
X150279668Y-120405302D01*
X149897582Y-120150000D01*
X150279668Y-119894698D01*
X150590737Y-119429151D01*
X150699970Y-118880000D01*
X150590737Y-118330849D01*
X150279668Y-117865302D01*
X149897582Y-117610000D01*
X150279668Y-117354698D01*
X150590737Y-116889151D01*
X150699970Y-116340000D01*
X150590737Y-115790849D01*
X150279668Y-115325302D01*
X149897582Y-115070000D01*
X150279668Y-114814698D01*
X150590737Y-114349151D01*
X150699970Y-113800000D01*
X150590737Y-113250849D01*
X150279668Y-112785302D01*
X149901849Y-112532851D01*
X150334500Y-112184896D01*
X150604367Y-111691819D01*
X150621904Y-111609039D01*
X150499916Y-111387002D01*
X150648234Y-111387002D01*
X150706883Y-111528943D01*
X150969673Y-111792192D01*
X151313201Y-111934838D01*
X151685167Y-111935162D01*
X152028943Y-111793117D01*
X152037074Y-111785000D01*
X154784459Y-111785000D01*
X154789263Y-111809151D01*
X155100332Y-112274698D01*
X155482418Y-112530000D01*
X155100332Y-112785302D01*
X154789263Y-113250849D01*
X154680030Y-113800000D01*
X154789263Y-114349151D01*
X155100332Y-114814698D01*
X155482418Y-115070000D01*
X155100332Y-115325302D01*
X154789263Y-115790849D01*
X154680030Y-116340000D01*
X154789263Y-116889151D01*
X155100332Y-117354698D01*
X155482418Y-117610000D01*
X155100332Y-117865302D01*
X154789263Y-118330849D01*
X154680030Y-118880000D01*
X154789263Y-119429151D01*
X155100332Y-119894698D01*
X155482418Y-120150000D01*
X155100332Y-120405302D01*
X154789263Y-120870849D01*
X154680030Y-121420000D01*
X154789263Y-121969151D01*
X155100332Y-122434698D01*
X155482418Y-122690000D01*
X155100332Y-122945302D01*
X154789263Y-123410849D01*
X154680030Y-123960000D01*
X154789263Y-124509151D01*
X155100332Y-124974698D01*
X155482418Y-125230000D01*
X155100332Y-125485302D01*
X154789263Y-125950849D01*
X154680030Y-126500000D01*
X154789263Y-127049151D01*
X155100332Y-127514698D01*
X155565879Y-127825767D01*
X156115030Y-127935000D01*
X156884970Y-127935000D01*
X157434121Y-127825767D01*
X157899668Y-127514698D01*
X158053148Y-127285000D01*
X162336560Y-127285000D01*
X162336560Y-127363600D01*
X162383537Y-127605723D01*
X162523327Y-127818527D01*
X162734360Y-127960977D01*
X162984000Y-128011040D01*
X165016000Y-128011040D01*
X165258123Y-127964063D01*
X165470927Y-127824273D01*
X165613377Y-127613240D01*
X165663440Y-127363600D01*
X165663440Y-125636400D01*
X165616463Y-125394277D01*
X165476673Y-125181473D01*
X165265640Y-125039023D01*
X165227037Y-125031282D01*
X165244415Y-125019670D01*
X165569271Y-124533489D01*
X165683345Y-123960000D01*
X165569271Y-123386511D01*
X165244415Y-122900330D01*
X164929634Y-122690000D01*
X165244415Y-122479670D01*
X165569271Y-121993489D01*
X165683345Y-121420000D01*
X165569271Y-120846511D01*
X165244415Y-120360330D01*
X164934931Y-120153539D01*
X165350732Y-119782036D01*
X165604709Y-119254791D01*
X165607358Y-119239026D01*
X165486217Y-119007000D01*
X164127000Y-119007000D01*
X164127000Y-119027000D01*
X163873000Y-119027000D01*
X163873000Y-119007000D01*
X162513783Y-119007000D01*
X162392642Y-119239026D01*
X162395291Y-119254791D01*
X162649268Y-119782036D01*
X163065069Y-120153539D01*
X162755585Y-120360330D01*
X162518602Y-120715000D01*
X158106602Y-120715000D01*
X157899668Y-120405302D01*
X157517582Y-120150000D01*
X157899668Y-119894698D01*
X158210737Y-119429151D01*
X158319970Y-118880000D01*
X158210737Y-118330849D01*
X157899668Y-117865302D01*
X157517582Y-117610000D01*
X157550438Y-117588046D01*
X163085680Y-117588046D01*
X162649268Y-117977964D01*
X162395291Y-118505209D01*
X162392642Y-118520974D01*
X162513783Y-118753000D01*
X163873000Y-118753000D01*
X163873000Y-117539076D01*
X164127000Y-117539076D01*
X163873000Y-117539076D01*
X163873000Y-117539076D01*
X164127000Y-117539076D01*
X164127000Y-118753000D01*
X165486217Y-118753000D01*
X165607358Y-118520974D01*
X165604709Y-118505209D01*
X165350732Y-117977964D01*
X164914320Y-117588046D01*
X164361913Y-117394816D01*
X164127000Y-117539076D01*
X163873000Y-117539076D01*
X163873000Y-117539076D01*
X163638087Y-117394816D01*
X163085680Y-117588046D01*
X157550438Y-117588046D01*
X157899668Y-117354698D01*
X158210737Y-116889151D01*
X158319970Y-116340000D01*
X158210737Y-115790849D01*
X157899668Y-115325302D01*
X157517582Y-115070000D01*
X157899668Y-114814698D01*
X158210737Y-114349151D01*
X158319970Y-113800000D01*
X158210737Y-113250849D01*
X157899668Y-112785302D01*
X157517582Y-112530000D01*
X157899668Y-112274698D01*
X158210737Y-111809151D01*
X158319970Y-111260000D01*
X158210737Y-110710849D01*
X157899668Y-110245302D01*
X157842170Y-110206883D01*
X165471057Y-110206883D01*
X165207808Y-110469673D01*
X165065162Y-110813201D01*
X165064838Y-111185167D01*
X165206883Y-111528943D01*
X165469673Y-111792192D01*
X165813201Y-111934838D01*
X165824690Y-111934848D01*
X168672193Y-114782350D01*
X168867582Y-115255229D01*
X169242796Y-115631098D01*
X169733287Y-115834768D01*
X170264383Y-115835231D01*
X170755229Y-115632418D01*
X171131098Y-115257204D01*
X171334768Y-114766713D01*
X171335231Y-114235617D01*
X171132418Y-113744771D01*
X170757204Y-113368902D01*
X170266713Y-113165232D01*
X169735617Y-113164769D01*
X169409624Y-113299466D01*
X166935153Y-110824995D01*
X166935162Y-110814833D01*
X166793117Y-110471057D01*
X166530327Y-110207808D01*
X166186799Y-110065162D01*
X165814833Y-110064838D01*
X165471057Y-110206883D01*
X157842170Y-110206883D01*
X157521849Y-109992851D01*
X157954500Y-109644896D01*
X157964294Y-109627000D01*
X168823750Y-109627000D01*
X168665000Y-109785750D01*
X168665000Y-110326309D01*
X168761673Y-110559698D01*
X168940301Y-110738327D01*
X169173690Y-110835000D01*
X169714250Y-110835000D01*
X169873000Y-110676250D01*
X169873000Y-109627000D01*
X170127000Y-109627000D01*
X170127000Y-110676250D01*
X170285750Y-110835000D01*
X170826310Y-110835000D01*
X171059699Y-110738327D01*
X171238327Y-110559698D01*
X171335000Y-110326309D01*
X171335000Y-109785750D01*
X171176250Y-109627000D01*
X170127000Y-109627000D01*
X169873000Y-109627000D01*
X169873000Y-109627000D01*
X168823750Y-109627000D01*
X157964294Y-109627000D01*
X158224367Y-109151819D01*
X158241904Y-109069039D01*
X158119916Y-108847002D01*
X158285000Y-108847002D01*
X158285000Y-108742234D01*
X158500000Y-108785000D01*
X161884804Y-108785000D01*
X162214113Y-109114884D01*
X162723184Y-109326269D01*
X163274398Y-109326750D01*
X163783837Y-109116254D01*
X164173944Y-108726827D01*
X164385329Y-108217756D01*
X164385375Y-108165000D01*
X169173690Y-108165000D01*
X168940301Y-108261673D01*
X168761673Y-108440302D01*
X168665000Y-108673691D01*
X168665000Y-109214250D01*
X168823750Y-109373000D01*
X169873000Y-109373000D01*
X169873000Y-108323750D01*
X169714250Y-108165000D01*
X170285750Y-108165000D01*
X169714250Y-108165000D01*
X169714250Y-108165000D01*
X170285750Y-108165000D01*
X170127000Y-108323750D01*
X170127000Y-109373000D01*
X171176250Y-109373000D01*
X171335000Y-109214250D01*
X171335000Y-108673691D01*
X171238327Y-108440302D01*
X171059699Y-108261673D01*
X170826310Y-108165000D01*
X170285750Y-108165000D01*
X169714250Y-108165000D01*
X169714250Y-108165000D01*
X169173690Y-108165000D01*
X164385375Y-108165000D01*
X164385810Y-107666542D01*
X164175314Y-107157103D01*
X163785887Y-106766996D01*
X163276816Y-106555611D01*
X162725602Y-106555130D01*
X162216163Y-106765626D01*
X161826056Y-107155053D01*
X161801164Y-107215000D01*
X158825158Y-107215000D01*
X158232068Y-106621910D01*
X158319970Y-106180000D01*
X158210737Y-105630849D01*
X157899668Y-105165302D01*
X157517582Y-104910000D01*
X157899668Y-104654698D01*
X158146693Y-104285000D01*
X162339333Y-104285000D01*
X162723184Y-104444389D01*
X163274398Y-104444870D01*
X163661313Y-104285000D01*
X168897301Y-104285000D01*
X169242796Y-104631098D01*
X169733287Y-104834768D01*
X170264383Y-104835231D01*
X170755229Y-104632418D01*
X171131098Y-104257204D01*
X171334768Y-103766713D01*
X171335231Y-103235617D01*
X171132418Y-102744771D01*
X170757204Y-102368902D01*
X170266713Y-102165232D01*
X169735617Y-102164769D01*
X169244771Y-102367582D01*
X168896747Y-102715000D01*
X164357026Y-102715000D01*
X164175314Y-102275223D01*
X163785887Y-101885116D01*
X163276816Y-101673731D01*
X162725602Y-101673250D01*
X162216163Y-101883746D01*
X161826056Y-102273173D01*
X161642593Y-102715000D01*
X157959602Y-102715000D01*
X157899668Y-102625302D01*
X157517582Y-102370000D01*
X157899668Y-102114698D01*
X158210737Y-101649151D01*
X158319970Y-101100000D01*
X158210737Y-100550849D01*
X157899668Y-100085302D01*
X157517582Y-99830000D01*
X157899668Y-99574698D01*
X158210737Y-99109151D01*
X158306642Y-98627000D01*
X168823750Y-98627000D01*
X168665000Y-98785750D01*
X168665000Y-99326309D01*
X168761673Y-99559698D01*
X168940301Y-99738327D01*
X169173690Y-99835000D01*
X169714250Y-99835000D01*
X169873000Y-99676250D01*
X169873000Y-98627000D01*
X170127000Y-98627000D01*
X170127000Y-99676250D01*
X170285750Y-99835000D01*
X170826310Y-99835000D01*
X171059699Y-99738327D01*
X171238327Y-99559698D01*
X171335000Y-99326309D01*
X171335000Y-98785750D01*
X171176250Y-98627000D01*
X170127000Y-98627000D01*
X169873000Y-98627000D01*
X169873000Y-98627000D01*
X168823750Y-98627000D01*
X158306642Y-98627000D01*
X158319970Y-98560000D01*
X158210737Y-98010849D01*
X157899668Y-97545302D01*
X157517582Y-97290000D01*
X157704657Y-97165000D01*
X169173690Y-97165000D01*
X168940301Y-97261673D01*
X168761673Y-97440302D01*
X168665000Y-97673691D01*
X168665000Y-98214250D01*
X168823750Y-98373000D01*
X169873000Y-98373000D01*
X169873000Y-97323750D01*
X169714250Y-97165000D01*
X170285750Y-97165000D01*
X169714250Y-97165000D01*
X169714250Y-97165000D01*
X170285750Y-97165000D01*
X170127000Y-97323750D01*
X170127000Y-98373000D01*
X171176250Y-98373000D01*
X171335000Y-98214250D01*
X171335000Y-97673691D01*
X171238327Y-97440302D01*
X171059699Y-97261673D01*
X170826310Y-97165000D01*
X170285750Y-97165000D01*
X169714250Y-97165000D01*
X169714250Y-97165000D01*
X169173690Y-97165000D01*
X157704657Y-97165000D01*
X157899668Y-97034698D01*
X158210737Y-96569151D01*
X158319970Y-96020000D01*
X158210737Y-95470849D01*
X157899668Y-95005302D01*
X157517582Y-94750000D01*
X157899668Y-94494698D01*
X158210737Y-94029151D01*
X158319970Y-93480000D01*
X158210737Y-92930849D01*
X157899668Y-92465302D01*
X157434121Y-92154233D01*
X156884970Y-92045000D01*
X156115030Y-92045000D01*
X155565879Y-92154233D01*
X155100332Y-92465302D01*
X154789263Y-92930849D01*
X154680030Y-93480000D01*
X154789263Y-94029151D01*
X155100332Y-94494698D01*
X155482418Y-94750000D01*
X155100332Y-95005302D01*
X154789263Y-95470849D01*
X154680030Y-96020000D01*
X154789263Y-96569151D01*
X155100332Y-97034698D01*
X155482418Y-97290000D01*
X155100332Y-97545302D01*
X154789263Y-98010849D01*
X154680030Y-98560000D01*
X154789263Y-99109151D01*
X155100332Y-99574698D01*
X155482418Y-99830000D01*
X155100332Y-100085302D01*
X154789263Y-100550849D01*
X154680030Y-101100000D01*
X154789263Y-101649151D01*
X155100332Y-102114698D01*
X155482418Y-102370000D01*
X155100332Y-102625302D01*
X154789263Y-103090849D01*
X154680030Y-103640000D01*
X154789263Y-104189151D01*
X155100332Y-104654698D01*
X155482418Y-104910000D01*
X155100332Y-105165302D01*
X154789263Y-105630849D01*
X154680030Y-106180000D01*
X154789263Y-106729151D01*
X155100332Y-107194698D01*
X155478151Y-107447149D01*
X155045500Y-107795104D01*
X154775633Y-108288181D01*
X154758096Y-108370961D01*
X154880085Y-108593000D01*
X156373000Y-108593000D01*
X156373000Y-108573000D01*
X156627000Y-108573000D01*
X156627000Y-108593000D01*
X156647000Y-108593000D01*
X156647000Y-108847000D01*
X156627000Y-108847000D01*
X156627000Y-108867000D01*
X156373000Y-108867000D01*
X156373000Y-108847000D01*
X154880085Y-108847000D01*
X154758096Y-109069039D01*
X154775633Y-109151819D01*
X155045500Y-109644896D01*
X155478151Y-109992851D01*
X155145682Y-110215000D01*
X152037506Y-110215000D01*
X152030327Y-110207808D01*
X151686799Y-110065162D01*
X151314833Y-110064838D01*
X150971057Y-110206883D01*
X150707808Y-110469673D01*
X150578538Y-110780988D01*
X150334500Y-110335104D01*
X149901849Y-109987149D01*
X150279668Y-109734698D01*
X150590737Y-109269151D01*
X150699970Y-108720000D01*
X150590737Y-108170849D01*
X150279668Y-107705302D01*
X149897582Y-107450000D01*
X150279668Y-107194698D01*
X150590737Y-106729151D01*
X150699970Y-106180000D01*
X150590737Y-105630849D01*
X150279668Y-105165302D01*
X149897582Y-104910000D01*
X150279668Y-104654698D01*
X150590737Y-104189151D01*
X150699970Y-103640000D01*
X150590737Y-103090849D01*
X150279668Y-102625302D01*
X149897582Y-102370000D01*
X150279668Y-102114698D01*
X150590737Y-101649151D01*
X150699970Y-101100000D01*
X150590737Y-100550849D01*
X150279668Y-100085302D01*
X149897582Y-99830000D01*
X150279668Y-99574698D01*
X150590737Y-99109151D01*
X150699970Y-98560000D01*
X150590737Y-98010849D01*
X150279668Y-97545302D01*
X149897582Y-97290000D01*
X150279668Y-97034698D01*
X150590737Y-96569151D01*
X150699970Y-96020000D01*
X150590737Y-95470849D01*
X150279668Y-95005302D01*
X149897582Y-94750000D01*
X150279668Y-94494698D01*
X150590737Y-94029151D01*
X150699970Y-93480000D01*
X150590737Y-92930849D01*
X150279668Y-92465302D01*
X149814121Y-92154233D01*
X149264970Y-92045000D01*
X148495030Y-92045000D01*
X147945879Y-92154233D01*
X147480332Y-92465302D01*
X147169263Y-92930849D01*
X147060030Y-93480000D01*
X147169263Y-94029151D01*
X147480332Y-94494698D01*
X147862418Y-94750000D01*
X147480332Y-95005302D01*
X147169263Y-95470849D01*
X147060030Y-96020000D01*
X147169263Y-96569151D01*
X147480332Y-97034698D01*
X147862418Y-97290000D01*
X147480332Y-97545302D01*
X147169263Y-98010849D01*
X147060030Y-98560000D01*
X147169263Y-99109151D01*
X147480332Y-99574698D01*
X147862418Y-99830000D01*
X147480332Y-100085302D01*
X147169263Y-100550849D01*
X147060030Y-101100000D01*
X147169263Y-101649151D01*
X147480332Y-102114698D01*
X147862418Y-102370000D01*
X147480332Y-102625302D01*
X147169263Y-103090849D01*
X147060030Y-103640000D01*
X147136972Y-104026814D01*
X145555079Y-102444921D01*
X145300407Y-102274755D01*
X145000000Y-102215000D01*
X117330948Y-102215000D01*
X117300463Y-102057877D01*
X117160673Y-101845073D01*
X116949640Y-101702623D01*
X116700000Y-101652560D01*
X115300000Y-101652560D01*
X115057877Y-101699537D01*
X114845073Y-101839327D01*
X114702623Y-102050360D01*
X114652560Y-102300000D01*
X114652560Y-103700000D01*
X114699537Y-103942123D01*
X114839327Y-104154927D01*
X115050360Y-104297377D01*
X115300000Y-104347440D01*
X116700000Y-104347440D01*
X116942123Y-104300463D01*
X117154927Y-104160673D01*
X117297377Y-103949640D01*
X117330394Y-103785000D01*
X144674842Y-103785000D01*
X146444921Y-105555079D01*
X146699593Y-105725245D01*
X147000000Y-105785000D01*
X147138600Y-105785000D01*
X147060030Y-106180000D01*
X147169263Y-106729151D01*
X147480332Y-107194698D01*
X147862418Y-107450000D01*
X147480332Y-107705302D01*
X147169263Y-108170849D01*
X147060030Y-108720000D01*
X147169263Y-109269151D01*
X147480332Y-109734698D01*
X147858151Y-109987149D01*
X147425500Y-110335104D01*
X147155633Y-110828181D01*
X147138096Y-110910961D01*
X147260085Y-111133000D01*
X148753000Y-111133000D01*
X148753000Y-111113000D01*
X149007000Y-111113000D01*
X149007000Y-111133000D01*
X149027000Y-111133000D01*
X149027000Y-111387000D01*
X149007000Y-111387000D01*
X149007000Y-111407000D01*
X148753000Y-111407000D01*
X148753000Y-111387000D01*
X147260085Y-111387000D01*
X147138096Y-111609039D01*
X147155633Y-111691819D01*
X147425500Y-112184896D01*
X147858151Y-112532851D01*
X147480332Y-112785302D01*
X147169263Y-113250849D01*
X147060030Y-113800000D01*
X147169263Y-114349151D01*
X147480332Y-114814698D01*
X147862418Y-115070000D01*
X147480332Y-115325302D01*
X147169263Y-115790849D01*
X147060030Y-116340000D01*
X147169263Y-116889151D01*
X147480332Y-117354698D01*
X147862418Y-117610000D01*
X147480332Y-117865302D01*
X147169263Y-118330849D01*
X147060030Y-118880000D01*
X147169263Y-119429151D01*
X147480332Y-119894698D01*
X147862418Y-120150000D01*
X147480332Y-120405302D01*
X147169263Y-120870849D01*
X147060030Y-121420000D01*
X147169263Y-121969151D01*
X147480332Y-122434698D01*
X147862418Y-122690000D01*
X147480332Y-122945302D01*
X147169263Y-123410849D01*
X147060030Y-123960000D01*
X147169263Y-124509151D01*
X147480332Y-124974698D01*
X147862418Y-125230000D01*
X147480332Y-125485302D01*
X147169263Y-125950849D01*
X147060030Y-126500000D01*
X147169263Y-127049151D01*
X147480332Y-127514698D01*
X147945879Y-127825767D01*
X148495030Y-127935000D01*
X149264970Y-127935000D01*
X149501988Y-127887854D01*
X146674842Y-130715000D01*
X143158110Y-130715000D01*
X143158110Y-130703646D01*
X143052446Y-130172439D01*
X142751542Y-129722104D01*
X142301207Y-129421200D01*
X141770000Y-129315536D01*
X141238793Y-129421200D01*
X140788458Y-129722104D01*
X140487554Y-130172439D01*
X140486984Y-130175306D01*
X140463846Y-130097081D01*
X140121740Y-129674276D01*
X139643875Y-129414573D01*
X139571674Y-129400217D01*
X139357000Y-129522838D01*
X139357000Y-131373000D01*
X139377000Y-131373000D01*
X139377000Y-131627000D01*
X139357000Y-131627000D01*
X139357000Y-133477162D01*
X139571674Y-133599783D01*
X139643875Y-133585427D01*
X140121740Y-133325724D01*
X140463846Y-132902919D01*
X140486984Y-132824694D01*
X140487554Y-132827561D01*
X140788458Y-133277896D01*
X141238793Y-133578800D01*
X141770000Y-133684464D01*
X142301207Y-133578800D01*
X142751542Y-133277896D01*
X143052446Y-132827561D01*
X143158110Y-132296354D01*
X143158110Y-132285000D01*
X147000000Y-132285000D01*
X147300407Y-132225245D01*
X147467588Y-132113538D01*
X148995345Y-132113538D01*
X147467588Y-132113538D01*
X147467588Y-132113538D01*
X148995345Y-132113538D01*
X148535154Y-132572927D01*
X148285794Y-133173453D01*
X148285226Y-133823694D01*
X115386274Y-133823694D01*
X115634368Y-133226218D01*
X115635630Y-131780126D01*
X115572360Y-131627000D01*
X137841890Y-131627000D01*
X137841890Y-132381380D01*
X137996154Y-132902919D01*
X138338260Y-133325724D01*
X138816125Y-133585427D01*
X138888326Y-133599783D01*
X139103000Y-133477162D01*
X139103000Y-131627000D01*
X137841890Y-131627000D01*
X115572360Y-131627000D01*
X115083400Y-130443628D01*
X114061751Y-129420194D01*
X114048215Y-129414573D01*
X138816125Y-129414573D01*
X138338260Y-129674276D01*
X137996154Y-130097081D01*
X137841890Y-130618620D01*
X137841890Y-131373000D01*
X139103000Y-131373000D01*
X139103000Y-129522838D01*
X138888326Y-129400217D01*
X138816125Y-129414573D01*
X114048215Y-129414573D01*
X112726218Y-128865632D01*
X111280126Y-128864370D01*
X109943628Y-129416600D01*
X109185000Y-130173905D01*
X109185000Y-127016724D01*
X129496857Y-127016724D01*
X130119000Y-127191000D01*
X130373000Y-127191000D01*
X130373000Y-125667000D01*
X130627000Y-125667000D01*
X130373000Y-125667000D01*
X130373000Y-125667000D01*
X130627000Y-125667000D01*
X130627000Y-127191000D01*
X130881000Y-127191000D01*
X131503143Y-127016724D01*
X132011236Y-126617630D01*
X132327926Y-126054477D01*
X132359975Y-125922944D01*
X132240836Y-125667000D01*
X130627000Y-125667000D01*
X130373000Y-125667000D01*
X130373000Y-125667000D01*
X128759164Y-125667000D01*
X116950077Y-125667000D01*
X117041060Y-125504757D01*
X117071411Y-125378959D01*
X116951942Y-125127000D01*
X114627000Y-125127000D01*
X114627000Y-126625600D01*
X115617600Y-126625600D01*
X116230023Y-126453258D01*
X116729876Y-126059670D01*
X116950077Y-125667000D01*
X128759164Y-125667000D01*
X116950077Y-125667000D01*
X116950077Y-125667000D01*
X128759164Y-125667000D01*
X128640025Y-125922944D01*
X128672074Y-126054477D01*
X128988764Y-126617630D01*
X129496857Y-127016724D01*
X109185000Y-127016724D01*
X109185000Y-125127000D01*
X112048058Y-125127000D01*
X111928589Y-125378959D01*
X111958940Y-125504757D01*
X112270124Y-126059670D01*
X112769977Y-126453258D01*
X113382400Y-126625600D01*
X114373000Y-126625600D01*
X114373000Y-125127000D01*
X112048058Y-125127000D01*
X109185000Y-125127000D01*
X109185000Y-123374400D01*
X113382400Y-123374400D01*
X112769977Y-123546742D01*
X112270124Y-123940330D01*
X111958940Y-124495243D01*
X111928589Y-124621041D01*
X112048058Y-124873000D01*
X114373000Y-124873000D01*
X114373000Y-123374400D01*
X114627000Y-123374400D01*
X114373000Y-123374400D01*
X114373000Y-123374400D01*
X114627000Y-123374400D01*
X114627000Y-124873000D01*
X116951942Y-124873000D01*
X117071411Y-124621041D01*
X117041060Y-124495243D01*
X116729876Y-123940330D01*
X116230023Y-123546742D01*
X115617600Y-123374400D01*
X114627000Y-123374400D01*
X114373000Y-123374400D01*
X114373000Y-123374400D01*
X113382400Y-123374400D01*
X109185000Y-123374400D01*
X109185000Y-118374400D01*
X113458146Y-118374400D01*
X112836056Y-118498141D01*
X112308673Y-118850527D01*
X111956287Y-119377910D01*
X111832546Y-120000000D01*
X111956287Y-120622090D01*
X112308673Y-121149473D01*
X112836056Y-121501859D01*
X113458146Y-121625600D01*
X115541854Y-121625600D01*
X116163944Y-121501859D01*
X116691327Y-121149473D01*
X117043713Y-120622090D01*
X117167454Y-120000000D01*
X117043713Y-119377910D01*
X116691327Y-118850527D01*
X116163944Y-118498141D01*
X115541854Y-118374400D01*
X113458146Y-118374400D01*
X109185000Y-118374400D01*
X109185000Y-115706883D01*
X133971057Y-115706883D01*
X133707808Y-115969673D01*
X133565162Y-116313201D01*
X133565152Y-116324690D01*
X131032807Y-118857035D01*
X130791321Y-118809000D01*
X130208679Y-118809000D01*
X129576869Y-118934675D01*
X129041246Y-119292567D01*
X128683354Y-119828190D01*
X128557679Y-120460000D01*
X128683354Y-121091810D01*
X129041246Y-121627433D01*
X129194748Y-121730000D01*
X129041246Y-121832567D01*
X128683354Y-122368190D01*
X128557679Y-123000000D01*
X128683354Y-123631810D01*
X129041246Y-124167433D01*
X129215781Y-124284054D01*
X128988764Y-124462370D01*
X128672074Y-125025523D01*
X128640025Y-125157056D01*
X128759164Y-125413000D01*
X130373000Y-125413000D01*
X130373000Y-125393000D01*
X130627000Y-125393000D01*
X130627000Y-125413000D01*
X132240836Y-125413000D01*
X132359975Y-125157056D01*
X132327926Y-125025523D01*
X132011236Y-124462370D01*
X131784219Y-124284054D01*
X131958754Y-124167433D01*
X132316646Y-123631810D01*
X132442321Y-123000000D01*
X132316646Y-122368190D01*
X131958754Y-121832567D01*
X131805252Y-121730000D01*
X131958754Y-121627433D01*
X132316646Y-121091810D01*
X132442321Y-120460000D01*
X132316646Y-119828190D01*
X132302756Y-119807402D01*
X134675005Y-117435153D01*
X134685167Y-117435162D01*
X135028943Y-117293117D01*
X135292192Y-117030327D01*
X135434838Y-116686799D01*
X135435162Y-116314833D01*
X135293117Y-115971057D01*
X135030327Y-115707808D01*
X134686799Y-115565162D01*
X134314833Y-115564838D01*
X133971057Y-115706883D01*
X109185000Y-115706883D01*
X109185000Y-112225401D01*
X132235582Y-112225401D01*
X132885377Y-112201341D01*
X133373958Y-111998965D01*
X133386566Y-111964846D01*
X136072927Y-111964846D01*
X136673453Y-112214206D01*
X137323694Y-112214774D01*
X137924655Y-111966462D01*
X138384846Y-111507073D01*
X138634206Y-110906547D01*
X138634774Y-110256306D01*
X138386462Y-109655345D01*
X137927073Y-109195154D01*
X137326547Y-108945794D01*
X136676306Y-108945226D01*
X136075345Y-109193538D01*
X133385970Y-109193538D01*
X133373958Y-109161035D01*
X132764418Y-108934599D01*
X132114623Y-108958659D01*
X131626042Y-109161035D01*
X131527443Y-109427837D01*
X132500000Y-110400395D01*
X133472557Y-109427837D01*
X133385970Y-109193538D01*
X136075345Y-109193538D01*
X133385970Y-109193538D01*
X133385970Y-109193538D01*
X136075345Y-109193538D01*
X135615154Y-109652927D01*
X133775240Y-109652927D01*
X133652163Y-109607443D01*
X132679605Y-110580000D01*
X133652163Y-111552557D01*
X133918965Y-111453958D01*
X134145401Y-110844418D01*
X134121341Y-110194623D01*
X133918965Y-109706042D01*
X133775240Y-109652927D01*
X135615154Y-109652927D01*
X133775240Y-109652927D01*
X133775240Y-109652927D01*
X135615154Y-109652927D01*
X135365794Y-110253453D01*
X135365226Y-110903694D01*
X135613538Y-111504655D01*
X136072927Y-111964846D01*
X133386566Y-111964846D01*
X133472557Y-111732163D01*
X132500000Y-110759605D01*
X131527443Y-111732163D01*
X128659363Y-111732163D01*
X128884846Y-111507073D01*
X129134206Y-110906547D01*
X129134774Y-110256306D01*
X128907410Y-109706042D01*
X131081035Y-109706042D01*
X130854599Y-110315582D01*
X130878659Y-110965377D01*
X131081035Y-111453958D01*
X131347837Y-111552557D01*
X132320395Y-110580000D01*
X131347837Y-109607443D01*
X131081035Y-109706042D01*
X128907410Y-109706042D01*
X128886462Y-109655345D01*
X128427073Y-109195154D01*
X127826547Y-108945794D01*
X127176306Y-108945226D01*
X126575345Y-109193538D01*
X126115154Y-109652927D01*
X126089379Y-109715000D01*
X123911111Y-109715000D01*
X123886462Y-109655345D01*
X123427073Y-109195154D01*
X122826547Y-108945794D01*
X122176306Y-108945226D01*
X121575345Y-109193538D01*
X121115154Y-109652927D01*
X120865794Y-110253453D01*
X120865226Y-110903694D01*
X121113538Y-111504655D01*
X121572927Y-111964846D01*
X122173453Y-112214206D01*
X122823694Y-112214774D01*
X123424655Y-111966462D01*
X123884846Y-111507073D01*
X123977059Y-111285000D01*
X126022778Y-111285000D01*
X126113538Y-111504655D01*
X126572927Y-111964846D01*
X127173453Y-112214206D01*
X127823694Y-112214774D01*
X128424655Y-111966462D01*
X128659363Y-111732163D01*
X131527443Y-111732163D01*
X128659363Y-111732163D01*
X128659363Y-111732163D01*
X131527443Y-111732163D01*
X131626042Y-111998965D01*
X132235582Y-112225401D01*
X109185000Y-112225401D01*
X109185000Y-108935275D01*
X115244331Y-108935275D01*
X115306169Y-109171042D01*
X115807122Y-109347419D01*
X116337440Y-109318664D01*
X116693831Y-109171042D01*
X116755669Y-108935275D01*
X116576064Y-108755669D01*
X116935275Y-108755669D01*
X117171042Y-108693831D01*
X117347419Y-108192878D01*
X117318664Y-107662560D01*
X117171042Y-107306169D01*
X116935275Y-107244331D01*
X116179605Y-108000000D01*
X115820395Y-108000000D01*
X115820395Y-108000000D01*
X115064725Y-107244331D01*
X114828958Y-107306169D01*
X114652581Y-107807122D01*
X114681336Y-108337440D01*
X114828958Y-108693831D01*
X115064725Y-108755669D01*
X115820395Y-108000000D01*
X116179605Y-108000000D01*
X115820395Y-108000000D01*
X115820395Y-108000000D01*
X116179605Y-108000000D01*
X116935275Y-108755669D01*
X116576064Y-108755669D01*
X116000000Y-108179605D01*
X115244331Y-108935275D01*
X109185000Y-108935275D01*
X109185000Y-106681336D01*
X115662560Y-106681336D01*
X115306169Y-106828958D01*
X115244331Y-107064725D01*
X116000000Y-107820395D01*
X116755669Y-107064725D01*
X116693831Y-106828958D01*
X116192878Y-106652581D01*
X115662560Y-106681336D01*
X109185000Y-106681336D01*
X109185000Y-99033538D01*
X121575345Y-99033538D01*
X121115154Y-99492927D01*
X120865794Y-100093453D01*
X120865226Y-100743694D01*
X121113538Y-101344655D01*
X121572927Y-101804846D01*
X122173453Y-102054206D01*
X122823694Y-102054774D01*
X123424655Y-101806462D01*
X123884846Y-101347073D01*
X124134206Y-100746547D01*
X124134774Y-100096306D01*
X123886462Y-99495345D01*
X123427073Y-99035154D01*
X123423182Y-99033538D01*
X126575345Y-99033538D01*
X126115154Y-99492927D01*
X125865794Y-100093453D01*
X125865226Y-100743694D01*
X126113538Y-101344655D01*
X126572927Y-101804846D01*
X127173453Y-102054206D01*
X127823694Y-102054774D01*
X128424655Y-101806462D01*
X128884846Y-101347073D01*
X129134206Y-100746547D01*
X129134774Y-100096306D01*
X128886462Y-99495345D01*
X128427073Y-99035154D01*
X127826547Y-98785794D01*
X127176306Y-98785226D01*
X132176306Y-98785226D01*
X127176306Y-98785226D01*
X127176306Y-98785226D01*
X132176306Y-98785226D01*
X131575345Y-99033538D01*
X131115154Y-99492927D01*
X130865794Y-100093453D01*
X130865226Y-100743694D01*
X131113538Y-101344655D01*
X131572927Y-101804846D01*
X132173453Y-102054206D01*
X132823694Y-102054774D01*
X133424655Y-101806462D01*
X133884846Y-101347073D01*
X133910621Y-101285000D01*
X135588889Y-101285000D01*
X135613538Y-101344655D01*
X136072927Y-101804846D01*
X136673453Y-102054206D01*
X137323694Y-102054774D01*
X137924655Y-101806462D01*
X138384846Y-101347073D01*
X138634206Y-100746547D01*
X138634774Y-100096306D01*
X138386462Y-99495345D01*
X137927073Y-99035154D01*
X137326547Y-98785794D01*
X136676306Y-98785226D01*
X136075345Y-99033538D01*
X135615154Y-99492927D01*
X135522941Y-99715000D01*
X133977222Y-99715000D01*
X133886462Y-99495345D01*
X133427073Y-99035154D01*
X132826547Y-98785794D01*
X132176306Y-98785226D01*
X127176306Y-98785226D01*
X127176306Y-98785226D01*
X126575345Y-99033538D01*
X123423182Y-99033538D01*
X122826547Y-98785794D01*
X122176306Y-98785226D01*
X121575345Y-99033538D01*
X109185000Y-99033538D01*
X109185000Y-91816655D01*
X120040000Y-91816655D01*
X119466511Y-91930729D01*
X118980330Y-92255585D01*
X118969785Y-92271367D01*
X118964063Y-92241877D01*
X118824273Y-92029073D01*
X118613240Y-91886623D01*
X118363600Y-91836560D01*
X116636400Y-91836560D01*
X116394277Y-91883537D01*
X116181473Y-92023327D01*
X116039023Y-92234360D01*
X115988960Y-92484000D01*
X115988960Y-94516000D01*
X116035937Y-94758123D01*
X116175727Y-94970927D01*
X116386760Y-95113377D01*
X116636400Y-95163440D01*
X118363600Y-95163440D01*
X118605723Y-95116463D01*
X118818527Y-94976673D01*
X118960977Y-94765640D01*
X118968718Y-94727037D01*
X118980330Y-94744415D01*
X119466511Y-95069271D01*
X120040000Y-95183345D01*
X120613489Y-95069271D01*
X121099670Y-94744415D01*
X121310000Y-94429634D01*
X121520330Y-94744415D01*
X122006511Y-95069271D01*
X122580000Y-95183345D01*
X123153489Y-95069271D01*
X123639670Y-94744415D01*
X123850000Y-94429634D01*
X124060330Y-94744415D01*
X124546511Y-95069271D01*
X125120000Y-95183345D01*
X125693489Y-95069271D01*
X126179670Y-94744415D01*
X126504526Y-94258234D01*
X126618600Y-93684745D01*
X126618600Y-93315255D01*
X126504526Y-92741766D01*
X126179670Y-92255585D01*
X125693489Y-91930729D01*
X125120000Y-91816655D01*
X124546511Y-91930729D01*
X124060330Y-92255585D01*
X123850000Y-92570366D01*
X123639670Y-92255585D01*
X123153489Y-91930729D01*
X122580000Y-91816655D01*
X122006511Y-91930729D01*
X121520330Y-92255585D01*
X121310000Y-92570366D01*
X121099670Y-92255585D01*
X120613489Y-91930729D01*
X120040000Y-91816655D01*
X109185000Y-91816655D01*
X109185000Y-85825241D01*
X109938249Y-86579806D01*
X111273782Y-87134368D01*
X112719874Y-87135630D01*
X114056372Y-86583400D01*
X115079806Y-85561751D01*
X115488960Y-84576399D01*
X115488960Y-85863600D01*
X115488960Y-85863600D01*
G37*
X115488960Y-85863600D02*
X115535937Y-86105723D01*
X115675727Y-86318527D01*
X115886760Y-86460977D01*
X116136400Y-86511040D01*
X117863600Y-86511040D01*
X118105723Y-86464063D01*
X118318527Y-86324273D01*
X118460977Y-86113240D01*
X118469179Y-86072340D01*
X118480330Y-86089029D01*
X118966511Y-86413885D01*
X119540000Y-86527959D01*
X120113489Y-86413885D01*
X120599670Y-86089029D01*
X120810000Y-85774248D01*
X121020330Y-86089029D01*
X121506511Y-86413885D01*
X122080000Y-86527959D01*
X122653489Y-86413885D01*
X123139670Y-86089029D01*
X123350000Y-85774248D01*
X123560330Y-86089029D01*
X124046511Y-86413885D01*
X124620000Y-86527959D01*
X125193489Y-86413885D01*
X125679670Y-86089029D01*
X125890000Y-85774248D01*
X126100330Y-86089029D01*
X126586511Y-86413885D01*
X127160000Y-86527959D01*
X127375029Y-86485187D01*
X127944921Y-87055079D01*
X128199593Y-87225245D01*
X128500000Y-87285000D01*
X129892804Y-87285000D01*
X129707808Y-87469673D01*
X129565162Y-87813201D01*
X129564838Y-88185167D01*
X129706883Y-88528943D01*
X129969673Y-88792192D01*
X130313201Y-88934838D01*
X130685167Y-88935162D01*
X131028943Y-88793117D01*
X131037074Y-88785000D01*
X131674842Y-88785000D01*
X134571890Y-91682048D01*
X134571890Y-92796354D01*
X134677554Y-93327561D01*
X134978458Y-93777896D01*
X135428793Y-94078800D01*
X135960000Y-94184464D01*
X136491207Y-94078800D01*
X136941542Y-93777896D01*
X137230000Y-93346188D01*
X137518458Y-93777896D01*
X137968793Y-94078800D01*
X138500000Y-94184464D01*
X139031207Y-94078800D01*
X139481542Y-93777896D01*
X139770000Y-93346188D01*
X140058458Y-93777896D01*
X140508793Y-94078800D01*
X141040000Y-94184464D01*
X141571207Y-94078800D01*
X142021542Y-93777896D01*
X142322446Y-93327561D01*
X142428110Y-92796354D01*
X142428110Y-91203646D01*
X142322446Y-90672439D01*
X142021542Y-90222104D01*
X141571207Y-89921200D01*
X141040000Y-89815536D01*
X140508793Y-89921200D01*
X140058458Y-90222104D01*
X139770000Y-90653812D01*
X139481542Y-90222104D01*
X139031207Y-89921200D01*
X138500000Y-89815536D01*
X137968793Y-89921200D01*
X137518458Y-90222104D01*
X137230000Y-90653812D01*
X136941542Y-90222104D01*
X136491207Y-89921200D01*
X135960000Y-89815536D01*
X135428793Y-89921200D01*
X135190548Y-90080390D01*
X132555079Y-87444921D01*
X132315740Y-87285000D01*
X146500000Y-87285000D01*
X146800406Y-87225245D01*
X147055079Y-87055079D01*
X147225245Y-86800406D01*
X147285000Y-86500000D01*
X147285000Y-86489171D01*
X147480000Y-86527959D01*
X147715000Y-86481215D01*
X147715000Y-86500000D01*
X147774755Y-86800406D01*
X147944921Y-87055079D01*
X148199594Y-87225245D01*
X148500000Y-87285000D01*
X164000000Y-87285000D01*
X164300407Y-87225245D01*
X164555079Y-87055079D01*
X165111698Y-86498460D01*
X165260000Y-86527959D01*
X165833489Y-86413885D01*
X166319670Y-86089029D01*
X166644526Y-85602848D01*
X166739181Y-85126985D01*
X166916600Y-85556372D01*
X167938249Y-86579806D01*
X169273782Y-87134368D01*
X170719874Y-87135630D01*
X172056372Y-86583400D01*
X172815000Y-85826095D01*
X172815000Y-130174759D01*
X172061751Y-129420194D01*
X170726218Y-128865632D01*
X169280126Y-128864370D01*
X167943628Y-129416600D01*
X166920194Y-130438249D01*
X166365632Y-131773782D01*
X166364370Y-133219874D01*
X166916600Y-134556372D01*
X167673905Y-135315000D01*
X114325241Y-135315000D01*
X115079806Y-134561751D01*
X115386274Y-133823694D01*
X148285226Y-133823694D01*
X148533538Y-134424655D01*
X148992927Y-134884846D01*
X149593453Y-135134206D01*
X150243694Y-135134774D01*
X150844655Y-134886462D01*
X151304846Y-134427073D01*
X151554206Y-133826547D01*
X151554774Y-133176306D01*
X151306462Y-132575345D01*
X150847073Y-132115154D01*
X150843182Y-132113538D01*
X159155345Y-132113538D01*
X150843182Y-132113538D01*
X150843182Y-132113538D01*
X159155345Y-132113538D01*
X158695154Y-132572927D01*
X158445794Y-133173453D01*
X158445226Y-133823694D01*
X158693538Y-134424655D01*
X159152927Y-134884846D01*
X159753453Y-135134206D01*
X160403694Y-135134774D01*
X161004655Y-134886462D01*
X161464846Y-134427073D01*
X161714206Y-133826547D01*
X161714774Y-133176306D01*
X161466462Y-132575345D01*
X161007073Y-132115154D01*
X160406547Y-131865794D01*
X159756306Y-131865226D01*
X159155345Y-132113538D01*
X150843182Y-132113538D01*
X150246547Y-131865794D01*
X149596306Y-131865226D01*
X148995345Y-132113538D01*
X147467588Y-132113538D01*
X147555079Y-132055079D01*
X151675005Y-127935153D01*
X151685167Y-127935162D01*
X152028943Y-127793117D01*
X152292192Y-127530327D01*
X152434838Y-127186799D01*
X152435162Y-126814833D01*
X152293117Y-126471057D01*
X152030327Y-126207808D01*
X151686799Y-126065162D01*
X151314833Y-126064838D01*
X150971057Y-126206883D01*
X150707808Y-126469673D01*
X150698430Y-126492258D01*
X150590737Y-125950849D01*
X150279668Y-125485302D01*
X149897582Y-125230000D01*
X150279668Y-124974698D01*
X150590737Y-124509151D01*
X150699970Y-123960000D01*
X150590737Y-123410849D01*
X150279668Y-122945302D01*
X149897582Y-122690000D01*
X150279668Y-122434698D01*
X150590737Y-121969151D01*
X150699970Y-121420000D01*
X150590737Y-120870849D01*
X150279668Y-120405302D01*
X149897582Y-120150000D01*
X150279668Y-119894698D01*
X150590737Y-119429151D01*
X150699970Y-118880000D01*
X150590737Y-118330849D01*
X150279668Y-117865302D01*
X149897582Y-117610000D01*
X150279668Y-117354698D01*
X150590737Y-116889151D01*
X150699970Y-116340000D01*
X150590737Y-115790849D01*
X150279668Y-115325302D01*
X149897582Y-115070000D01*
X150279668Y-114814698D01*
X150590737Y-114349151D01*
X150699970Y-113800000D01*
X150590737Y-113250849D01*
X150279668Y-112785302D01*
X149901849Y-112532851D01*
X150334500Y-112184896D01*
X150604367Y-111691819D01*
X150621904Y-111609039D01*
X150499916Y-111387002D01*
X150648234Y-111387002D01*
X150706883Y-111528943D01*
X150969673Y-111792192D01*
X151313201Y-111934838D01*
X151685167Y-111935162D01*
X152028943Y-111793117D01*
X152037074Y-111785000D01*
X154784459Y-111785000D01*
X154789263Y-111809151D01*
X155100332Y-112274698D01*
X155482418Y-112530000D01*
X155100332Y-112785302D01*
X154789263Y-113250849D01*
X154680030Y-113800000D01*
X154789263Y-114349151D01*
X155100332Y-114814698D01*
X155482418Y-115070000D01*
X155100332Y-115325302D01*
X154789263Y-115790849D01*
X154680030Y-116340000D01*
X154789263Y-116889151D01*
X155100332Y-117354698D01*
X155482418Y-117610000D01*
X155100332Y-117865302D01*
X154789263Y-118330849D01*
X154680030Y-118880000D01*
X154789263Y-119429151D01*
X155100332Y-119894698D01*
X155482418Y-120150000D01*
X155100332Y-120405302D01*
X154789263Y-120870849D01*
X154680030Y-121420000D01*
X154789263Y-121969151D01*
X155100332Y-122434698D01*
X155482418Y-122690000D01*
X155100332Y-122945302D01*
X154789263Y-123410849D01*
X154680030Y-123960000D01*
X154789263Y-124509151D01*
X155100332Y-124974698D01*
X155482418Y-125230000D01*
X155100332Y-125485302D01*
X154789263Y-125950849D01*
X154680030Y-126500000D01*
X154789263Y-127049151D01*
X155100332Y-127514698D01*
X155565879Y-127825767D01*
X156115030Y-127935000D01*
X156884970Y-127935000D01*
X157434121Y-127825767D01*
X157899668Y-127514698D01*
X158053148Y-127285000D01*
X162336560Y-127285000D01*
X162336560Y-127363600D01*
X162383537Y-127605723D01*
X162523327Y-127818527D01*
X162734360Y-127960977D01*
X162984000Y-128011040D01*
X165016000Y-128011040D01*
X165258123Y-127964063D01*
X165470927Y-127824273D01*
X165613377Y-127613240D01*
X165663440Y-127363600D01*
X165663440Y-125636400D01*
X165616463Y-125394277D01*
X165476673Y-125181473D01*
X165265640Y-125039023D01*
X165227037Y-125031282D01*
X165244415Y-125019670D01*
X165569271Y-124533489D01*
X165683345Y-123960000D01*
X165569271Y-123386511D01*
X165244415Y-122900330D01*
X164929634Y-122690000D01*
X165244415Y-122479670D01*
X165569271Y-121993489D01*
X165683345Y-121420000D01*
X165569271Y-120846511D01*
X165244415Y-120360330D01*
X164934931Y-120153539D01*
X165350732Y-119782036D01*
X165604709Y-119254791D01*
X165607358Y-119239026D01*
X165486217Y-119007000D01*
X164127000Y-119007000D01*
X164127000Y-119027000D01*
X163873000Y-119027000D01*
X163873000Y-119007000D01*
X162513783Y-119007000D01*
X162392642Y-119239026D01*
X162395291Y-119254791D01*
X162649268Y-119782036D01*
X163065069Y-120153539D01*
X162755585Y-120360330D01*
X162518602Y-120715000D01*
X158106602Y-120715000D01*
X157899668Y-120405302D01*
X157517582Y-120150000D01*
X157899668Y-119894698D01*
X158210737Y-119429151D01*
X158319970Y-118880000D01*
X158210737Y-118330849D01*
X157899668Y-117865302D01*
X157517582Y-117610000D01*
X157550438Y-117588046D01*
X163085680Y-117588046D01*
X162649268Y-117977964D01*
X162395291Y-118505209D01*
X162392642Y-118520974D01*
X162513783Y-118753000D01*
X163873000Y-118753000D01*
X163873000Y-117539076D01*
X164127000Y-117539076D01*
X163873000Y-117539076D01*
X163873000Y-117539076D01*
X164127000Y-117539076D01*
X164127000Y-118753000D01*
X165486217Y-118753000D01*
X165607358Y-118520974D01*
X165604709Y-118505209D01*
X165350732Y-117977964D01*
X164914320Y-117588046D01*
X164361913Y-117394816D01*
X164127000Y-117539076D01*
X163873000Y-117539076D01*
X163873000Y-117539076D01*
X163638087Y-117394816D01*
X163085680Y-117588046D01*
X157550438Y-117588046D01*
X157899668Y-117354698D01*
X158210737Y-116889151D01*
X158319970Y-116340000D01*
X158210737Y-115790849D01*
X157899668Y-115325302D01*
X157517582Y-115070000D01*
X157899668Y-114814698D01*
X158210737Y-114349151D01*
X158319970Y-113800000D01*
X158210737Y-113250849D01*
X157899668Y-112785302D01*
X157517582Y-112530000D01*
X157899668Y-112274698D01*
X158210737Y-111809151D01*
X158319970Y-111260000D01*
X158210737Y-110710849D01*
X157899668Y-110245302D01*
X157842170Y-110206883D01*
X165471057Y-110206883D01*
X165207808Y-110469673D01*
X165065162Y-110813201D01*
X165064838Y-111185167D01*
X165206883Y-111528943D01*
X165469673Y-111792192D01*
X165813201Y-111934838D01*
X165824690Y-111934848D01*
X168672193Y-114782350D01*
X168867582Y-115255229D01*
X169242796Y-115631098D01*
X169733287Y-115834768D01*
X170264383Y-115835231D01*
X170755229Y-115632418D01*
X171131098Y-115257204D01*
X171334768Y-114766713D01*
X171335231Y-114235617D01*
X171132418Y-113744771D01*
X170757204Y-113368902D01*
X170266713Y-113165232D01*
X169735617Y-113164769D01*
X169409624Y-113299466D01*
X166935153Y-110824995D01*
X166935162Y-110814833D01*
X166793117Y-110471057D01*
X166530327Y-110207808D01*
X166186799Y-110065162D01*
X165814833Y-110064838D01*
X165471057Y-110206883D01*
X157842170Y-110206883D01*
X157521849Y-109992851D01*
X157954500Y-109644896D01*
X157964294Y-109627000D01*
X168823750Y-109627000D01*
X168665000Y-109785750D01*
X168665000Y-110326309D01*
X168761673Y-110559698D01*
X168940301Y-110738327D01*
X169173690Y-110835000D01*
X169714250Y-110835000D01*
X169873000Y-110676250D01*
X169873000Y-109627000D01*
X170127000Y-109627000D01*
X170127000Y-110676250D01*
X170285750Y-110835000D01*
X170826310Y-110835000D01*
X171059699Y-110738327D01*
X171238327Y-110559698D01*
X171335000Y-110326309D01*
X171335000Y-109785750D01*
X171176250Y-109627000D01*
X170127000Y-109627000D01*
X169873000Y-109627000D01*
X169873000Y-109627000D01*
X168823750Y-109627000D01*
X157964294Y-109627000D01*
X158224367Y-109151819D01*
X158241904Y-109069039D01*
X158119916Y-108847002D01*
X158285000Y-108847002D01*
X158285000Y-108742234D01*
X158500000Y-108785000D01*
X161884804Y-108785000D01*
X162214113Y-109114884D01*
X162723184Y-109326269D01*
X163274398Y-109326750D01*
X163783837Y-109116254D01*
X164173944Y-108726827D01*
X164385329Y-108217756D01*
X164385375Y-108165000D01*
X169173690Y-108165000D01*
X168940301Y-108261673D01*
X168761673Y-108440302D01*
X168665000Y-108673691D01*
X168665000Y-109214250D01*
X168823750Y-109373000D01*
X169873000Y-109373000D01*
X169873000Y-108323750D01*
X169714250Y-108165000D01*
X170285750Y-108165000D01*
X169714250Y-108165000D01*
X169714250Y-108165000D01*
X170285750Y-108165000D01*
X170127000Y-108323750D01*
X170127000Y-109373000D01*
X171176250Y-109373000D01*
X171335000Y-109214250D01*
X171335000Y-108673691D01*
X171238327Y-108440302D01*
X171059699Y-108261673D01*
X170826310Y-108165000D01*
X170285750Y-108165000D01*
X169714250Y-108165000D01*
X169714250Y-108165000D01*
X169173690Y-108165000D01*
X164385375Y-108165000D01*
X164385810Y-107666542D01*
X164175314Y-107157103D01*
X163785887Y-106766996D01*
X163276816Y-106555611D01*
X162725602Y-106555130D01*
X162216163Y-106765626D01*
X161826056Y-107155053D01*
X161801164Y-107215000D01*
X158825158Y-107215000D01*
X158232068Y-106621910D01*
X158319970Y-106180000D01*
X158210737Y-105630849D01*
X157899668Y-105165302D01*
X157517582Y-104910000D01*
X157899668Y-104654698D01*
X158146693Y-104285000D01*
X162339333Y-104285000D01*
X162723184Y-104444389D01*
X163274398Y-104444870D01*
X163661313Y-104285000D01*
X168897301Y-104285000D01*
X169242796Y-104631098D01*
X169733287Y-104834768D01*
X170264383Y-104835231D01*
X170755229Y-104632418D01*
X171131098Y-104257204D01*
X171334768Y-103766713D01*
X171335231Y-103235617D01*
X171132418Y-102744771D01*
X170757204Y-102368902D01*
X170266713Y-102165232D01*
X169735617Y-102164769D01*
X169244771Y-102367582D01*
X168896747Y-102715000D01*
X164357026Y-102715000D01*
X164175314Y-102275223D01*
X163785887Y-101885116D01*
X163276816Y-101673731D01*
X162725602Y-101673250D01*
X162216163Y-101883746D01*
X161826056Y-102273173D01*
X161642593Y-102715000D01*
X157959602Y-102715000D01*
X157899668Y-102625302D01*
X157517582Y-102370000D01*
X157899668Y-102114698D01*
X158210737Y-101649151D01*
X158319970Y-101100000D01*
X158210737Y-100550849D01*
X157899668Y-100085302D01*
X157517582Y-99830000D01*
X157899668Y-99574698D01*
X158210737Y-99109151D01*
X158306642Y-98627000D01*
X168823750Y-98627000D01*
X168665000Y-98785750D01*
X168665000Y-99326309D01*
X168761673Y-99559698D01*
X168940301Y-99738327D01*
X169173690Y-99835000D01*
X169714250Y-99835000D01*
X169873000Y-99676250D01*
X169873000Y-98627000D01*
X170127000Y-98627000D01*
X170127000Y-99676250D01*
X170285750Y-99835000D01*
X170826310Y-99835000D01*
X171059699Y-99738327D01*
X171238327Y-99559698D01*
X171335000Y-99326309D01*
X171335000Y-98785750D01*
X171176250Y-98627000D01*
X170127000Y-98627000D01*
X169873000Y-98627000D01*
X169873000Y-98627000D01*
X168823750Y-98627000D01*
X158306642Y-98627000D01*
X158319970Y-98560000D01*
X158210737Y-98010849D01*
X157899668Y-97545302D01*
X157517582Y-97290000D01*
X157704657Y-97165000D01*
X169173690Y-97165000D01*
X168940301Y-97261673D01*
X168761673Y-97440302D01*
X168665000Y-97673691D01*
X168665000Y-98214250D01*
X168823750Y-98373000D01*
X169873000Y-98373000D01*
X169873000Y-97323750D01*
X169714250Y-97165000D01*
X170285750Y-97165000D01*
X169714250Y-97165000D01*
X169714250Y-97165000D01*
X170285750Y-97165000D01*
X170127000Y-97323750D01*
X170127000Y-98373000D01*
X171176250Y-98373000D01*
X171335000Y-98214250D01*
X171335000Y-97673691D01*
X171238327Y-97440302D01*
X171059699Y-97261673D01*
X170826310Y-97165000D01*
X170285750Y-97165000D01*
X169714250Y-97165000D01*
X169714250Y-97165000D01*
X169173690Y-97165000D01*
X157704657Y-97165000D01*
X157899668Y-97034698D01*
X158210737Y-96569151D01*
X158319970Y-96020000D01*
X158210737Y-95470849D01*
X157899668Y-95005302D01*
X157517582Y-94750000D01*
X157899668Y-94494698D01*
X158210737Y-94029151D01*
X158319970Y-93480000D01*
X158210737Y-92930849D01*
X157899668Y-92465302D01*
X157434121Y-92154233D01*
X156884970Y-92045000D01*
X156115030Y-92045000D01*
X155565879Y-92154233D01*
X155100332Y-92465302D01*
X154789263Y-92930849D01*
X154680030Y-93480000D01*
X154789263Y-94029151D01*
X155100332Y-94494698D01*
X155482418Y-94750000D01*
X155100332Y-95005302D01*
X154789263Y-95470849D01*
X154680030Y-96020000D01*
X154789263Y-96569151D01*
X155100332Y-97034698D01*
X155482418Y-97290000D01*
X155100332Y-97545302D01*
X154789263Y-98010849D01*
X154680030Y-98560000D01*
X154789263Y-99109151D01*
X155100332Y-99574698D01*
X155482418Y-99830000D01*
X155100332Y-100085302D01*
X154789263Y-100550849D01*
X154680030Y-101100000D01*
X154789263Y-101649151D01*
X155100332Y-102114698D01*
X155482418Y-102370000D01*
X155100332Y-102625302D01*
X154789263Y-103090849D01*
X154680030Y-103640000D01*
X154789263Y-104189151D01*
X155100332Y-104654698D01*
X155482418Y-104910000D01*
X155100332Y-105165302D01*
X154789263Y-105630849D01*
X154680030Y-106180000D01*
X154789263Y-106729151D01*
X155100332Y-107194698D01*
X155478151Y-107447149D01*
X155045500Y-107795104D01*
X154775633Y-108288181D01*
X154758096Y-108370961D01*
X154880085Y-108593000D01*
X156373000Y-108593000D01*
X156373000Y-108573000D01*
X156627000Y-108573000D01*
X156627000Y-108593000D01*
X156647000Y-108593000D01*
X156647000Y-108847000D01*
X156627000Y-108847000D01*
X156627000Y-108867000D01*
X156373000Y-108867000D01*
X156373000Y-108847000D01*
X154880085Y-108847000D01*
X154758096Y-109069039D01*
X154775633Y-109151819D01*
X155045500Y-109644896D01*
X155478151Y-109992851D01*
X155145682Y-110215000D01*
X152037506Y-110215000D01*
X152030327Y-110207808D01*
X151686799Y-110065162D01*
X151314833Y-110064838D01*
X150971057Y-110206883D01*
X150707808Y-110469673D01*
X150578538Y-110780988D01*
X150334500Y-110335104D01*
X149901849Y-109987149D01*
X150279668Y-109734698D01*
X150590737Y-109269151D01*
X150699970Y-108720000D01*
X150590737Y-108170849D01*
X150279668Y-107705302D01*
X149897582Y-107450000D01*
X150279668Y-107194698D01*
X150590737Y-106729151D01*
X150699970Y-106180000D01*
X150590737Y-105630849D01*
X150279668Y-105165302D01*
X149897582Y-104910000D01*
X150279668Y-104654698D01*
X150590737Y-104189151D01*
X150699970Y-103640000D01*
X150590737Y-103090849D01*
X150279668Y-102625302D01*
X149897582Y-102370000D01*
X150279668Y-102114698D01*
X150590737Y-101649151D01*
X150699970Y-101100000D01*
X150590737Y-100550849D01*
X150279668Y-100085302D01*
X149897582Y-99830000D01*
X150279668Y-99574698D01*
X150590737Y-99109151D01*
X150699970Y-98560000D01*
X150590737Y-98010849D01*
X150279668Y-97545302D01*
X149897582Y-97290000D01*
X150279668Y-97034698D01*
X150590737Y-96569151D01*
X150699970Y-96020000D01*
X150590737Y-95470849D01*
X150279668Y-95005302D01*
X149897582Y-94750000D01*
X150279668Y-94494698D01*
X150590737Y-94029151D01*
X150699970Y-93480000D01*
X150590737Y-92930849D01*
X150279668Y-92465302D01*
X149814121Y-92154233D01*
X149264970Y-92045000D01*
X148495030Y-92045000D01*
X147945879Y-92154233D01*
X147480332Y-92465302D01*
X147169263Y-92930849D01*
X147060030Y-93480000D01*
X147169263Y-94029151D01*
X147480332Y-94494698D01*
X147862418Y-94750000D01*
X147480332Y-95005302D01*
X147169263Y-95470849D01*
X147060030Y-96020000D01*
X147169263Y-96569151D01*
X147480332Y-97034698D01*
X147862418Y-97290000D01*
X147480332Y-97545302D01*
X147169263Y-98010849D01*
X147060030Y-98560000D01*
X147169263Y-99109151D01*
X147480332Y-99574698D01*
X147862418Y-99830000D01*
X147480332Y-100085302D01*
X147169263Y-100550849D01*
X147060030Y-101100000D01*
X147169263Y-101649151D01*
X147480332Y-102114698D01*
X147862418Y-102370000D01*
X147480332Y-102625302D01*
X147169263Y-103090849D01*
X147060030Y-103640000D01*
X147136972Y-104026814D01*
X145555079Y-102444921D01*
X145300407Y-102274755D01*
X145000000Y-102215000D01*
X117330948Y-102215000D01*
X117300463Y-102057877D01*
X117160673Y-101845073D01*
X116949640Y-101702623D01*
X116700000Y-101652560D01*
X115300000Y-101652560D01*
X115057877Y-101699537D01*
X114845073Y-101839327D01*
X114702623Y-102050360D01*
X114652560Y-102300000D01*
X114652560Y-103700000D01*
X114699537Y-103942123D01*
X114839327Y-104154927D01*
X115050360Y-104297377D01*
X115300000Y-104347440D01*
X116700000Y-104347440D01*
X116942123Y-104300463D01*
X117154927Y-104160673D01*
X117297377Y-103949640D01*
X117330394Y-103785000D01*
X144674842Y-103785000D01*
X146444921Y-105555079D01*
X146699593Y-105725245D01*
X147000000Y-105785000D01*
X147138600Y-105785000D01*
X147060030Y-106180000D01*
X147169263Y-106729151D01*
X147480332Y-107194698D01*
X147862418Y-107450000D01*
X147480332Y-107705302D01*
X147169263Y-108170849D01*
X147060030Y-108720000D01*
X147169263Y-109269151D01*
X147480332Y-109734698D01*
X147858151Y-109987149D01*
X147425500Y-110335104D01*
X147155633Y-110828181D01*
X147138096Y-110910961D01*
X147260085Y-111133000D01*
X148753000Y-111133000D01*
X148753000Y-111113000D01*
X149007000Y-111113000D01*
X149007000Y-111133000D01*
X149027000Y-111133000D01*
X149027000Y-111387000D01*
X149007000Y-111387000D01*
X149007000Y-111407000D01*
X148753000Y-111407000D01*
X148753000Y-111387000D01*
X147260085Y-111387000D01*
X147138096Y-111609039D01*
X147155633Y-111691819D01*
X147425500Y-112184896D01*
X147858151Y-112532851D01*
X147480332Y-112785302D01*
X147169263Y-113250849D01*
X147060030Y-113800000D01*
X147169263Y-114349151D01*
X147480332Y-114814698D01*
X147862418Y-115070000D01*
X147480332Y-115325302D01*
X147169263Y-115790849D01*
X147060030Y-116340000D01*
X147169263Y-116889151D01*
X147480332Y-117354698D01*
X147862418Y-117610000D01*
X147480332Y-117865302D01*
X147169263Y-118330849D01*
X147060030Y-118880000D01*
X147169263Y-119429151D01*
X147480332Y-119894698D01*
X147862418Y-120150000D01*
X147480332Y-120405302D01*
X147169263Y-120870849D01*
X147060030Y-121420000D01*
X147169263Y-121969151D01*
X147480332Y-122434698D01*
X147862418Y-122690000D01*
X147480332Y-122945302D01*
X147169263Y-123410849D01*
X147060030Y-123960000D01*
X147169263Y-124509151D01*
X147480332Y-124974698D01*
X147862418Y-125230000D01*
X147480332Y-125485302D01*
X147169263Y-125950849D01*
X147060030Y-126500000D01*
X147169263Y-127049151D01*
X147480332Y-127514698D01*
X147945879Y-127825767D01*
X148495030Y-127935000D01*
X149264970Y-127935000D01*
X149501988Y-127887854D01*
X146674842Y-130715000D01*
X143158110Y-130715000D01*
X143158110Y-130703646D01*
X143052446Y-130172439D01*
X142751542Y-129722104D01*
X142301207Y-129421200D01*
X141770000Y-129315536D01*
X141238793Y-129421200D01*
X140788458Y-129722104D01*
X140487554Y-130172439D01*
X140486984Y-130175306D01*
X140463846Y-130097081D01*
X140121740Y-129674276D01*
X139643875Y-129414573D01*
X139571674Y-129400217D01*
X139357000Y-129522838D01*
X139357000Y-131373000D01*
X139377000Y-131373000D01*
X139377000Y-131627000D01*
X139357000Y-131627000D01*
X139357000Y-133477162D01*
X139571674Y-133599783D01*
X139643875Y-133585427D01*
X140121740Y-133325724D01*
X140463846Y-132902919D01*
X140486984Y-132824694D01*
X140487554Y-132827561D01*
X140788458Y-133277896D01*
X141238793Y-133578800D01*
X141770000Y-133684464D01*
X142301207Y-133578800D01*
X142751542Y-133277896D01*
X143052446Y-132827561D01*
X143158110Y-132296354D01*
X143158110Y-132285000D01*
X147000000Y-132285000D01*
X147300407Y-132225245D01*
X147467588Y-132113538D01*
X148995345Y-132113538D01*
X147467588Y-132113538D01*
X147467588Y-132113538D01*
X148995345Y-132113538D01*
X148535154Y-132572927D01*
X148285794Y-133173453D01*
X148285226Y-133823694D01*
X115386274Y-133823694D01*
X115634368Y-133226218D01*
X115635630Y-131780126D01*
X115572360Y-131627000D01*
X137841890Y-131627000D01*
X137841890Y-132381380D01*
X137996154Y-132902919D01*
X138338260Y-133325724D01*
X138816125Y-133585427D01*
X138888326Y-133599783D01*
X139103000Y-133477162D01*
X139103000Y-131627000D01*
X137841890Y-131627000D01*
X115572360Y-131627000D01*
X115083400Y-130443628D01*
X114061751Y-129420194D01*
X114048215Y-129414573D01*
X138816125Y-129414573D01*
X138338260Y-129674276D01*
X137996154Y-130097081D01*
X137841890Y-130618620D01*
X137841890Y-131373000D01*
X139103000Y-131373000D01*
X139103000Y-129522838D01*
X138888326Y-129400217D01*
X138816125Y-129414573D01*
X114048215Y-129414573D01*
X112726218Y-128865632D01*
X111280126Y-128864370D01*
X109943628Y-129416600D01*
X109185000Y-130173905D01*
X109185000Y-127016724D01*
X129496857Y-127016724D01*
X130119000Y-127191000D01*
X130373000Y-127191000D01*
X130373000Y-125667000D01*
X130627000Y-125667000D01*
X130373000Y-125667000D01*
X130373000Y-125667000D01*
X130627000Y-125667000D01*
X130627000Y-127191000D01*
X130881000Y-127191000D01*
X131503143Y-127016724D01*
X132011236Y-126617630D01*
X132327926Y-126054477D01*
X132359975Y-125922944D01*
X132240836Y-125667000D01*
X130627000Y-125667000D01*
X130373000Y-125667000D01*
X130373000Y-125667000D01*
X128759164Y-125667000D01*
X116950077Y-125667000D01*
X117041060Y-125504757D01*
X117071411Y-125378959D01*
X116951942Y-125127000D01*
X114627000Y-125127000D01*
X114627000Y-126625600D01*
X115617600Y-126625600D01*
X116230023Y-126453258D01*
X116729876Y-126059670D01*
X116950077Y-125667000D01*
X128759164Y-125667000D01*
X116950077Y-125667000D01*
X116950077Y-125667000D01*
X128759164Y-125667000D01*
X128640025Y-125922944D01*
X128672074Y-126054477D01*
X128988764Y-126617630D01*
X129496857Y-127016724D01*
X109185000Y-127016724D01*
X109185000Y-125127000D01*
X112048058Y-125127000D01*
X111928589Y-125378959D01*
X111958940Y-125504757D01*
X112270124Y-126059670D01*
X112769977Y-126453258D01*
X113382400Y-126625600D01*
X114373000Y-126625600D01*
X114373000Y-125127000D01*
X112048058Y-125127000D01*
X109185000Y-125127000D01*
X109185000Y-123374400D01*
X113382400Y-123374400D01*
X112769977Y-123546742D01*
X112270124Y-123940330D01*
X111958940Y-124495243D01*
X111928589Y-124621041D01*
X112048058Y-124873000D01*
X114373000Y-124873000D01*
X114373000Y-123374400D01*
X114627000Y-123374400D01*
X114373000Y-123374400D01*
X114373000Y-123374400D01*
X114627000Y-123374400D01*
X114627000Y-124873000D01*
X116951942Y-124873000D01*
X117071411Y-124621041D01*
X117041060Y-124495243D01*
X116729876Y-123940330D01*
X116230023Y-123546742D01*
X115617600Y-123374400D01*
X114627000Y-123374400D01*
X114373000Y-123374400D01*
X114373000Y-123374400D01*
X113382400Y-123374400D01*
X109185000Y-123374400D01*
X109185000Y-118374400D01*
X113458146Y-118374400D01*
X112836056Y-118498141D01*
X112308673Y-118850527D01*
X111956287Y-119377910D01*
X111832546Y-120000000D01*
X111956287Y-120622090D01*
X112308673Y-121149473D01*
X112836056Y-121501859D01*
X113458146Y-121625600D01*
X115541854Y-121625600D01*
X116163944Y-121501859D01*
X116691327Y-121149473D01*
X117043713Y-120622090D01*
X117167454Y-120000000D01*
X117043713Y-119377910D01*
X116691327Y-118850527D01*
X116163944Y-118498141D01*
X115541854Y-118374400D01*
X113458146Y-118374400D01*
X109185000Y-118374400D01*
X109185000Y-115706883D01*
X133971057Y-115706883D01*
X133707808Y-115969673D01*
X133565162Y-116313201D01*
X133565152Y-116324690D01*
X131032807Y-118857035D01*
X130791321Y-118809000D01*
X130208679Y-118809000D01*
X129576869Y-118934675D01*
X129041246Y-119292567D01*
X128683354Y-119828190D01*
X128557679Y-120460000D01*
X128683354Y-121091810D01*
X129041246Y-121627433D01*
X129194748Y-121730000D01*
X129041246Y-121832567D01*
X128683354Y-122368190D01*
X128557679Y-123000000D01*
X128683354Y-123631810D01*
X129041246Y-124167433D01*
X129215781Y-124284054D01*
X128988764Y-124462370D01*
X128672074Y-125025523D01*
X128640025Y-125157056D01*
X128759164Y-125413000D01*
X130373000Y-125413000D01*
X130373000Y-125393000D01*
X130627000Y-125393000D01*
X130627000Y-125413000D01*
X132240836Y-125413000D01*
X132359975Y-125157056D01*
X132327926Y-125025523D01*
X132011236Y-124462370D01*
X131784219Y-124284054D01*
X131958754Y-124167433D01*
X132316646Y-123631810D01*
X132442321Y-123000000D01*
X132316646Y-122368190D01*
X131958754Y-121832567D01*
X131805252Y-121730000D01*
X131958754Y-121627433D01*
X132316646Y-121091810D01*
X132442321Y-120460000D01*
X132316646Y-119828190D01*
X132302756Y-119807402D01*
X134675005Y-117435153D01*
X134685167Y-117435162D01*
X135028943Y-117293117D01*
X135292192Y-117030327D01*
X135434838Y-116686799D01*
X135435162Y-116314833D01*
X135293117Y-115971057D01*
X135030327Y-115707808D01*
X134686799Y-115565162D01*
X134314833Y-115564838D01*
X133971057Y-115706883D01*
X109185000Y-115706883D01*
X109185000Y-112225401D01*
X132235582Y-112225401D01*
X132885377Y-112201341D01*
X133373958Y-111998965D01*
X133386566Y-111964846D01*
X136072927Y-111964846D01*
X136673453Y-112214206D01*
X137323694Y-112214774D01*
X137924655Y-111966462D01*
X138384846Y-111507073D01*
X138634206Y-110906547D01*
X138634774Y-110256306D01*
X138386462Y-109655345D01*
X137927073Y-109195154D01*
X137326547Y-108945794D01*
X136676306Y-108945226D01*
X136075345Y-109193538D01*
X133385970Y-109193538D01*
X133373958Y-109161035D01*
X132764418Y-108934599D01*
X132114623Y-108958659D01*
X131626042Y-109161035D01*
X131527443Y-109427837D01*
X132500000Y-110400395D01*
X133472557Y-109427837D01*
X133385970Y-109193538D01*
X136075345Y-109193538D01*
X133385970Y-109193538D01*
X133385970Y-109193538D01*
X136075345Y-109193538D01*
X135615154Y-109652927D01*
X133775240Y-109652927D01*
X133652163Y-109607443D01*
X132679605Y-110580000D01*
X133652163Y-111552557D01*
X133918965Y-111453958D01*
X134145401Y-110844418D01*
X134121341Y-110194623D01*
X133918965Y-109706042D01*
X133775240Y-109652927D01*
X135615154Y-109652927D01*
X133775240Y-109652927D01*
X133775240Y-109652927D01*
X135615154Y-109652927D01*
X135365794Y-110253453D01*
X135365226Y-110903694D01*
X135613538Y-111504655D01*
X136072927Y-111964846D01*
X133386566Y-111964846D01*
X133472557Y-111732163D01*
X132500000Y-110759605D01*
X131527443Y-111732163D01*
X128659363Y-111732163D01*
X128884846Y-111507073D01*
X129134206Y-110906547D01*
X129134774Y-110256306D01*
X128907410Y-109706042D01*
X131081035Y-109706042D01*
X130854599Y-110315582D01*
X130878659Y-110965377D01*
X131081035Y-111453958D01*
X131347837Y-111552557D01*
X132320395Y-110580000D01*
X131347837Y-109607443D01*
X131081035Y-109706042D01*
X128907410Y-109706042D01*
X128886462Y-109655345D01*
X128427073Y-109195154D01*
X127826547Y-108945794D01*
X127176306Y-108945226D01*
X126575345Y-109193538D01*
X126115154Y-109652927D01*
X126089379Y-109715000D01*
X123911111Y-109715000D01*
X123886462Y-109655345D01*
X123427073Y-109195154D01*
X122826547Y-108945794D01*
X122176306Y-108945226D01*
X121575345Y-109193538D01*
X121115154Y-109652927D01*
X120865794Y-110253453D01*
X120865226Y-110903694D01*
X121113538Y-111504655D01*
X121572927Y-111964846D01*
X122173453Y-112214206D01*
X122823694Y-112214774D01*
X123424655Y-111966462D01*
X123884846Y-111507073D01*
X123977059Y-111285000D01*
X126022778Y-111285000D01*
X126113538Y-111504655D01*
X126572927Y-111964846D01*
X127173453Y-112214206D01*
X127823694Y-112214774D01*
X128424655Y-111966462D01*
X128659363Y-111732163D01*
X131527443Y-111732163D01*
X128659363Y-111732163D01*
X128659363Y-111732163D01*
X131527443Y-111732163D01*
X131626042Y-111998965D01*
X132235582Y-112225401D01*
X109185000Y-112225401D01*
X109185000Y-108935275D01*
X115244331Y-108935275D01*
X115306169Y-109171042D01*
X115807122Y-109347419D01*
X116337440Y-109318664D01*
X116693831Y-109171042D01*
X116755669Y-108935275D01*
X116576064Y-108755669D01*
X116935275Y-108755669D01*
X117171042Y-108693831D01*
X117347419Y-108192878D01*
X117318664Y-107662560D01*
X117171042Y-107306169D01*
X116935275Y-107244331D01*
X116179605Y-108000000D01*
X115820395Y-108000000D01*
X115820395Y-108000000D01*
X115064725Y-107244331D01*
X114828958Y-107306169D01*
X114652581Y-107807122D01*
X114681336Y-108337440D01*
X114828958Y-108693831D01*
X115064725Y-108755669D01*
X115820395Y-108000000D01*
X116179605Y-108000000D01*
X115820395Y-108000000D01*
X115820395Y-108000000D01*
X116179605Y-108000000D01*
X116935275Y-108755669D01*
X116576064Y-108755669D01*
X116000000Y-108179605D01*
X115244331Y-108935275D01*
X109185000Y-108935275D01*
X109185000Y-106681336D01*
X115662560Y-106681336D01*
X115306169Y-106828958D01*
X115244331Y-107064725D01*
X116000000Y-107820395D01*
X116755669Y-107064725D01*
X116693831Y-106828958D01*
X116192878Y-106652581D01*
X115662560Y-106681336D01*
X109185000Y-106681336D01*
X109185000Y-99033538D01*
X121575345Y-99033538D01*
X121115154Y-99492927D01*
X120865794Y-100093453D01*
X120865226Y-100743694D01*
X121113538Y-101344655D01*
X121572927Y-101804846D01*
X122173453Y-102054206D01*
X122823694Y-102054774D01*
X123424655Y-101806462D01*
X123884846Y-101347073D01*
X124134206Y-100746547D01*
X124134774Y-100096306D01*
X123886462Y-99495345D01*
X123427073Y-99035154D01*
X123423182Y-99033538D01*
X126575345Y-99033538D01*
X126115154Y-99492927D01*
X125865794Y-100093453D01*
X125865226Y-100743694D01*
X126113538Y-101344655D01*
X126572927Y-101804846D01*
X127173453Y-102054206D01*
X127823694Y-102054774D01*
X128424655Y-101806462D01*
X128884846Y-101347073D01*
X129134206Y-100746547D01*
X129134774Y-100096306D01*
X128886462Y-99495345D01*
X128427073Y-99035154D01*
X127826547Y-98785794D01*
X127176306Y-98785226D01*
X132176306Y-98785226D01*
X127176306Y-98785226D01*
X127176306Y-98785226D01*
X132176306Y-98785226D01*
X131575345Y-99033538D01*
X131115154Y-99492927D01*
X130865794Y-100093453D01*
X130865226Y-100743694D01*
X131113538Y-101344655D01*
X131572927Y-101804846D01*
X132173453Y-102054206D01*
X132823694Y-102054774D01*
X133424655Y-101806462D01*
X133884846Y-101347073D01*
X133910621Y-101285000D01*
X135588889Y-101285000D01*
X135613538Y-101344655D01*
X136072927Y-101804846D01*
X136673453Y-102054206D01*
X137323694Y-102054774D01*
X137924655Y-101806462D01*
X138384846Y-101347073D01*
X138634206Y-100746547D01*
X138634774Y-100096306D01*
X138386462Y-99495345D01*
X137927073Y-99035154D01*
X137326547Y-98785794D01*
X136676306Y-98785226D01*
X136075345Y-99033538D01*
X135615154Y-99492927D01*
X135522941Y-99715000D01*
X133977222Y-99715000D01*
X133886462Y-99495345D01*
X133427073Y-99035154D01*
X132826547Y-98785794D01*
X132176306Y-98785226D01*
X127176306Y-98785226D01*
X127176306Y-98785226D01*
X126575345Y-99033538D01*
X123423182Y-99033538D01*
X122826547Y-98785794D01*
X122176306Y-98785226D01*
X121575345Y-99033538D01*
X109185000Y-99033538D01*
X109185000Y-91816655D01*
X120040000Y-91816655D01*
X119466511Y-91930729D01*
X118980330Y-92255585D01*
X118969785Y-92271367D01*
X118964063Y-92241877D01*
X118824273Y-92029073D01*
X118613240Y-91886623D01*
X118363600Y-91836560D01*
X116636400Y-91836560D01*
X116394277Y-91883537D01*
X116181473Y-92023327D01*
X116039023Y-92234360D01*
X115988960Y-92484000D01*
X115988960Y-94516000D01*
X116035937Y-94758123D01*
X116175727Y-94970927D01*
X116386760Y-95113377D01*
X116636400Y-95163440D01*
X118363600Y-95163440D01*
X118605723Y-95116463D01*
X118818527Y-94976673D01*
X118960977Y-94765640D01*
X118968718Y-94727037D01*
X118980330Y-94744415D01*
X119466511Y-95069271D01*
X120040000Y-95183345D01*
X120613489Y-95069271D01*
X121099670Y-94744415D01*
X121310000Y-94429634D01*
X121520330Y-94744415D01*
X122006511Y-95069271D01*
X122580000Y-95183345D01*
X123153489Y-95069271D01*
X123639670Y-94744415D01*
X123850000Y-94429634D01*
X124060330Y-94744415D01*
X124546511Y-95069271D01*
X125120000Y-95183345D01*
X125693489Y-95069271D01*
X126179670Y-94744415D01*
X126504526Y-94258234D01*
X126618600Y-93684745D01*
X126618600Y-93315255D01*
X126504526Y-92741766D01*
X126179670Y-92255585D01*
X125693489Y-91930729D01*
X125120000Y-91816655D01*
X124546511Y-91930729D01*
X124060330Y-92255585D01*
X123850000Y-92570366D01*
X123639670Y-92255585D01*
X123153489Y-91930729D01*
X122580000Y-91816655D01*
X122006511Y-91930729D01*
X121520330Y-92255585D01*
X121310000Y-92570366D01*
X121099670Y-92255585D01*
X120613489Y-91930729D01*
X120040000Y-91816655D01*
X109185000Y-91816655D01*
X109185000Y-85825241D01*
X109938249Y-86579806D01*
X111273782Y-87134368D01*
X112719874Y-87135630D01*
X114056372Y-86583400D01*
X115079806Y-85561751D01*
X115488960Y-84576399D01*
X115488960Y-85863600D01*
M02*
